font.ufo
<glyph name="dollar" format="1">
  <advance width="502"/>
  <unicode hex="0024"/>
  <outline>
    <contour>
      <point x="306" y="659" type="line"/>
      <point x="306" y="781" type="line"/>
      <point x="251" y="781" type="line"/>
      <point x="251" y="659" type="line"/>
    </contour>
    <contour>
      <point x="200" y="25" type="line"/>
      <point x="200" y="-107" type="line"/>
      <point x="255" y="-107" type="line"/>
      <point x="255" y="25" type="line"/>
    </contour>
    <contour>
      <point x="408" y="650" type="line"/>
      <point x="369" y="671"/>
      <point x="315" y="680"/>
      <point x="268" y="680" type="curve" smooth="yes"/>
      <point x="158" y="680"/>
      <point x="58" y="619"/>
      <point x="58" y="500" type="curve" smooth="yes"/>
      <point x="58" y="394"/>
      <point x="140" y="352"/>
      <point x="221" y="317" type="curve" smooth="yes"/>
      <point x="303" y="282"/>
      <point x="384" y="253"/>
      <point x="384" y="173" type="curve" smooth="yes"/>
      <point x="384" y="94"/>
      <point x="327" y="53"/>
      <point x="234" y="53" type="curve" smooth="yes"/>
      <point x="167" y="53"/>
      <point x="99" y="76"/>
      <point x="60" y="106" type="curve"/>
      <point x="60" y="37" type="line"/>
      <point x="108" y="8"/>
      <point x="174" y="-7"/>
      <point x="237" y="-7" type="curve" smooth="yes"/>
      <point x="353" y="-7"/>
      <point x="447" y="52"/>
      <point x="447" y="174" type="curve" smooth="yes"/>
      <point x="447" y="281"/>
      <point x="366" y="323"/>
      <point x="285" y="358" type="curve" smooth="yes"/>
      <point x="203" y="394"/>
      <point x="122" y="423"/>
      <point x="122" y="504" type="curve" smooth="yes"/>
      <point x="122" y="573"/>
      <point x="179" y="619"/>
      <point x="269" y="619" type="curve" smooth="yes"/>
      <point x="319" y="619"/>
      <point x="377" y="602"/>
      <point x="408" y="581" type="curve"/>
    </contour>
  </outline>
</glyph>
<glyph name="percent" format="1">
  <advance width="814"/>
  <unicode hex="0025"/>
  <outline>
    <contour>
      <point x="200" y="-1" type="line"/>
      <point x="261" y="-1" type="line"/>
      <point x="614" y="654" type="line"/>
      <point x="552" y="654" type="line"/>
    </contour>
    <contour>
      <point x="464" y="143" type="curve" smooth="yes"/>
      <point x="464" y="60"/>
      <point x="531" y="-7"/>
      <point x="614" y="-7" type="curve" smooth="yes"/>
      <point x="696" y="-7"/>
      <point x="764" y="60"/>
      <point x="764" y="143" type="curve" smooth="yes"/>
      <point x="764" y="225"/>
      <point x="696" y="293"/>
      <point x="614" y="293" type="curve" smooth="yes"/>
      <point x="531" y="293"/>
      <point x="464" y="225"/>
    </contour>
    <contour>
      <point x="50" y="510" type="curve" smooth="yes"/>
      <point x="50" y="427"/>
      <point x="117" y="360"/>
      <point x="200" y="360" type="curve" smooth="yes"/>
      <point x="282" y="360"/>
      <point x="350" y="427"/>
      <point x="350" y="510" type="curve" smooth="yes"/>
      <point x="350" y="592"/>
      <point x="282" y="660"/>
      <point x="200" y="660" type="curve" smooth="yes"/>
      <point x="117" y="660"/>
      <point x="50" y="592"/>
    </contour>
    <contour>
      <point x="106" y="510" type="curve" smooth="yes"/>
      <point x="106" y="562"/>
      <point x="148" y="604"/>
      <point x="200" y="604" type="curve" smooth="yes"/>
      <point x="252" y="604"/>
      <point x="294" y="562"/>
      <point x="294" y="510" type="curve" smooth="yes"/>
      <point x="294" y="458"/>
      <point x="252" y="416"/>
      <point x="200" y="416" type="curve" smooth="yes"/>
      <point x="148" y="416"/>
      <point x="106" y="458"/>
    </contour>
    <contour>
      <point x="520" y="143" type="curve" smooth="yes"/>
      <point x="520" y="195"/>
      <point x="562" y="237"/>
      <point x="614" y="237" type="curve" smooth="yes"/>
      <point x="666" y="237"/>
      <point x="708" y="195"/>
      <point x="708" y="143" type="curve" smooth="yes"/>
      <point x="708" y="91"/>
      <point x="666" y="49"/>
      <point x="614" y="49" type="curve" smooth="yes"/>
      <point x="562" y="49"/>
      <point x="520" y="91"/>
    </contour>
  </outline>
</glyph>
<glyph name="quotesingle" format="1">
  <advance width="147"/>
  <unicode hex="0027"/>
  <outline>
    <contour>
      <point x="45" y="451" type="line"/>
      <point x="102" y="451" type="line"/>
      <point x="102" y="681" type="line"/>
      <point x="45" y="681" type="line"/>
    </contour>
  </outline>
</glyph>
<glyph name="parenright" format="1">
  <advance width="303"/>
  <unicode hex="0029"/>
  <outline>
    <contour>
      <point x="71" y="707" type="curve"/>
      <point x="0" y="707" type="line"/>
      <point x="107" y="560"/>
      <point x="158" y="419"/>
      <point x="158" y="257" type="curve" smooth="yes"/>
      <point x="158" y="101"/>
      <point x="101" y="-54"/>
      <point x="-7" y="-196" type="curve"/>
      <point x="63" y="-196" type="line"/>
      <point x="169" y="-61"/>
      <point x="223" y="103"/>
      <point x="223" y="262" type="curve" smooth="yes"/>
      <point x="223" y="424"/>
      <point x="162" y="587"/>
    </contour>
  </outline>
</glyph>
<glyph name="comma" format="1">
  <advance width="207"/>
  <unicode hex="002C"/>
  <outline>
    <contour>
      <point x="-8" y="-122" type="line"/>
      <point x="46" y="-122" type="line"/>
      <point x="173" y="92" type="line"/>
      <point x="83" y="92" type="line"/>
    </contour>
  </outline>
</glyph>
<glyph name="hyphen" format="1">
  <advance width="345"/>
  <unicode hex="002D"/>
  <outline>
    <contour>
      <point x="60" y="243" type="line"/>
      <point x="285" y="243" type="line"/>
      <point x="285" y="298" type="line"/>
      <point x="60" y="298" type="line"/>
    </contour>
  </outline>
</glyph>
<glyph name="period" format="1">
  <advance width="142"/>
  <unicode hex="002E"/>
  <outline>
    <contour>
      <point x="20" y="43" type="curve" smooth="yes"/>
      <point x="20" y="14"/>
      <point x="42" y="-8"/>
      <point x="71" y="-8" type="curve" smooth="yes"/>
      <point x="100" y="-8"/>
      <point x="122" y="14"/>
      <point x="122" y="43" type="curve" smooth="yes"/>
      <point x="122" y="72"/>
      <point x="100" y="94"/>
      <point x="71" y="94" type="curve" smooth="yes"/>
      <point x="42" y="94"/>
      <point x="20" y="72"/>
    </contour>
  </outline>
</glyph>
<glyph name="slash" format="1">
  <advance width="387"/>
  <unicode hex="002F"/>
  <outline>
    <contour>
      <point x="-11" y="-102" type="line"/>
      <point x="50" y="-102" type="line"/>
      <point x="417" y="707" type="line"/>
      <point x="355" y="707" type="line"/>
    </contour>
  </outline>
</glyph>
<glyph name="zero" format="1">
  <advance width="543"/>
  <unicode hex="0030"/>
  <outline>
    <contour>
      <point x="45" y="329" type="curve" smooth="yes"/>
      <point x="45" y="125"/>
      <point x="137" y="-8"/>
      <point x="269" y="-8" type="curve" smooth="yes"/>
      <point x="417" y="-8"/>
      <point x="498" y="131"/>
      <point x="498" y="329" type="curve" smooth="yes"/>
      <point x="498" y="537"/>
      <point x="403" y="660"/>
      <point x="269" y="660" type="curve" smooth="yes"/>
      <point x="142" y="660"/>
      <point x="45" y="537"/>
    </contour>
    <contour>
      <point x="108" y="329" type="curve" smooth="yes"/>
      <point x="108" y="513"/>
      <point x="192" y="600"/>
      <point x="269" y="600" type="curve" smooth="yes"/>
      <point x="357" y="600"/>
      <point x="435" y="513"/>
      <point x="435" y="329" type="curve" smooth="yes"/>
      <point x="435" y="148"/>
      <point x="367" y="52"/>
      <point x="269" y="52" type="curve" smooth="yes"/>
      <point x="185" y="52"/>
      <point x="108" y="148"/>
    </contour>
  </outline>
</glyph>
<glyph name="two" format="1">
  <advance width="492"/>
  <unicode hex="0032"/>
  <outline>
    <contour>
      <point x="77" y="16" type="line"/>
      <point x="274" y="164"/>
      <point x="424" y="324"/>
      <point x="424" y="466" type="curve" smooth="yes"/>
      <point x="424" y="598"/>
      <point x="323" y="660"/>
      <point x="220" y="660" type="curve" smooth="yes"/>
      <point x="167" y="660"/>
      <point x="108" y="641"/>
      <point x="64" y="606" type="curve"/>
      <point x="64" y="544" type="line"/>
      <point x="113" y="580"/>
      <point x="172" y="602"/>
      <point x="218" y="602" type="curve" smooth="yes"/>
      <point x="301" y="602"/>
      <point x="360" y="556"/>
      <point x="360" y="463" type="curve" smooth="yes"/>
      <point x="360" y="329"/>
      <point x="197" y="175"/>
      <point x="40" y="55" type="curve"/>
    </contour>
    <contour>
      <point x="40" y="0" type="line"/>
      <point x="447" y="0" type="line"/>
      <point x="447" y="55" type="line"/>
      <point x="447" y="55"/>
      <point x="206" y="55"/>
      <point x="88" y="55" type="curve" smooth="yes"/>
      <point x="40" y="55" type="line"/>
    </contour>
  </outline>
</glyph>
<glyph name="five" format="1">
  <advance width="512"/>
  <unicode hex="0035"/>
  <outline>
    <contour>
      <point x="98" y="299" type="curve"/>
      <point x="98" y="361" type="line"/>
      <point x="150" y="381"/>
      <point x="202" y="392"/>
      <point x="247" y="392" type="curve" smooth="yes"/>
      <point x="376" y="392"/>
      <point x="462" y="318"/>
      <point x="462" y="200" type="curve" smooth="yes"/>
      <point x="462" y="73"/>
      <point x="374" y="-8"/>
      <point x="231" y="-8" type="curve" smooth="yes"/>
      <point x="179" y="-8"/>
      <point x="114" y="2"/>
      <point x="65" y="25" type="curve"/>
      <point x="65" y="87" type="line"/>
      <point x="105" y="64"/>
      <point x="169" y="50"/>
      <point x="221" y="50" type="curve" smooth="yes"/>
      <point x="335" y="50"/>
      <point x="398" y="98"/>
      <point x="398" y="203" type="curve" smooth="yes"/>
      <point x="398" y="291"/>
      <point x="331" y="334"/>
      <point x="250" y="334" type="curve" smooth="yes"/>
      <point x="194" y="334"/>
      <point x="141" y="318"/>
    </contour>
    <contour>
      <point x="416" y="599" type="line"/>
      <point x="98" y="599" type="line"/>
      <point x="98" y="654" type="line"/>
      <point x="416" y="654" type="line"/>
    </contour>
    <contour>
      <point x="98" y="609" type="line"/>
      <point x="160" y="609" type="line"/>
      <point x="160" y="351" type="line"/>
      <point x="98" y="351" type="line"/>
    </contour>
  </outline>
</glyph>
<glyph name="six" format="1">
  <advance width="523"/>
  <unicode hex="0036"/>
  <outline>
    <contour>
      <point x="99" y="322" type="line"/>
      <point x="138" y="383"/>
      <point x="219" y="421"/>
      <point x="290" y="421" type="curve" smooth="yes"/>
      <point x="413" y="421"/>
      <point x="484" y="336"/>
      <point x="484" y="213" type="curve" smooth="yes"/>
      <point x="484" y="79"/>
      <point x="403" y="-8"/>
      <point x="285" y="-8" type="curve" smooth="yes"/>
      <point x="135" y="-8"/>
      <point x="57" y="122"/>
      <point x="57" y="295" type="curve" smooth="yes"/>
      <point x="57" y="499"/>
      <point x="155" y="675"/>
      <point x="350" y="675" type="curve" smooth="yes"/>
      <point x="386" y="675"/>
      <point x="411" y="670"/>
      <point x="439" y="660" type="curve"/>
      <point x="439" y="598" type="line"/>
      <point x="413" y="610"/>
      <point x="383" y="617"/>
      <point x="349" y="617" type="curve" smooth="yes"/>
      <point x="190" y="617"/>
      <point x="117" y="455"/>
      <point x="117" y="295" type="curve" smooth="yes"/>
      <point x="117" y="130"/>
      <point x="189" y="49"/>
      <point x="285" y="49" type="curve" smooth="yes"/>
      <point x="369" y="49"/>
      <point x="420" y="118"/>
      <point x="420" y="215" type="curve" smooth="yes"/>
      <point x="420" y="308"/>
      <point x="365" y="363"/>
      <point x="289" y="363" type="curve" smooth="yes"/>
      <point x="206" y="363"/>
      <point x="132" y="313"/>
      <point x="99" y="259" type="curve"/>
    </contour>
  </outline>
</glyph>
<glyph name="seven" format="1">
  <advance width="443"/>
  <unicode hex="0037"/>
  <outline>
    <contour>
      <point x="158" y="0" type="line"/>
      <point x="92" y="0" type="line"/>
      <point x="368" y="599" type="line"/>
      <point x="433" y="599" type="line"/>
    </contour>
    <contour>
      <point x="433" y="599" type="line"/>
      <point x="10" y="599" type="line"/>
      <point x="10" y="654" type="line"/>
      <point x="433" y="654" type="line"/>
    </contour>
  </outline>
</glyph>
<glyph name="eight" format="1">
  <advance width="533"/>
  <unicode hex="0038"/>
  <outline>
    <contour>
      <point x="66" y="479" type="curve" smooth="yes"/>
      <point x="66" y="378"/>
      <point x="144" y="314"/>
      <point x="263" y="314" type="curve" smooth="yes"/>
      <point x="383" y="314"/>
      <point x="461" y="381"/>
      <point x="461" y="477" type="curve" smooth="yes"/>
      <point x="461" y="602"/>
      <point x="360" y="660"/>
      <point x="263" y="660" type="curve" smooth="yes"/>
      <point x="167" y="660"/>
      <point x="66" y="599"/>
    </contour>
    <contour>
      <point x="263" y="602" type="curve" smooth="yes"/>
      <point x="352" y="602"/>
      <point x="398" y="547"/>
      <point x="398" y="481" type="curve" smooth="yes"/>
      <point x="398" y="399"/>
      <point x="341" y="355"/>
      <point x="267" y="355" type="curve" smooth="yes"/>
      <point x="191" y="355"/>
      <point x="129" y="392"/>
      <point x="129" y="479" type="curve" smooth="yes"/>
      <point x="129" y="545"/>
      <point x="179" y="602"/>
    </contour>
    <contour>
      <point x="55" y="162" type="curve" smooth="yes"/>
      <point x="55" y="56"/>
      <point x="151" y="-8"/>
      <point x="263" y="-8" type="curve" smooth="yes"/>
      <point x="380" y="-8"/>
      <point x="478" y="58"/>
      <point x="478" y="167" type="curve" smooth="yes"/>
      <point x="478" y="284"/>
      <point x="385" y="336"/>
      <point x="263" y="336" type="curve" smooth="yes"/>
      <point x="143" y="336"/>
      <point x="55" y="272"/>
    </contour>
    <contour>
      <point x="264" y="297" type="curve"/>
      <point x="373" y="298"/>
      <point x="415" y="237"/>
      <point x="415" y="176" type="curve" smooth="yes"/>
      <point x="415" y="110"/>
      <point x="366" y="50"/>
      <point x="264" y="50" type="curve" smooth="yes"/>
      <point x="167" y="50"/>
      <point x="118" y="104"/>
      <point x="118" y="166" type="curve" smooth="yes"/>
      <point x="118" y="233"/>
      <point x="160" y="296"/>
    </contour>
  </outline>
</glyph>
<glyph name="colon" format="1">
  <advance width="222"/>
  <unicode hex="003A"/>
  <outline>
    <contour>
      <point x="60" y="369" type="curve" smooth="yes"/>
      <point x="60" y="340"/>
      <point x="81" y="319"/>
      <point x="110" y="319" type="curve" smooth="yes"/>
      <point x="139" y="319"/>
      <point x="162" y="340"/>
      <point x="162" y="369" type="curve" smooth="yes"/>
      <point x="162" y="397"/>
      <point x="139" y="420"/>
      <point x="110" y="420" type="curve" smooth="yes"/>
      <point x="81" y="420"/>
      <point x="60" y="397"/>
    </contour>
    <contour>
      <point x="60" y="49" type="curve" smooth="yes"/>
      <point x="60" y="20"/>
      <point x="81" y="-1"/>
      <point x="110" y="-1" type="curve" smooth="yes"/>
      <point x="139" y="-1"/>
      <point x="162" y="20"/>
      <point x="162" y="49" type="curve" smooth="yes"/>
      <point x="162" y="77"/>
      <point x="139" y="100"/>
      <point x="110" y="100" type="curve" smooth="yes"/>
      <point x="81" y="100"/>
      <point x="60" y="77"/>
    </contour>
  </outline>
</glyph>
<glyph name="semicolon" format="1">
  <advance width="207"/>
  <unicode hex="003B"/>
  <outline>
    <contour>
      <point x="69" y="368" type="curve" smooth="yes"/>
      <point x="69" y="339"/>
      <point x="90" y="318"/>
      <point x="119" y="318" type="curve" smooth="yes"/>
      <point x="148" y="318"/>
      <point x="171" y="339"/>
      <point x="171" y="368" type="curve" smooth="yes"/>
      <point x="171" y="396"/>
      <point x="148" y="419"/>
      <point x="119" y="419" type="curve" smooth="yes"/>
      <point x="90" y="419"/>
      <point x="69" y="396"/>
    </contour>
    <contour>
      <point x="-8" y="-122" type="line"/>
      <point x="46" y="-122" type="line"/>
      <point x="173" y="92" type="line"/>
      <point x="83" y="92" type="line"/>
    </contour>
  </outline>
</glyph>
<glyph name="equal" format="1">
  <advance width="544"/>
  <unicode hex="003D"/>
  <outline>
    <contour>
      <point x="60" y="410" type="line"/>
      <point x="484" y="410" type="line"/>
      <point x="484" y="465" type="line"/>
      <point x="60" y="465" type="line"/>
    </contour>
    <contour>
      <point x="60" y="215" type="line"/>
      <point x="484" y="215" type="line"/>
      <point x="484" y="271" type="line"/>
      <point x="60" y="271" type="line"/>
    </contour>
  </outline>
</glyph>
<glyph name="greater" format="1">
  <advance width="510"/>
  <unicode hex="003E"/>
  <outline>
    <contour>
      <point x="450" y="371" type="line"/>
      <point x="50" y="562" type="line"/>
      <point x="50" y="497" type="line"/>
      <point x="50" y="497"/>
      <point x="289" y="387"/>
      <point x="383" y="342" type="curve"/>
      <point x="287" y="295"/>
      <point x="50" y="185"/>
      <point x="50" y="185" type="curve"/>
      <point x="50" y="120" type="line"/>
      <point x="450" y="311" type="line"/>
    </contour>
  </outline>
</glyph>
<glyph name="question" format="1">
  <advance width="450"/>
  <unicode hex="003F"/>
  <outline>
    <contour>
      <point x="40" y="573" type="line"/>
      <point x="98" y="610"/>
      <point x="150" y="624"/>
      <point x="202" y="624" type="curve" smooth="yes"/>
      <point x="302" y="624"/>
      <point x="346" y="569"/>
      <point x="346" y="500" type="curve" smooth="yes"/>
      <point x="346" y="407"/>
      <point x="264" y="366"/>
      <point x="144" y="366" type="curve"/>
      <point x="144" y="196" type="line"/>
      <point x="205" y="196" type="line"/>
      <point x="205" y="312" type="line"/>
      <point x="308" y="322"/>
      <point x="410" y="377"/>
      <point x="410" y="499" type="curve" smooth="yes"/>
      <point x="410" y="617"/>
      <point x="327" y="682"/>
      <point x="201" y="682" type="curve" smooth="yes"/>
      <point x="137" y="682"/>
      <point x="73" y="660"/>
      <point x="40" y="638" type="curve"/>
    </contour>
    <contour>
      <point x="123" y="42" type="curve" smooth="yes"/>
      <point x="123" y="13"/>
      <point x="144" y="-8"/>
      <point x="173" y="-8" type="curve" smooth="yes"/>
      <point x="202" y="-8"/>
      <point x="225" y="13"/>
      <point x="225" y="42" type="curve" smooth="yes"/>
      <point x="225" y="70"/>
      <point x="202" y="93"/>
      <point x="173" y="93" type="curve" smooth="yes"/>
      <point x="144" y="93"/>
      <point x="123" y="70"/>
    </contour>
  </outline>
</glyph>
<glyph name="at" format="1">
  <advance width="886"/>
  <unicode hex="0040"/>
  <outline>
    <contour>
      <point x="567" y="401" type="curve"/>
      <point x="620" y="401" type="line"/>
      <point x="602" y="232" type="line" smooth="yes"/>
      <point x="600" y="213"/>
      <point x="599" y="194"/>
      <point x="599" y="177" type="curve" smooth="yes"/>
      <point x="599" y="119"/>
      <point x="614" y="77"/>
      <point x="670" y="77" type="curve" smooth="yes"/>
      <point x="730" y="77"/>
      <point x="779" y="151"/>
      <point x="779" y="257" type="curve" smooth="yes"/>
      <point x="779" y="442"/>
      <point x="648" y="544"/>
      <point x="482" y="544" type="curve" smooth="yes"/>
      <point x="301" y="544"/>
      <point x="127" y="404"/>
      <point x="127" y="196" type="curve" smooth="yes"/>
      <point x="127" y="-7"/>
      <point x="263" y="-100"/>
      <point x="402" y="-100" type="curve" smooth="yes"/>
      <point x="461" y="-100"/>
      <point x="518" y="-91"/>
      <point x="574" y="-58" type="curve"/>
      <point x="570" y="-123" type="line"/>
      <point x="521" y="-149"/>
      <point x="451" y="-155"/>
      <point x="400" y="-155" type="curve" smooth="yes"/>
      <point x="192" y="-155"/>
      <point x="65" y="-8"/>
      <point x="65" y="195" type="curve" smooth="yes"/>
      <point x="65" y="431"/>
      <point x="254" y="597"/>
      <point x="484" y="597" type="curve" smooth="yes"/>
      <point x="677" y="597"/>
      <point x="836" y="469"/>
      <point x="836" y="260" type="curve" smooth="yes"/>
      <point x="836" y="95"/>
      <point x="742" y="26"/>
      <point x="666" y="26" type="curve" smooth="yes"/>
      <point x="553" y="26"/>
      <point x="551" y="131"/>
      <point x="551" y="162" type="curve" smooth="yes"/>
      <point x="551" y="213"/>
      <point x="560" y="273"/>
    </contour>
    <contour>
      <point x="592" y="274" type="curve"/>
      <point x="558" y="219" type="line"/>
      <point x="552" y="299"/>
      <point x="525" y="352"/>
      <point x="443" y="352" type="curve" smooth="yes"/>
      <point x="366" y="352"/>
      <point x="317" y="277"/>
      <point x="317" y="195" type="curve" smooth="yes"/>
      <point x="317" y="124"/>
      <point x="356" y="77"/>
      <point x="416" y="77" type="curve" smooth="yes"/>
      <point x="475" y="77"/>
      <point x="537" y="123"/>
      <point x="557" y="206" type="curve"/>
      <point x="579" y="145" type="line"/>
      <point x="547" y="74"/>
      <point x="491" y="23"/>
      <point x="411" y="23" type="curve" smooth="yes"/>
      <point x="313" y="23"/>
      <point x="256" y="100"/>
      <point x="256" y="199" type="curve" smooth="yes"/>
      <point x="256" y="312"/>
      <point x="335" y="407"/>
      <point x="446" y="407" type="curve" smooth="yes"/>
      <point x="533" y="407"/>
      <point x="573" y="352"/>
    </contour>
  </outline>
</glyph>
<glyph name="A" format="1">
  <advance width="637"/>
  <unicode hex="0041"/>
  <outline>
    <contour>
      <point x="38" y="0" type="line"/>
      <point x="105" y="0" type="line"/>
      <point x="204" y="284" type="line" smooth="yes"/>
      <point x="308" y="583"/>
      <point x="321" y="622"/>
      <point x="321" y="622" type="curve"/>
      <point x="321" y="622"/>
      <point x="333" y="583"/>
      <point x="435" y="285" type="curve" smooth="yes"/>
      <point x="532" y="0" type="line"/>
      <point x="599" y="0" type="line"/>
      <point x="366" y="674" type="line"/>
      <point x="276" y="674" type="line"/>
    </contour>
    <contour>
      <point x="135" y="187" type="line"/>
      <point x="496" y="187" type="line"/>
      <point x="496" y="242" type="line"/>
      <point x="135" y="242" type="line"/>
    </contour>
  </outline>
</glyph>
<glyph name="C" format="1">
  <advance width="599"/>
  <unicode hex="0043"/>
  <outline>
    <contour>
      <point x="114" y="341" type="curve" smooth="yes"/>
      <point x="114" y="164"/>
      <point x="226" y="51"/>
      <point x="394" y="51" type="curve" smooth="yes"/>
      <point x="460" y="51"/>
      <point x="521" y="73"/>
      <point x="559" y="103" type="curve"/>
      <point x="559" y="35" type="line"/>
      <point x="519" y="7"/>
      <point x="455" y="-8"/>
      <point x="391" y="-8" type="curve" smooth="yes"/>
      <point x="190" y="-8"/>
      <point x="50" y="120"/>
      <point x="50" y="341" type="curve" smooth="yes"/>
      <point x="50" y="547"/>
      <point x="200" y="683"/>
      <point x="387" y="683" type="curve" smooth="yes"/>
      <point x="459" y="683"/>
      <point x="510" y="671"/>
      <point x="557" y="647" type="curve"/>
      <point x="557" y="582" type="line"/>
      <point x="507" y="608"/>
      <point x="473" y="624"/>
      <point x="385" y="624" type="curve" smooth="yes"/>
      <point x="233" y="624"/>
      <point x="114" y="512"/>
    </contour>
  </outline>
</glyph>
<glyph name="D" format="1">
  <advance width="655"/>
  <unicode hex="0044"/>
  <outline>
    <contour>
      <point x="80" y="0" type="line"/>
      <point x="142" y="0" type="line"/>
      <point x="142" y="674" type="line"/>
      <point x="80" y="674" type="line"/>
    </contour>
    <contour>
      <point x="277" y="0" type="line"/>
      <point x="503" y="0"/>
      <point x="610" y="166"/>
      <point x="610" y="341" type="curve" smooth="yes"/>
      <point x="610" y="541"/>
      <point x="468" y="674"/>
      <point x="272" y="674" type="curve"/>
      <point x="80" y="674" type="line"/>
      <point x="80" y="617" type="line"/>
      <point x="272" y="617" type="line"/>
      <point x="436" y="617"/>
      <point x="545" y="491"/>
      <point x="545" y="341" type="curve" smooth="yes"/>
      <point x="545" y="198"/>
      <point x="467" y="57"/>
      <point x="277" y="57" type="curve"/>
      <point x="80" y="57" type="line"/>
      <point x="80" y="0" type="line"/>
    </contour>
  </outline>
</glyph>
<glyph name="E" format="1">
  <advance width="490"/>
  <unicode hex="0045"/>
  <outline>
    <contour>
      <point x="88" y="0" type="line"/>
      <point x="445" y="0" type="line"/>
      <point x="445" y="57" type="line"/>
      <point x="88" y="57" type="line"/>
    </contour>
    <contour>
      <point x="80" y="0" type="line"/>
      <point x="142" y="0" type="line"/>
      <point x="142" y="674" type="line"/>
      <point x="80" y="674" type="line"/>
    </contour>
    <contour>
      <point x="88" y="308" type="line"/>
      <point x="404" y="308" type="line"/>
      <point x="404" y="365" type="line"/>
      <point x="88" y="365" type="line"/>
    </contour>
    <contour>
      <point x="88" y="617" type="line"/>
      <point x="439" y="617" type="line"/>
      <point x="439" y="674" type="line"/>
      <point x="88" y="674" type="line"/>
    </contour>
  </outline>
</glyph>
<glyph name="F" format="1">
  <advance width="484"/>
  <unicode hex="0046"/>
  <outline>
    <contour>
      <point x="80" y="0" type="line"/>
      <point x="142" y="0" type="line"/>
      <point x="142" y="674" type="line"/>
      <point x="80" y="674" type="line"/>
    </contour>
    <contour>
      <point x="88" y="303" type="line"/>
      <point x="404" y="303" type="line"/>
      <point x="404" y="360" type="line"/>
      <point x="88" y="360" type="line"/>
    </contour>
    <contour>
      <point x="88" y="617" type="line"/>
      <point x="439" y="617" type="line"/>
      <point x="439" y="674" type="line"/>
      <point x="88" y="674" type="line"/>
    </contour>
  </outline>
</glyph>
<glyph name="H" format="1">
  <advance width="632"/>
  <unicode hex="0048"/>
  <outline>
    <contour>
      <point x="128" y="315" type="line"/>
      <point x="509" y="315" type="line"/>
      <point x="509" y="372" type="line"/>
      <point x="128" y="372" type="line"/>
    </contour>
    <contour>
      <point x="490" y="0" type="line"/>
      <point x="552" y="0" type="line"/>
      <point x="552" y="674" type="line"/>
      <point x="490" y="674" type="line"/>
    </contour>
    <contour>
      <point x="80" y="0" type="line"/>
      <point x="142" y="0" type="line"/>
      <point x="142" y="674" type="line"/>
      <point x="80" y="674" type="line"/>
    </contour>
  </outline>
</glyph>
<glyph name="J" format="1">
  <advance width="349"/>
  <unicode hex="004A"/>
  <outline>
    <contour>
      <point x="30" y="23" type="line"/>
      <point x="55" y="8"/>
      <point x="94" y="0"/>
      <point x="122" y="0" type="curve" smooth="yes"/>
      <point x="199" y="0"/>
      <point x="269" y="34"/>
      <point x="269" y="165" type="curve"/>
      <point x="269" y="674" type="line"/>
      <point x="207" y="674" type="line"/>
      <point x="207" y="155" type="line" smooth="yes"/>
      <point x="207" y="89"/>
      <point x="176" y="59"/>
      <point x="116" y="59" type="curve" smooth="yes"/>
      <point x="85" y="59"/>
      <point x="54" y="70"/>
      <point x="30" y="86" type="curve"/>
    </contour>
  </outline>
</glyph>
<glyph name="K" format="1">
  <advance width="549"/>
  <unicode hex="004B"/>
  <outline>
    <contour>
      <point x="80" y="0" type="line"/>
      <point x="142" y="0" type="line"/>
      <point x="142" y="674" type="line"/>
      <point x="80" y="674" type="line"/>
    </contour>
    <contour>
      <point x="160" y="332" type="line"/>
      <point x="437" y="0" type="line"/>
      <point x="519" y="0" type="line"/>
      <point x="239" y="332" type="line"/>
    </contour>
    <contour>
      <point x="239" y="332" type="line"/>
      <point x="505" y="674" type="line"/>
      <point x="427" y="674" type="line"/>
      <point x="160" y="332" type="line"/>
    </contour>
  </outline>
</glyph>
<glyph name="L" format="1">
  <advance width="474"/>
  <unicode hex="004C"/>
  <outline>
    <contour>
      <point x="80" y="674" type="line"/>
      <point x="142" y="674" type="line"/>
      <point x="142" y="0" type="line"/>
      <point x="80" y="0" type="line"/>
    </contour>
    <contour>
      <point x="88" y="57" type="line"/>
      <point x="439" y="57" type="line"/>
      <point x="439" y="0" type="line"/>
      <point x="88" y="0" type="line"/>
    </contour>
  </outline>
</glyph>
<glyph name="M" format="1">
  <advance width="848"/>
  <unicode hex="004D"/>
  <outline>
    <contour>
      <point x="75" y="0" type="line"/>
      <point x="137" y="0" type="line"/>
      <point x="156" y="267" type="line" smooth="yes"/>
      <point x="168" y="435"/>
      <point x="177" y="586"/>
      <point x="177" y="586" type="curve"/>
      <point x="177" y="586"/>
      <point x="230" y="435"/>
      <point x="289" y="267" type="curve" smooth="yes"/>
      <point x="377" y="17" type="line"/>
      <point x="450" y="17" type="line"/>
      <point x="543" y="267" type="line" smooth="yes"/>
      <point x="602" y="426"/>
      <point x="662" y="593"/>
      <point x="662" y="593" type="curve"/>
      <point x="662" y="593"/>
      <point x="675" y="427"/>
      <point x="689" y="267" type="curve" smooth="yes"/>
      <point x="712" y="0" type="line"/>
      <point x="774" y="0" type="line"/>
      <point x="717" y="674" type="line"/>
      <point x="632" y="674" type="line"/>
      <point x="540" y="427" type="line" smooth="yes"/>
      <point x="483" y="274"/>
      <point x="414" y="84"/>
      <point x="414" y="84" type="curve"/>
      <point x="414" y="84"/>
      <point x="347" y="280"/>
      <point x="295" y="427" type="curve" smooth="yes"/>
      <point x="207" y="674" type="line"/>
      <point x="122" y="674" type="line"/>
    </contour>
  </outline>
</glyph>
<glyph name="P" format="1">
  <advance width="540"/>
  <unicode hex="0050"/>
  <outline>
    <contour>
      <point x="253" y="256" type="line"/>
      <point x="407" y="256"/>
      <point x="495" y="351"/>
      <point x="495" y="458" type="curve"/>
      <point x="495" y="584"/>
      <point x="403" y="674"/>
      <point x="242" y="674" type="curve" smooth="yes"/>
      <point x="80" y="674" type="line"/>
      <point x="80" y="619" type="line"/>
      <point x="249" y="619" type="line" smooth="yes"/>
      <point x="366" y="619"/>
      <point x="432" y="555"/>
      <point x="432" y="458" type="curve" smooth="yes"/>
      <point x="432" y="377"/>
      <point x="369" y="311"/>
      <point x="260" y="311" type="curve" smooth="yes"/>
      <point x="80" y="311" type="line"/>
      <point x="80" y="256" type="line"/>
    </contour>
    <contour>
      <point x="80" y="0" type="line"/>
      <point x="142" y="0" type="line"/>
      <point x="142" y="674" type="line"/>
      <point x="80" y="674" type="line"/>
    </contour>
  </outline>
</glyph>
<glyph name="W" format="1">
  <advance width="929"/>
  <unicode hex="0057"/>
  <outline>
    <contour>
      <point x="505" y="664" type="line"/>
      <point x="580" y="423" type="line" smooth="yes"/>
      <point x="610" y="326"/>
      <point x="692" y="59"/>
      <point x="692" y="59" type="curve"/>
      <point x="692" y="59"/>
      <point x="747" y="315"/>
      <point x="771" y="422" type="curve" smooth="yes"/>
      <point x="827" y="674" type="line"/>
      <point x="889" y="674" type="line"/>
      <point x="736" y="0" type="line"/>
      <point x="651" y="0" type="line"/>
      <point x="584" y="213" type="line" smooth="yes"/>
      <point x="511" y="445"/>
      <point x="470" y="583"/>
      <point x="470" y="583" type="curve"/>
      <point x="470" y="583"/>
      <point x="432" y="445"/>
      <point x="363" y="213" type="curve" smooth="yes"/>
      <point x="300" y="0" type="line"/>
      <point x="215" y="0" type="line"/>
      <point x="40" y="674" type="line"/>
      <point x="105" y="674" type="line"/>
      <point x="168" y="424" type="line" smooth="yes"/>
      <point x="190" y="339"/>
      <point x="259" y="63"/>
      <point x="259" y="63" type="curve"/>
      <point x="259" y="63"/>
      <point x="326" y="302"/>
      <point x="362" y="424" type="curve" smooth="yes"/>
      <point x="432" y="664" type="line"/>
    </contour>
  </outline>
</glyph>
<glyph name="Y" format="1">
  <advance width="580"/>
  <unicode hex="0059"/>
  <outline>
    <contour>
      <point x="258" y="252" type="line"/>
      <point x="30" y="674" type="line"/>
      <point x="101" y="674" type="line"/>
      <point x="154" y="575" type="line" smooth="yes"/>
      <point x="282" y="334"/>
      <point x="289" y="315"/>
      <point x="289" y="315" type="curve"/>
      <point x="289" y="315"/>
      <point x="297" y="334"/>
      <point x="426" y="575" type="curve" smooth="yes"/>
      <point x="479" y="674" type="line"/>
      <point x="550" y="674" type="line"/>
      <point x="320" y="252" type="line"/>
    </contour>
    <contour>
      <point x="258" y="272" type="line"/>
      <point x="320" y="272" type="line"/>
      <point x="320" y="0" type="line"/>
      <point x="258" y="0" type="line"/>
    </contour>
  </outline>
</glyph>
<glyph name="Z" format="1">
  <advance width="555"/>
  <unicode hex="005A"/>
  <outline>
    <contour>
      <point x="490" y="674" type="line"/>
      <point x="54" y="674" type="line"/>
      <point x="54" y="619" type="line"/>
      <point x="420" y="619" type="line"/>
      <point x="50" y="55" type="line"/>
      <point x="50" y="0" type="line"/>
      <point x="505" y="0" type="line"/>
      <point x="505" y="55" type="line"/>
      <point x="120" y="55" type="line"/>
      <point x="490" y="619" type="line"/>
    </contour>
  </outline>
</glyph>
<glyph name="backslash" format="1">
  <advance width="386"/>
  <unicode hex="005C"/>
  <outline>
    <contour>
      <point x="398" y="-103" type="line"/>
      <point x="336" y="-103" type="line"/>
      <point x="-30" y="707" type="line"/>
      <point x="32" y="707" type="line"/>
    </contour>
  </outline>
</glyph>
<glyph name="bracketright" format="1">
  <advance width="296"/>
  <unicode hex="005D"/>
  <outline>
    <contour>
      <point x="216" y="-179" type="line"/>
      <point x="154" y="-179" type="line"/>
      <point x="154" y="707" type="line"/>
      <point x="216" y="707" type="line"/>
    </contour>
    <contour>
      <point x="216" y="652" type="line"/>
      <point x="0" y="652" type="line"/>
      <point x="0" y="707" type="line"/>
      <point x="216" y="707" type="line"/>
    </contour>
    <contour>
      <point x="216" y="-179" type="line"/>
      <point x="0" y="-179" type="line"/>
      <point x="0" y="-123" type="line"/>
      <point x="216" y="-123" type="line"/>
    </contour>
  </outline>
</glyph>
<glyph name="asciicircum" format="1">
  <advance width="453"/>
  <unicode hex="005E"/>
  <outline>
    <contour>
      <point x="48" y="332" type="line"/>
      <point x="112" y="332" type="line"/>
      <point x="247" y="594" type="line"/>
      <point x="188" y="594" type="line"/>
    </contour>
    <contour>
      <point x="270" y="594" type="line"/>
      <point x="210" y="594" type="line"/>
      <point x="341" y="332" type="line"/>
      <point x="405" y="332" type="line"/>
    </contour>
  </outline>
</glyph>
<glyph name="underscore" format="1">
  <advance width="565"/>
  <unicode hex="005F"/>
  <outline>
    <contour>
      <point x="30" y="-82" type="line"/>
      <point x="535" y="-82" type="line"/>
      <point x="535" y="-27" type="line"/>
      <point x="30" y="-27" type="line"/>
    </contour>
  </outline>
</glyph>
<glyph name="e" format="1">
  <advance width="519"/>
  <unicode hex="0065"/>
  <outline>
    <contour>
      <point x="85" y="226" type="line"/>
      <point x="467" y="226" type="line"/>
      <point x="470" y="241"/>
      <point x="471" y="270"/>
      <point x="471" y="280" type="curve" smooth="yes"/>
      <point x="471" y="431"/>
      <point x="389" y="513"/>
      <point x="268" y="513" type="curve" smooth="yes"/>
      <point x="138" y="513"/>
      <point x="45" y="416"/>
      <point x="45" y="251" type="curve" smooth="yes"/>
      <point x="45" y="96"/>
      <point x="150" y="-5"/>
      <point x="299" y="-5" type="curve" smooth="yes"/>
      <point x="342" y="-5"/>
      <point x="401" y="6"/>
      <point x="439" y="25" type="curve"/>
      <point x="439" y="87" type="line"/>
      <point x="403" y="63"/>
      <point x="343" y="53"/>
      <point x="302" y="53" type="curve" smooth="yes"/>
      <point x="184" y="53"/>
      <point x="108" y="121"/>
      <point x="108" y="251" type="curve" smooth="yes"/>
      <point x="108" y="387"/>
      <point x="177" y="456"/>
      <point x="266" y="456" type="curve" smooth="yes"/>
      <point x="352" y="456"/>
      <point x="408" y="398"/>
      <point x="408" y="305" type="curve" smooth="yes"/>
      <point x="408" y="282" type="line"/>
      <point x="85" y="282" type="line"/>
    </contour>
  </outline>
</glyph>
<glyph name="f" format="1">
  <advance width="325"/>
  <unicode hex="0066"/>
  <outline>
    <contour>
      <point x="301" y="646" type="line"/>
      <point x="288" y="651"/>
      <point x="273" y="654"/>
      <point x="257" y="654" type="curve" smooth="yes"/>
      <point x="221" y="654"/>
      <point x="184" y="627"/>
      <point x="184" y="560" type="curve" smooth="yes"/>
      <point x="184" y="0" type="line"/>
      <point x="123" y="0" type="line"/>
      <point x="123" y="561" type="line" smooth="yes"/>
      <point x="123" y="651"/>
      <point x="171" y="712"/>
      <point x="260" y="712" type="curve" smooth="yes"/>
      <point x="269" y="712"/>
      <point x="290" y="709"/>
      <point x="301" y="706" type="curve"/>
    </contour>
    <contour>
      <point x="30" y="507" type="line"/>
      <point x="300" y="507" type="line"/>
      <point x="300" y="455" type="line"/>
      <point x="30" y="455" type="line"/>
    </contour>
  </outline>
</glyph>
<glyph name="h" format="1">
  <advance width="529"/>
  <unicode hex="0068"/>
  <outline>
    <contour>
      <point x="76" y="0" type="line"/>
      <point x="137" y="0" type="line"/>
      <point x="137" y="707" type="line"/>
      <point x="76" y="707" type="line"/>
    </contour>
    <contour>
      <point x="398" y="0" type="line"/>
      <point x="459" y="0" type="line"/>
      <point x="459" y="354" type="line" smooth="yes"/>
      <point x="459" y="448"/>
      <point x="397" y="515"/>
      <point x="298" y="515" type="curve" smooth="yes"/>
      <point x="185" y="515"/>
      <point x="110" y="441"/>
      <point x="110" y="280" type="curve"/>
      <point x="137" y="280" type="line"/>
      <point x="137" y="394"/>
      <point x="212" y="456"/>
      <point x="289" y="456" type="curve" smooth="yes"/>
      <point x="351" y="456"/>
      <point x="398" y="416"/>
      <point x="398" y="335" type="curve" smooth="yes"/>
    </contour>
  </outline>
</glyph>
<glyph name="k" format="1">
  <advance width="462"/>
  <unicode hex="006B"/>
  <outline>
    <contour>
      <point x="152" y="266" type="line"/>
      <point x="226" y="266" type="line"/>
      <point x="433" y="507" type="line"/>
      <point x="358" y="507" type="line"/>
    </contour>
    <contour>
      <point x="76" y="0" type="line"/>
      <point x="137" y="0" type="line"/>
      <point x="137" y="707" type="line"/>
      <point x="76" y="707" type="line"/>
    </contour>
    <contour>
      <point x="364" y="0" type="line"/>
      <point x="440" y="0" type="line"/>
      <point x="226" y="266" type="line"/>
      <point x="152" y="266" type="line"/>
    </contour>
  </outline>
</glyph>
<glyph name="q" format="1">
  <advance width="555"/>
  <unicode hex="0071"/>
  <outline>
    <contour>
      <point x="479" y="507" type="line"/>
      <point x="418" y="507" type="line"/>
      <point x="418" y="-200" type="line"/>
      <point x="479" y="-200" type="line"/>
    </contour>
    <contour>
      <point x="418" y="251" type="curve" smooth="yes"/>
      <point x="418" y="93"/>
      <point x="323" y="50"/>
      <point x="265" y="50" type="curve" smooth="yes"/>
      <point x="179" y="50"/>
      <point x="109" y="119"/>
      <point x="109" y="260" type="curve" smooth="yes"/>
      <point x="109" y="377"/>
      <point x="173" y="457"/>
      <point x="259" y="457" type="curve" smooth="yes"/>
      <point x="332" y="457"/>
      <point x="418" y="413"/>
    </contour>
    <contour>
      <point x="464" y="251" type="curve" smooth="yes"/>
      <point x="464" y="366"/>
      <point x="420" y="515"/>
      <point x="261" y="515" type="curve" smooth="yes"/>
      <point x="119" y="515"/>
      <point x="45" y="394"/>
      <point x="45" y="259" type="curve" smooth="yes"/>
      <point x="45" y="102"/>
      <point x="135" y="-8"/>
      <point x="263" y="-8" type="curve" smooth="yes"/>
      <point x="394" y="-8"/>
      <point x="464" y="110"/>
    </contour>
  </outline>
</glyph>
<glyph name="r" format="1">
  <advance width="314"/>
  <unicode hex="0072"/>
  <outline>
    <contour>
      <point x="76" y="0" type="line"/>
      <point x="137" y="0" type="line"/>
      <point x="137" y="507" type="line"/>
      <point x="76" y="507" type="line"/>
    </contour>
    <contour>
      <point x="304" y="511" type="line"/>
      <point x="295" y="512"/>
      <point x="287" y="513"/>
      <point x="279" y="513" type="curve" smooth="yes"/>
      <point x="154" y="513"/>
      <point x="114" y="406"/>
      <point x="110" y="280" type="curve"/>
      <point x="137" y="283" type="line"/>
      <point x="137" y="365"/>
      <point x="188" y="455"/>
      <point x="264" y="455" type="curve" smooth="yes"/>
      <point x="279" y="455"/>
      <point x="291" y="453"/>
      <point x="304" y="449" type="curve"/>
    </contour>
  </outline>
</glyph>
<glyph name="u" format="1">
  <advance width="529"/>
  <unicode hex="0075"/>
  <outline>
    <contour>
      <point x="453" y="507" type="line"/>
      <point x="392" y="507" type="line"/>
      <point x="392" y="0" type="line"/>
      <point x="453" y="0" type="line"/>
    </contour>
    <contour>
      <point x="131" y="507" type="line"/>
      <point x="70" y="507" type="line"/>
      <point x="70" y="155" type="line" smooth="yes"/>
      <point x="70" y="59"/>
      <point x="132" y="-7"/>
      <point x="231" y="-7" type="curve" smooth="yes"/>
      <point x="339" y="-7"/>
      <point x="411" y="53"/>
      <point x="411" y="206" type="curve"/>
      <point x="392" y="225" type="line"/>
      <point x="392" y="123"/>
      <point x="332" y="52"/>
      <point x="242" y="52" type="curve" smooth="yes"/>
      <point x="177" y="52"/>
      <point x="131" y="92"/>
      <point x="131" y="172" type="curve" smooth="yes"/>
    </contour>
  </outline>
</glyph>
<glyph name="v" format="1">
  <advance width="497"/>
  <unicode hex="0076"/>
  <outline>
    <contour>
      <point x="30" y="507" type="line"/>
      <point x="94" y="507" type="line"/>
      <point x="165" y="294" type="line" smooth="yes"/>
      <point x="234" y="86"/>
      <point x="246" y="49"/>
      <point x="246" y="49" type="curve"/>
      <point x="246" y="49"/>
      <point x="256" y="86"/>
      <point x="329" y="294" type="curve" smooth="yes"/>
      <point x="403" y="507" type="line"/>
      <point x="467" y="507" type="line"/>
      <point x="287" y="0" type="line"/>
      <point x="205" y="0" type="line"/>
    </contour>
  </outline>
</glyph>
<glyph name="w" format="1">
  <advance width="788"/>
  <unicode hex="0077"/>
  <outline>
    <contour>
      <point x="30" y="507" type="line"/>
      <point x="97" y="507" type="line"/>
      <point x="147" y="339" type="line" smooth="yes"/>
      <point x="211" y="127"/>
      <point x="225" y="61"/>
      <point x="225" y="61" type="curve"/>
      <point x="225" y="61"/>
      <point x="243" y="126"/>
      <point x="305" y="340" type="curve" smooth="yes"/>
      <point x="353" y="507" type="line"/>
      <point x="425" y="507" type="line"/>
      <point x="475" y="340" type="line" smooth="yes"/>
      <point x="541" y="118"/>
      <point x="557" y="59"/>
      <point x="557" y="59" type="curve"/>
      <point x="557" y="59"/>
      <point x="573" y="118"/>
      <point x="642" y="340" type="curve" smooth="yes"/>
      <point x="694" y="507" type="line"/>
      <point x="758" y="507" type="line"/>
      <point x="598" y="0" type="line"/>
      <point x="516" y="0" type="line"/>
      <point x="467" y="166" type="line" smooth="yes"/>
      <point x="406" y="374"/>
      <point x="389" y="436"/>
      <point x="389" y="436" type="curve"/>
      <point x="389" y="436"/>
      <point x="372" y="373"/>
      <point x="314" y="166" type="curve" smooth="yes"/>
      <point x="267" y="0" type="line"/>
      <point x="185" y="0" type="line"/>
    </contour>
  </outline>
</glyph>
<glyph name="bar" format="1">
  <advance width="214"/>
  <unicode hex="007C"/>
  <outline>
    <contour>
      <point x="80" y="-194" type="line"/>
      <point x="134" y="-194" type="line"/>
      <point x="134" y="695" type="line"/>
      <point x="80" y="695" type="line"/>
    </contour>
  </outline>
</glyph>
<glyph name="braceright" format="1">
  <advance width="322"/>
  <unicode hex="007D"/>
  <outline>
    <contour>
      <point x="210" y="264" type="curve"/>
      <point x="124" y="250"/>
      <point x="87" y="191"/>
      <point x="87" y="123" type="curve" smooth="yes"/>
      <point x="87" y="61"/>
      <point x="110" y="15"/>
      <point x="110" y="-46" type="curve" smooth="yes"/>
      <point x="110" y="-88"/>
      <point x="91" y="-125"/>
      <point x="44" y="-125" type="curve" smooth="yes"/>
      <point x="34" y="-125"/>
      <point x="21" y="-122"/>
      <point x="10" y="-116" type="curve"/>
      <point x="10" y="-178" type="line"/>
      <point x="24" y="-183"/>
      <point x="38" y="-185"/>
      <point x="52" y="-185" type="curve" smooth="yes"/>
      <point x="116" y="-185"/>
      <point x="174" y="-134"/>
      <point x="174" y="-44" type="curve" smooth="yes"/>
      <point x="174" y="11"/>
      <point x="151" y="58"/>
      <point x="151" y="107" type="curve" smooth="yes"/>
      <point x="151" y="168"/>
      <point x="175" y="216"/>
      <point x="240" y="232" type="curve" smooth="yes"/>
      <point x="248" y="234"/>
      <point x="263" y="234"/>
      <point x="272" y="234" type="curve"/>
      <point x="272" y="295" type="line"/>
      <point x="263" y="295"/>
      <point x="251" y="295"/>
      <point x="240" y="297" type="curve" smooth="yes"/>
      <point x="179" y="308"/>
      <point x="151" y="359"/>
      <point x="151" y="420" type="curve" smooth="yes"/>
      <point x="151" y="469"/>
      <point x="174" y="516"/>
      <point x="174" y="571" type="curve" smooth="yes"/>
      <point x="174" y="661"/>
      <point x="116" y="712"/>
      <point x="52" y="712" type="curve" smooth="yes"/>
      <point x="38" y="712"/>
      <point x="24" y="710"/>
      <point x="10" y="705" type="curve"/>
      <point x="10" y="643" type="line"/>
      <point x="21" y="649"/>
      <point x="34" y="652"/>
      <point x="44" y="652" type="curve" smooth="yes"/>
      <point x="91" y="652"/>
      <point x="110" y="615"/>
      <point x="110" y="573" type="curve" smooth="yes"/>
      <point x="110" y="512"/>
      <point x="87" y="466"/>
      <point x="87" y="404" type="curve" smooth="yes"/>
      <point x="87" y="336"/>
      <point x="124" y="278"/>
    </contour>
  </outline>
</glyph>
<glyph name="currency" format="1">
  <advance width="536"/>
  <unicode hex="00A4"/>
  <outline>
    <contour>
      <point x="54" y="309" type="curve" smooth="yes"/>
      <point x="54" y="258"/>
      <point x="68" y="214"/>
      <point x="94" y="179" type="curve"/>
      <point x="36" y="121" type="line"/>
      <point x="77" y="80" type="line"/>
      <point x="136" y="139" type="line"/>
      <point x="170" y="114"/>
      <point x="214" y="100"/>
      <point x="264" y="100" type="curve" smooth="yes"/>
      <point x="314" y="100"/>
      <point x="360" y="115"/>
      <point x="396" y="142" type="curve"/>
      <point x="459" y="80" type="line"/>
      <point x="500" y="121" type="line"/>
      <point x="437" y="183" type="line"/>
      <point x="465" y="219"/>
      <point x="482" y="265"/>
      <point x="482" y="316" type="curve" smooth="yes"/>
      <point x="482" y="366"/>
      <point x="467" y="410"/>
      <point x="442" y="445" type="curve"/>
      <point x="500" y="503" type="line"/>
      <point x="459" y="544" type="line"/>
      <point x="401" y="486" type="line"/>
      <point x="366" y="511"/>
      <point x="322" y="526"/>
      <point x="272" y="526" type="curve" smooth="yes"/>
      <point x="221" y="526"/>
      <point x="175" y="510"/>
      <point x="138" y="482" type="curve"/>
      <point x="77" y="544" type="line"/>
      <point x="36" y="503" type="line"/>
      <point x="97" y="441" type="line"/>
      <point x="70" y="405"/>
      <point x="54" y="359"/>
    </contour>
    <contour>
      <point x="108" y="313" type="curve" smooth="yes"/>
      <point x="108" y="406"/>
      <point x="175" y="474"/>
      <point x="268" y="474" type="curve" smooth="yes"/>
      <point x="361" y="474"/>
      <point x="428" y="405"/>
      <point x="428" y="312" type="curve" smooth="yes"/>
      <point x="428" y="219"/>
      <point x="361" y="152"/>
      <point x="268" y="152" type="curve" smooth="yes"/>
      <point x="175" y="152"/>
      <point x="108" y="220"/>
    </contour>
  </outline>
</glyph>
<glyph name="copyright" format="1">
  <advance width="780"/>
  <unicode hex="00A9"/>
  <outline>
    <contour>
      <point x="45" y="336" type="curve" smooth="yes"/>
      <point x="45" y="148"/>
      <point x="202" y="-9"/>
      <point x="390" y="-9" type="curve" smooth="yes"/>
      <point x="578" y="-9"/>
      <point x="735" y="148"/>
      <point x="735" y="336" type="curve" smooth="yes"/>
      <point x="735" y="524"/>
      <point x="578" y="682"/>
      <point x="390" y="682" type="curve" smooth="yes"/>
      <point x="202" y="682"/>
      <point x="45" y="524"/>
    </contour>
    <contour>
      <point x="104" y="336" type="curve" smooth="yes"/>
      <point x="104" y="493"/>
      <point x="234" y="624"/>
      <point x="391" y="624" type="curve" smooth="yes"/>
      <point x="548" y="624"/>
      <point x="678" y="493"/>
      <point x="678" y="336" type="curve" smooth="yes"/>
      <point x="678" y="179"/>
      <point x="548" y="49"/>
      <point x="391" y="49" type="curve" smooth="yes"/>
      <point x="234" y="49"/>
      <point x="104" y="179"/>
    </contour>
    <contour>
      <point x="282" y="333" type="curve" smooth="yes"/>
      <point x="282" y="415"/>
      <point x="336" y="475"/>
      <point x="420" y="475" type="curve" smooth="yes"/>
      <point x="441" y="475"/>
      <point x="475" y="467"/>
      <point x="497" y="452" type="curve"/>
      <point x="497" y="509" type="line"/>
      <point x="471" y="524"/>
      <point x="437" y="529"/>
      <point x="416" y="529" type="curve" smooth="yes"/>
      <point x="291" y="529"/>
      <point x="224" y="431"/>
      <point x="224" y="334" type="curve" smooth="yes"/>
      <point x="224" y="234"/>
      <point x="290" y="140"/>
      <point x="416" y="140" type="curve" smooth="yes"/>
      <point x="443" y="140"/>
      <point x="479" y="149"/>
      <point x="497" y="162" type="curve"/>
      <point x="497" y="219" type="line"/>
      <point x="481" y="205"/>
      <point x="449" y="194"/>
      <point x="420" y="194" type="curve" smooth="yes"/>
      <point x="335" y="194"/>
      <point x="282" y="256"/>
    </contour>
  </outline>
</glyph>
<glyph name="logicalnot" format="1">
  <advance width="535"/>
  <unicode hex="00AC"/>
  <outline>
    <contour>
      <point x="500" y="166" type="line"/>
      <point x="500" y="412" type="line"/>
      <point x="20" y="412" type="line"/>
      <point x="20" y="353" type="line"/>
      <point x="439" y="353" type="line"/>
      <point x="439" y="166" type="line"/>
    </contour>
  </outline>
</glyph>
<glyph name="plusminus" format="1">
  <advance width="544"/>
  <unicode hex="00B1"/>
  <outline>
    <contour>
      <point x="239" y="155" type="line"/>
      <point x="296" y="155" type="line"/>
      <point x="296" y="565" type="line"/>
      <point x="239" y="565" type="line"/>
    </contour>
    <contour>
      <point x="60" y="332" type="line"/>
      <point x="484" y="332" type="line"/>
      <point x="484" y="388" type="line"/>
      <point x="60" y="388" type="line"/>
    </contour>
    <contour>
      <point x="60" y="31" type="line"/>
      <point x="484" y="31" type="line"/>
      <point x="484" y="87" type="line"/>
      <point x="60" y="87" type="line"/>
    </contour>
  </outline>
</glyph>
<glyph name="twosuperior" format="1">
  <advance width="365"/>
  <unicode hex="00B2"/>
  <outline>
    <contour>
      <point x="50" y="392" type="line"/>
      <point x="325" y="392" type="line"/>
      <point x="325" y="438" type="line"/>
      <point x="128" y="438" type="line"/>
      <point x="230" y="517"/>
      <point x="310" y="615"/>
      <point x="310" y="696" type="curve" smooth="yes"/>
      <point x="310" y="783"/>
      <point x="241" y="825"/>
      <point x="172" y="825" type="curve" smooth="yes"/>
      <point x="130" y="825"/>
      <point x="93" y="809"/>
      <point x="65" y="792" type="curve"/>
      <point x="65" y="733" type="line"/>
      <point x="96" y="758"/>
      <point x="135" y="777"/>
      <point x="174" y="777" type="curve" smooth="yes"/>
      <point x="218" y="777"/>
      <point x="255" y="753"/>
      <point x="255" y="694" type="curve" smooth="yes"/>
      <point x="255" y="610"/>
      <point x="151" y="510"/>
      <point x="50" y="433" type="curve"/>
    </contour>
  </outline>
</glyph>
<glyph name="threesuperior" format="1">
  <advance width="318"/>
  <unicode hex="00B3"/>
  <outline>
    <contour>
      <point x="128" y="632" type="line"/>
      <point x="174" y="632"/>
      <point x="215" y="659"/>
      <point x="215" y="708" type="curve" smooth="yes"/>
      <point x="215" y="756"/>
      <point x="184" y="777"/>
      <point x="137" y="777" type="curve" smooth="yes"/>
      <point x="109" y="777"/>
      <point x="74" y="764"/>
      <point x="46" y="746" type="curve"/>
      <point x="46" y="799" type="line"/>
      <point x="65" y="811"/>
      <point x="102" y="825"/>
      <point x="136" y="825" type="curve" smooth="yes"/>
      <point x="228" y="825"/>
      <point x="269" y="771"/>
      <point x="269" y="711" type="curve" smooth="yes"/>
      <point x="269" y="657"/>
      <point x="238" y="623"/>
      <point x="191" y="611" type="curve"/>
      <point x="239" y="607"/>
      <point x="283" y="564"/>
      <point x="283" y="507" type="curve" smooth="yes"/>
      <point x="283" y="439"/>
      <point x="236" y="388"/>
      <point x="145" y="388" type="curve" smooth="yes"/>
      <point x="111" y="388"/>
      <point x="66" y="397"/>
      <point x="35" y="412" type="curve"/>
      <point x="35" y="463" type="line"/>
      <point x="72" y="443"/>
      <point x="109" y="436"/>
      <point x="145" y="436" type="curve" smooth="yes"/>
      <point x="197" y="436"/>
      <point x="229" y="463"/>
      <point x="229" y="508" type="curve" smooth="yes"/>
      <point x="229" y="557"/>
      <point x="190" y="586"/>
      <point x="128" y="586" type="curve" smooth="yes"/>
      <point x="101" y="586" type="line"/>
      <point x="101" y="632" type="line"/>
    </contour>
  </outline>
</glyph>
<glyph name="mu.math" format="1">
  <advance width="535"/>
  <unicode hex="00B5"/>
  <outline>
    <contour>
      <point x="459" y="507" type="line"/>
      <point x="398" y="507" type="line"/>
      <point x="398" y="0" type="line"/>
      <point x="459" y="0" type="line"/>
    </contour>
    <contour>
      <point x="137" y="467" type="line"/>
      <point x="96" y="467" type="line"/>
      <point x="96" y="155" type="line" smooth="yes"/>
      <point x="96" y="59"/>
      <point x="158" y="-7"/>
      <point x="257" y="-7" type="curve" smooth="yes"/>
      <point x="359" y="-7"/>
      <point x="420" y="57"/>
      <point x="417" y="206" type="curve"/>
      <point x="398" y="225" type="line"/>
      <point x="398" y="123"/>
      <point x="348" y="52"/>
      <point x="268" y="52" type="curve" smooth="yes"/>
      <point x="203" y="52"/>
      <point x="137" y="92"/>
      <point x="137" y="172" type="curve" smooth="yes"/>
    </contour>
    <contour>
      <point x="137" y="507" type="line"/>
      <point x="76" y="507" type="line"/>
      <point x="76" y="-179" type="line"/>
      <point x="137" y="-179" type="line"/>
    </contour>
  </outline>
</glyph>
<glyph name="onesuperior" format="1">
  <advance width="242"/>
  <unicode hex="00B9"/>
  <outline>
    <contour>
      <point x="10" y="700" type="line"/>
      <point x="114" y="758" type="line"/>
      <point x="114" y="392" type="line"/>
      <point x="166" y="392" type="line"/>
      <point x="166" y="821" type="line"/>
      <point x="123" y="821" type="line"/>
      <point x="10" y="757" type="line"/>
    </contour>
  </outline>
</glyph>
<glyph name="ordmasculine" format="1">
  <advance width="358"/>
  <unicode hex="00BA"/>
  <outline>
    <contour>
      <point x="177" y="386" type="curve" smooth="yes"/>
      <point x="301" y="386"/>
      <point x="368" y="483"/>
      <point x="368" y="606" type="curve" smooth="yes"/>
      <point x="368" y="727"/>
      <point x="305" y="827"/>
      <point x="177" y="827" type="curve" smooth="yes"/>
      <point x="63" y="827"/>
      <point x="-10" y="727"/>
      <point x="-10" y="606" type="curve" smooth="yes"/>
      <point x="-10" y="483"/>
      <point x="58" y="386"/>
    </contour>
    <contour>
      <point x="177" y="779" type="curve" smooth="yes"/>
      <point x="279" y="779"/>
      <point x="314" y="695"/>
      <point x="314" y="606" type="curve" smooth="yes"/>
      <point x="314" y="514"/>
      <point x="270" y="434"/>
      <point x="177" y="434" type="curve" smooth="yes"/>
      <point x="94" y="434"/>
      <point x="43" y="514"/>
      <point x="43" y="606" type="curve" smooth="yes"/>
      <point x="43" y="695"/>
      <point x="89" y="779"/>
    </contour>
  </outline>
</glyph>
<glyph name="onequarter" format="1">
  <advance width="833"/>
  <unicode hex="00BC"/>
  <outline>
    <contour>
      <point x="663" y="429" type="line"/>
      <point x="663" y="0" type="line"/>
      <point x="713" y="0" type="line"/>
      <point x="713" y="429" type="line"/>
    </contour>
    <contour>
      <point x="465" y="144" type="line"/>
      <point x="465" y="102" type="line"/>
      <point x="778" y="102" type="line"/>
      <point x="778" y="144" type="line"/>
    </contour>
    <contour>
      <point x="638" y="429" type="line"/>
      <point x="465" y="144" type="line"/>
      <point x="518" y="144" type="line"/>
      <point x="689" y="429" type="line"/>
    </contour>
    <contour>
      <point x="80" y="590" type="line"/>
      <point x="184" y="648" type="line"/>
      <point x="184" y="282" type="line"/>
      <point x="236" y="282" type="line"/>
      <point x="236" y="711" type="line"/>
      <point x="193" y="711" type="line"/>
      <point x="80" y="647" type="line"/>
    </contour>
    <contour>
      <point x="150" y="0" type="line"/>
      <point x="211" y="0" type="line"/>
      <point x="668" y="712" type="line"/>
      <point x="606" y="712" type="line"/>
    </contour>
  </outline>
</glyph>
<glyph name="questiondown" format="1">
  <advance width="450"/>
  <unicode hex="00BF"/>
  <outline>
    <contour>
      <point x="410" y="-64" type="line"/>
      <point x="352" y="-101"/>
      <point x="300" y="-115"/>
      <point x="248" y="-115" type="curve" smooth="yes"/>
      <point x="148" y="-115"/>
      <point x="104" y="-60"/>
      <point x="104" y="9" type="curve" smooth="yes"/>
      <point x="104" y="102"/>
      <point x="186" y="143"/>
      <point x="306" y="143" type="curve"/>
      <point x="306" y="313" type="line"/>
      <point x="245" y="313" type="line"/>
      <point x="245" y="197" type="line"/>
      <point x="142" y="187"/>
      <point x="40" y="132"/>
      <point x="40" y="10" type="curve" smooth="yes"/>
      <point x="40" y="-108"/>
      <point x="123" y="-173"/>
      <point x="249" y="-173" type="curve" smooth="yes"/>
      <point x="313" y="-173"/>
      <point x="377" y="-151"/>
      <point x="410" y="-129" type="curve"/>
    </contour>
    <contour>
      <point x="327" y="467" type="curve" smooth="yes"/>
      <point x="327" y="496"/>
      <point x="306" y="517"/>
      <point x="277" y="517" type="curve" smooth="yes"/>
      <point x="248" y="517"/>
      <point x="225" y="496"/>
      <point x="225" y="467" type="curve" smooth="yes"/>
      <point x="225" y="439"/>
      <point x="248" y="416"/>
      <point x="277" y="416" type="curve" smooth="yes"/>
      <point x="306" y="416"/>
      <point x="327" y="439"/>
    </contour>
  </outline>
</glyph>
<glyph name="Eth" format="1">
  <advance width="725"/>
  <unicode hex="00D0"/>
  <outline>
    <contour>
      <point x="150" y="0" type="line"/>
      <point x="212" y="0" type="line"/>
      <point x="212" y="674" type="line"/>
      <point x="150" y="674" type="line"/>
    </contour>
    <contour>
      <point x="347" y="0" type="line"/>
      <point x="573" y="0"/>
      <point x="680" y="166"/>
      <point x="680" y="341" type="curve" smooth="yes"/>
      <point x="680" y="541"/>
      <point x="538" y="674"/>
      <point x="342" y="674" type="curve" smooth="yes"/>
      <point x="150" y="674" type="line"/>
      <point x="150" y="617" type="line"/>
      <point x="342" y="617" type="line" smooth="yes"/>
      <point x="506" y="617"/>
      <point x="615" y="491"/>
      <point x="615" y="341" type="curve" smooth="yes"/>
      <point x="615" y="198"/>
      <point x="537" y="57"/>
      <point x="347" y="57" type="curve" smooth="yes"/>
      <point x="150" y="57" type="line"/>
      <point x="150" y="0" type="line"/>
    </contour>
    <contour>
      <point x="396" y="313" type="line"/>
      <point x="396" y="366" type="line"/>
      <point x="60" y="366" type="line"/>
      <point x="60" y="313" type="line"/>
    </contour>
  </outline>
</glyph>
<glyph name="Thorn" format="1">
  <advance width="529"/>
  <unicode hex="00DE"/>
  <outline>
    <contour>
      <point x="243" y="128" type="line"/>
      <point x="407" y="128"/>
      <point x="485" y="223"/>
      <point x="485" y="330" type="curve" smooth="yes"/>
      <point x="485" y="456"/>
      <point x="403" y="546"/>
      <point x="232" y="546" type="curve" smooth="yes"/>
      <point x="80" y="546" type="line"/>
      <point x="80" y="491" type="line"/>
      <point x="239" y="491" type="line" smooth="yes"/>
      <point x="366" y="491"/>
      <point x="422" y="427"/>
      <point x="422" y="330" type="curve" smooth="yes"/>
      <point x="422" y="249"/>
      <point x="369" y="183"/>
      <point x="250" y="183" type="curve" smooth="yes"/>
      <point x="80" y="183" type="line"/>
      <point x="80" y="128" type="line"/>
    </contour>
    <contour>
      <point x="80" y="0" type="line"/>
      <point x="142" y="0" type="line"/>
      <point x="142" y="674" type="line"/>
      <point x="80" y="674" type="line"/>
    </contour>
  </outline>
</glyph>
<glyph name="iacute" format="1">
  <advance width="221"/>
  <unicode hex="00ED"/>
  <outline>
    <contour>
      <point x="80" y="0" type="line"/>
      <point x="141" y="0" type="line"/>
      <point x="141" y="507" type="line"/>
      <point x="80" y="507" type="line"/>
    </contour>
    <component base="acute" xOffset="-21" yOffset="-86"/>
  </outline>
</glyph>
<glyph name="Aogonek" format="1">
  <advance width="637"/>
  <unicode hex="0104"/>
  <outline>
    <contour>
      <point x="38" y="0" type="line"/>
      <point x="105" y="0" type="line"/>
      <point x="204" y="284" type="line" smooth="yes"/>
      <point x="308" y="583"/>
      <point x="321" y="622"/>
      <point x="321" y="622" type="curve"/>
      <point x="321" y="622"/>
      <point x="333" y="583"/>
      <point x="435" y="285" type="curve" smooth="yes"/>
      <point x="532" y="0" type="line"/>
      <point x="599" y="0" type="line"/>
      <point x="366" y="674" type="line"/>
      <point x="276" y="674" type="line"/>
    </contour>
    <contour>
      <point x="135" y="187" type="line"/>
      <point x="496" y="187" type="line"/>
      <point x="496" y="242" type="line"/>
      <point x="135" y="242" type="line"/>
    </contour>
    <contour>
      <point x="622" y="-219" type="curve"/>
      <point x="622" y="-169" type="line"/>
      <point x="607" y="-180"/>
      <point x="580" y="-189"/>
      <point x="558" y="-189" type="curve" smooth="yes"/>
      <point x="516" y="-189"/>
      <point x="488" y="-167"/>
      <point x="488" y="-124" type="curve" smooth="yes"/>
      <point x="488" y="-70"/>
      <point x="537" y="-28"/>
      <point x="599" y="0" type="curve"/>
      <point x="573" y="31" type="line"/>
      <point x="501" y="7"/>
      <point x="432" y="-54"/>
      <point x="432" y="-129" type="curve" smooth="yes"/>
      <point x="432" y="-190"/>
      <point x="475" y="-237"/>
      <point x="551" y="-237" type="curve" smooth="yes"/>
      <point x="575" y="-237"/>
      <point x="602" y="-232"/>
    </contour>
  </outline>
</glyph>
<glyph name="dcaron" format="1">
  <advance width="637"/>
  <unicode hex="010F"/>
  <outline>
    <contour>
      <point x="479" y="707" type="line"/>
      <point x="418" y="707" type="line"/>
      <point x="418" y="0" type="line"/>
      <point x="479" y="0" type="line"/>
    </contour>
    <contour>
      <point x="418" y="256" type="curve" smooth="yes"/>
      <point x="418" y="94"/>
      <point x="332" y="50"/>
      <point x="259" y="50" type="curve" smooth="yes"/>
      <point x="173" y="50"/>
      <point x="109" y="130"/>
      <point x="109" y="247" type="curve" smooth="yes"/>
      <point x="109" y="388"/>
      <point x="179" y="457"/>
      <point x="265" y="457" type="curve" smooth="yes"/>
      <point x="323" y="457"/>
      <point x="418" y="414"/>
    </contour>
    <contour>
      <point x="464" y="256" type="curve" smooth="yes"/>
      <point x="464" y="397"/>
      <point x="394" y="515"/>
      <point x="263" y="515" type="curve" smooth="yes"/>
      <point x="135" y="515"/>
      <point x="45" y="405"/>
      <point x="45" y="248" type="curve" smooth="yes"/>
      <point x="45" y="113"/>
      <point x="119" y="-8"/>
      <point x="261" y="-8" type="curve" smooth="yes"/>
      <point x="420" y="-8"/>
      <point x="464" y="141"/>
    </contour>
    <contour>
      <point x="539" y="520" type="line"/>
      <point x="593" y="520" type="line"/>
      <point x="703" y="707" type="line"/>
      <point x="627" y="707" type="line"/>
    </contour>
  </outline>
</glyph>
<glyph name="gcommaaccent" format="1">
  <advance width="539"/>
  <unicode hex="0123"/>
  <outline>
    <contour>
      <point x="99" y="-162" type="line"/>
      <point x="141" y="-182"/>
      <point x="198" y="-191"/>
      <point x="247" y="-191" type="curve" smooth="yes"/>
      <point x="370" y="-191"/>
      <point x="469" y="-122"/>
      <point x="469" y="39" type="curve" smooth="yes"/>
      <point x="469" y="507" type="line"/>
      <point x="408" y="507" type="line"/>
      <point x="408" y="39" type="line" smooth="yes"/>
      <point x="408" y="-85"/>
      <point x="337" y="-133"/>
      <point x="242" y="-133" type="curve" smooth="yes"/>
      <point x="196" y="-133"/>
      <point x="141" y="-123"/>
      <point x="99" y="-102" type="curve"/>
    </contour>
    <contour>
      <point x="250" y="515" type="curve" smooth="yes"/>
      <point x="125" y="515"/>
      <point x="45" y="403"/>
      <point x="45" y="253" type="curve" smooth="yes"/>
      <point x="45" y="98"/>
      <point x="145" y="12"/>
      <point x="256" y="12" type="curve" smooth="yes"/>
      <point x="377" y="12"/>
      <point x="443" y="124"/>
      <point x="443" y="251" type="curve" smooth="yes"/>
      <point x="443" y="253"/>
      <point x="443" y="254"/>
      <point x="443" y="256" type="curve" smooth="yes"/>
      <point x="442" y="376"/>
      <point x="397" y="515"/>
    </contour>
    <contour>
      <point x="257" y="70" type="curve" smooth="yes"/>
      <point x="194" y="70"/>
      <point x="109" y="123"/>
      <point x="109" y="256" type="curve" smooth="yes"/>
      <point x="109" y="373"/>
      <point x="166" y="457"/>
      <point x="262" y="457" type="curve" smooth="yes"/>
      <point x="325" y="457"/>
      <point x="408" y="404"/>
      <point x="408" y="251" type="curve" smooth="yes"/>
      <point x="408" y="115"/>
      <point x="319" y="70"/>
    </contour>
    <contour>
      <point x="429" y="748" type="line"/>
      <point x="375" y="748" type="line"/>
      <point x="265" y="561" type="line"/>
      <point x="341" y="561" type="line"/>
    </contour>
  </outline>
</glyph>
<glyph name="dotlessi" format="1">
  <advance width="221"/>
  <unicode hex="0131"/>
  <outline>
    <contour>
      <point x="80" y="0" type="line"/>
      <point x="141" y="0" type="line"/>
      <point x="141" y="507" type="line"/>
      <point x="80" y="507" type="line"/>
    </contour>
  </outline>
</glyph>
<glyph name="Lcommaaccent" format="1">
  <advance width="474"/>
  <unicode hex="013B"/>
  <outline>
    <contour>
      <point x="80" y="674" type="line"/>
      <point x="80" y="0" type="line"/>
      <point x="142" y="0" type="line"/>
      <point x="142" y="674" type="line"/>
    </contour>
    <contour>
      <point x="88" y="57" type="line"/>
      <point x="88" y="0" type="line"/>
      <point x="439" y="0" type="line"/>
      <point x="439" y="57" type="line"/>
    </contour>
    <contour>
      <point x="139" y="-238" type="line"/>
      <point x="193" y="-238" type="line"/>
      <point x="303" y="-51" type="line"/>
      <point x="227" y="-51" type="line"/>
    </contour>
  </outline>
</glyph>
<glyph name="lcaron" format="1">
  <advance width="254"/>
  <unicode hex="013E"/>
  <outline>
    <contour>
      <point x="80" y="0" type="line"/>
      <point x="141" y="0" type="line"/>
      <point x="141" y="707" type="line"/>
      <point x="80" y="707" type="line"/>
    </contour>
    <contour>
      <point x="211" y="520" type="line"/>
      <point x="265" y="520" type="line"/>
      <point x="375" y="707" type="line"/>
      <point x="299" y="707" type="line"/>
    </contour>
  </outline>
</glyph>
<glyph name="lslash" format="1">
  <advance width="278"/>
  <unicode hex="0142"/>
  <outline>
    <contour>
      <point x="243" y="417" type="line"/>
      <point x="243" y="483" type="line"/>
      <point x="35" y="334" type="line"/>
      <point x="35" y="268" type="line"/>
    </contour>
    <contour>
      <point x="101" y="0" type="line"/>
      <point x="162" y="0" type="line"/>
      <point x="162" y="707" type="line"/>
      <point x="101" y="707" type="line"/>
    </contour>
  </outline>
</glyph>
<glyph name="Ncommaaccent" format="1">
  <advance width="667"/>
  <unicode hex="0145"/>
  <outline>
    <contour>
      <point x="220" y="-238" type="line"/>
      <point x="274" y="-238" type="line"/>
      <point x="384" y="-51" type="line"/>
      <point x="308" y="-51" type="line"/>
    </contour>
    <contour>
      <point x="80" y="0" type="line"/>
      <point x="142" y="0" type="line"/>
      <point x="142" y="285" type="line" smooth="yes"/>
      <point x="142" y="493"/>
      <point x="140" y="601"/>
      <point x="140" y="601" type="curve"/>
      <point x="140" y="601"/>
      <point x="205" y="492"/>
      <point x="331" y="283" type="curve" smooth="yes"/>
      <point x="502" y="0" type="line"/>
      <point x="587" y="0" type="line"/>
      <point x="587" y="674" type="line"/>
      <point x="525" y="674" type="line"/>
      <point x="525" y="388" type="line" smooth="yes"/>
      <point x="525" y="177"/>
      <point x="527" y="73"/>
      <point x="527" y="73" type="curve"/>
      <point x="527" y="73"/>
      <point x="465" y="177"/>
      <point x="337" y="389" type="curve" smooth="yes"/>
      <point x="165" y="674" type="line"/>
      <point x="80" y="674" type="line"/>
    </contour>
  </outline>
</glyph>
<glyph name="OE" format="1">
  <advance width="979"/>
  <unicode hex="0152"/>
  <outline>
    <contour>
      <point x="50" y="340" type="curve" smooth="yes"/>
      <point x="50" y="128"/>
      <point x="164" y="-8"/>
      <point x="342" y="-8" type="curve" smooth="yes"/>
      <point x="524" y="-8"/>
      <point x="631" y="128"/>
      <point x="631" y="340" type="curve" smooth="yes"/>
      <point x="631" y="552"/>
      <point x="528" y="688"/>
      <point x="340" y="688" type="curve" smooth="yes"/>
      <point x="159" y="688"/>
      <point x="50" y="552"/>
    </contour>
    <contour>
      <point x="114" y="340" type="curve" smooth="yes"/>
      <point x="114" y="519"/>
      <point x="195" y="628"/>
      <point x="340" y="628" type="curve" smooth="yes"/>
      <point x="490" y="628"/>
      <point x="569" y="519"/>
      <point x="569" y="340" type="curve" smooth="yes"/>
      <point x="569" y="161"/>
      <point x="490" y="52"/>
      <point x="342" y="52" type="curve" smooth="yes"/>
      <point x="202" y="52"/>
      <point x="114" y="161"/>
    </contour>
    <contour>
      <point x="577" y="0" type="line"/>
      <point x="934" y="0" type="line"/>
      <point x="934" y="57" type="line"/>
      <point x="577" y="57" type="line"/>
    </contour>
    <contour>
      <point x="569" y="0" type="line"/>
      <point x="631" y="0" type="line"/>
      <point x="631" y="674" type="line"/>
      <point x="569" y="674" type="line"/>
    </contour>
    <contour>
      <point x="577" y="308" type="line"/>
      <point x="893" y="308" type="line"/>
      <point x="893" y="365" type="line"/>
      <point x="577" y="365" type="line"/>
    </contour>
    <contour>
      <point x="577" y="617" type="line"/>
      <point x="928" y="617" type="line"/>
      <point x="928" y="674" type="line"/>
      <point x="577" y="674" type="line"/>
    </contour>
  </outline>
</glyph>
<glyph name="oe" format="1">
  <advance width="896"/>
  <unicode hex="0153"/>
  <outline>
    <contour>
      <point x="268" y="-9" type="curve" smooth="yes"/>
      <point x="417" y="-9"/>
      <point x="491" y="106"/>
      <point x="491" y="251" type="curve" smooth="yes"/>
      <point x="491" y="396"/>
      <point x="422" y="514"/>
      <point x="268" y="514" type="curve" smooth="yes"/>
      <point x="128" y="514"/>
      <point x="45" y="396"/>
      <point x="45" y="251" type="curve" smooth="yes"/>
      <point x="45" y="106"/>
      <point x="122" y="-9"/>
    </contour>
    <contour>
      <point x="268" y="456" type="curve" smooth="yes"/>
      <point x="393" y="456"/>
      <point x="427" y="358"/>
      <point x="427" y="251" type="curve" smooth="yes"/>
      <point x="427" y="144"/>
      <point x="384" y="49"/>
      <point x="268" y="49" type="curve" smooth="yes"/>
      <point x="164" y="49"/>
      <point x="109" y="144"/>
      <point x="109" y="251" type="curve" smooth="yes"/>
      <point x="109" y="358"/>
      <point x="158" y="456"/>
    </contour>
    <contour>
      <point x="467" y="226" type="line"/>
      <point x="848" y="226" type="line"/>
      <point x="851" y="241"/>
      <point x="852" y="265"/>
      <point x="852" y="275" type="curve" smooth="yes"/>
      <point x="852" y="426"/>
      <point x="784" y="513"/>
      <point x="653" y="513" type="curve" smooth="yes"/>
      <point x="524" y="513"/>
      <point x="427" y="420"/>
      <point x="427" y="251" type="curve" smooth="yes"/>
      <point x="427" y="91"/>
      <point x="536" y="-5"/>
      <point x="678" y="-5" type="curve" smooth="yes"/>
      <point x="721" y="-5"/>
      <point x="777" y="6"/>
      <point x="815" y="25" type="curve"/>
      <point x="815" y="87" type="line"/>
      <point x="779" y="63"/>
      <point x="722" y="53"/>
      <point x="681" y="53" type="curve" smooth="yes"/>
      <point x="574" y="53"/>
      <point x="491" y="120"/>
      <point x="491" y="251" type="curve" smooth="yes"/>
      <point x="491" y="394"/>
      <point x="567" y="456"/>
      <point x="651" y="456" type="curve" smooth="yes"/>
      <point x="728" y="456"/>
      <point x="789" y="407"/>
      <point x="789" y="305" type="curve" smooth="yes"/>
      <point x="789" y="282" type="line"/>
      <point x="467" y="282" type="line"/>
    </contour>
  </outline>
</glyph>
<glyph name="Tcedilla" format="1">
  <advance width="465"/>
  <unicode hex="0162"/>
  <outline>
    <contour>
      <point x="100" y="-238" type="line"/>
      <point x="154" y="-238" type="line"/>
      <point x="264" y="-51" type="line"/>
      <point x="188" y="-51" type="line"/>
    </contour>
    <contour>
      <point x="201" y="0" type="line"/>
      <point x="263" y="0" type="line"/>
      <point x="263" y="674" type="line"/>
      <point x="201" y="674" type="line"/>
    </contour>
    <contour>
      <point x="15" y="617" type="line"/>
      <point x="450" y="617" type="line"/>
      <point x="450" y="674" type="line"/>
      <point x="15" y="674" type="line"/>
    </contour>
  </outline>
</glyph>
<glyph name="tcaron" format="1">
  <advance width="364"/>
  <unicode hex="0165"/>
  <outline>
    <contour>
      <point x="108" y="143" type="line"/>
      <point x="108" y="50"/>
      <point x="149" y="-5"/>
      <point x="252" y="-5" type="curve" smooth="yes"/>
      <point x="271" y="-5"/>
      <point x="302" y="3"/>
      <point x="319" y="14" type="curve"/>
      <point x="319" y="76" type="line"/>
      <point x="303" y="63"/>
      <point x="276" y="53"/>
      <point x="251" y="53" type="curve" smooth="yes"/>
      <point x="194" y="53"/>
      <point x="170" y="84"/>
      <point x="170" y="140" type="curve" smooth="yes"/>
      <point x="170" y="634" type="line"/>
      <point x="108" y="634" type="line"/>
    </contour>
    <contour>
      <point x="25" y="455" type="line"/>
      <point x="315" y="455" type="line"/>
      <point x="315" y="507" type="line"/>
      <point x="25" y="507" type="line"/>
    </contour>
    <contour>
      <point x="231" y="562" type="line"/>
      <point x="285" y="562" type="line"/>
      <point x="395" y="749" type="line"/>
      <point x="319" y="749" type="line"/>
    </contour>
  </outline>
</glyph>
<glyph name="Scommaaccent" format="1">
  <advance width="527"/>
  <unicode hex="0218"/>
  <outline>
    <contour>
      <point x="423" y="650" type="line"/>
      <point x="384" y="671"/>
      <point x="330" y="680"/>
      <point x="283" y="680" type="curve" smooth="yes"/>
      <point x="173" y="680"/>
      <point x="73" y="619"/>
      <point x="73" y="500" type="curve" smooth="yes"/>
      <point x="73" y="374"/>
      <point x="188" y="339"/>
      <point x="282" y="297" type="curve" smooth="yes"/>
      <point x="345" y="269"/>
      <point x="399" y="238"/>
      <point x="399" y="173" type="curve" smooth="yes"/>
      <point x="399" y="94"/>
      <point x="342" y="53"/>
      <point x="249" y="53" type="curve" smooth="yes"/>
      <point x="182" y="53"/>
      <point x="114" y="76"/>
      <point x="75" y="106" type="curve"/>
      <point x="75" y="37" type="line"/>
      <point x="123" y="8"/>
      <point x="189" y="-7"/>
      <point x="252" y="-7" type="curve" smooth="yes"/>
      <point x="368" y="-7"/>
      <point x="462" y="52"/>
      <point x="462" y="174" type="curve" smooth="yes"/>
      <point x="462" y="288"/>
      <point x="369" y="328"/>
      <point x="283" y="365" type="curve" smooth="yes"/>
      <point x="207" y="398"/>
      <point x="137" y="428"/>
      <point x="137" y="504" type="curve" smooth="yes"/>
      <point x="137" y="573"/>
      <point x="194" y="619"/>
      <point x="284" y="619" type="curve" smooth="yes"/>
      <point x="334" y="619"/>
      <point x="392" y="602"/>
      <point x="423" y="581" type="curve"/>
    </contour>
    <contour>
      <point x="140" y="-238" type="line"/>
      <point x="194" y="-238" type="line"/>
      <point x="304" y="-51" type="line"/>
      <point x="228" y="-51" type="line"/>
    </contour>
  </outline>
</glyph>
<glyph name="scommaaccent" format="1">
  <advance width="406"/>
  <unicode hex="0219"/>
  <outline>
    <contour>
      <point x="89" y="-238" type="line"/>
      <point x="143" y="-238" type="line"/>
      <point x="253" y="-51" type="line"/>
      <point x="177" y="-51" type="line"/>
    </contour>
    <contour>
      <point x="341" y="489" type="line"/>
      <point x="320" y="500"/>
      <point x="275" y="512"/>
      <point x="215" y="512" type="curve" smooth="yes"/>
      <point x="127" y="512"/>
      <point x="57" y="462"/>
      <point x="57" y="378" type="curve" smooth="yes"/>
      <point x="57" y="295"/>
      <point x="126" y="259"/>
      <point x="190" y="234" type="curve" smooth="yes"/>
      <point x="264" y="205"/>
      <point x="308" y="182"/>
      <point x="308" y="125" type="curve" smooth="yes"/>
      <point x="308" y="82"/>
      <point x="275" y="49"/>
      <point x="204" y="49" type="curve" smooth="yes"/>
      <point x="157" y="49"/>
      <point x="104" y="62"/>
      <point x="60" y="87" type="curve"/>
      <point x="60" y="24" type="line"/>
      <point x="90" y="8"/>
      <point x="147" y="-6"/>
      <point x="208" y="-6" type="curve" smooth="yes"/>
      <point x="310" y="-6"/>
      <point x="371" y="47"/>
      <point x="371" y="130" type="curve" smooth="yes"/>
      <point x="371" y="214"/>
      <point x="302" y="251"/>
      <point x="226" y="282" type="curve" smooth="yes"/>
      <point x="170" y="305"/>
      <point x="119" y="325"/>
      <point x="119" y="381" type="curve" smooth="yes"/>
      <point x="119" y="424"/>
      <point x="155" y="455"/>
      <point x="214" y="455" type="curve" smooth="yes"/>
      <point x="264" y="455"/>
      <point x="313" y="444"/>
      <point x="341" y="428" type="curve"/>
    </contour>
  </outline>
</glyph>
<glyph name="tcommaaccent" format="1">
  <advance width="364"/>
  <unicode hex="021B"/>
  <outline>
    <contour>
      <point x="108" y="143" type="line"/>
      <point x="108" y="50"/>
      <point x="149" y="-5"/>
      <point x="252" y="-5" type="curve" smooth="yes"/>
      <point x="271" y="-5"/>
      <point x="302" y="3"/>
      <point x="319" y="14" type="curve"/>
      <point x="319" y="76" type="line"/>
      <point x="303" y="63"/>
      <point x="276" y="53"/>
      <point x="251" y="53" type="curve" smooth="yes"/>
      <point x="194" y="53"/>
      <point x="170" y="84"/>
      <point x="170" y="140" type="curve" smooth="yes"/>
      <point x="170" y="634" type="line"/>
      <point x="108" y="634" type="line"/>
    </contour>
    <contour>
      <point x="25" y="455" type="line"/>
      <point x="315" y="455" type="line"/>
      <point x="315" y="507" type="line"/>
      <point x="25" y="507" type="line"/>
    </contour>
    <contour>
      <point x="113" y="-238" type="line"/>
      <point x="167" y="-238" type="line"/>
      <point x="277" y="-51" type="line"/>
      <point x="201" y="-51" type="line"/>
    </contour>
  </outline>
</glyph>
<glyph name="dotaccent" format="1">
  <advance width="400"/>
  <unicode hex="02D9"/>
  <outline>
    <contour>
      <point x="157" y="727" type="curve" smooth="yes"/>
      <point x="157" y="703"/>
      <point x="176" y="684"/>
      <point x="200" y="684" type="curve" smooth="yes"/>
      <point x="225" y="684"/>
      <point x="243" y="703"/>
      <point x="243" y="727" type="curve" smooth="yes"/>
      <point x="243" y="752"/>
      <point x="225" y="770"/>
      <point x="200" y="770" type="curve" smooth="yes"/>
      <point x="176" y="770"/>
      <point x="157" y="752"/>
    </contour>
  </outline>
</glyph>
<glyph name="ring" format="1">
  <advance width="400"/>
  <unicode hex="02DA"/>
  <outline>
    <contour>
      <point x="101" y="723" type="curve" smooth="yes"/>
      <point x="101" y="669"/>
      <point x="145" y="625"/>
      <point x="199" y="625" type="curve" smooth="yes"/>
      <point x="254" y="625"/>
      <point x="298" y="669"/>
      <point x="298" y="723" type="curve" smooth="yes"/>
      <point x="298" y="778"/>
      <point x="254" y="822"/>
      <point x="199" y="822" type="curve" smooth="yes"/>
      <point x="145" y="822"/>
      <point x="101" y="778"/>
    </contour>
    <contour>
      <point x="146" y="723" type="curve" smooth="yes"/>
      <point x="146" y="753"/>
      <point x="170" y="777"/>
      <point x="199" y="777" type="curve" smooth="yes"/>
      <point x="229" y="777"/>
      <point x="253" y="753"/>
      <point x="253" y="723" type="curve" smooth="yes"/>
      <point x="253" y="694"/>
      <point x="229" y="670"/>
      <point x="199" y="670" type="curve" smooth="yes"/>
      <point x="170" y="670"/>
      <point x="146" y="694"/>
    </contour>
  </outline>
</glyph>
<glyph name="ogonek" format="1">
  <advance width="400"/>
  <unicode hex="02DB"/>
  <outline>
    <contour>
      <point x="295" y="-209" type="curve"/>
      <point x="295" y="-159" type="line"/>
      <point x="280" y="-170"/>
      <point x="253" y="-179"/>
      <point x="231" y="-179" type="curve" smooth="yes"/>
      <point x="189" y="-179"/>
      <point x="161" y="-157"/>
      <point x="161" y="-114" type="curve" smooth="yes"/>
      <point x="161" y="-60"/>
      <point x="210" y="-18"/>
      <point x="272" y="10" type="curve"/>
      <point x="246" y="41" type="line"/>
      <point x="174" y="17"/>
      <point x="105" y="-44"/>
      <point x="105" y="-119" type="curve" smooth="yes"/>
      <point x="105" y="-180"/>
      <point x="148" y="-227"/>
      <point x="224" y="-227" type="curve" smooth="yes"/>
      <point x="248" y="-227"/>
      <point x="275" y="-222"/>
    </contour>
  </outline>
</glyph>
<glyph name="tilde" format="1">
  <advance width="400"/>
  <unicode hex="02DC"/>
  <outline>
    <contour>
      <point x="330" y="760" type="line"/>
      <point x="320" y="739"/>
      <point x="308" y="717"/>
      <point x="280" y="717" type="curve" smooth="yes"/>
      <point x="241" y="717"/>
      <point x="200" y="763"/>
      <point x="147" y="763" type="curve" smooth="yes"/>
      <point x="104" y="763"/>
      <point x="67" y="732"/>
      <point x="50" y="695" type="curve"/>
      <point x="86" y="665" type="line"/>
      <point x="101" y="694"/>
      <point x="121" y="714"/>
      <point x="153" y="714" type="curve" smooth="yes"/>
      <point x="188" y="714"/>
      <point x="236" y="668"/>
      <point x="283" y="668" type="curve" smooth="yes"/>
      <point x="318" y="668"/>
      <point x="352" y="689"/>
      <point x="372" y="732" type="curve"/>
    </contour>
  </outline>
</glyph>
<glyph name="pi" format="1">
  <advance width="576"/>
  <unicode hex="03C0"/>
  <outline>
    <contour>
      <point x="395" y="0" type="line"/>
      <point x="456" y="0" type="line"/>
      <point x="456" y="467" type="line"/>
      <point x="395" y="467" type="line"/>
    </contour>
    <contour>
      <point x="125" y="151" type="line"/>
      <point x="125" y="74"/>
      <point x="102" y="56"/>
      <point x="41" y="56" type="curve"/>
      <point x="41" y="0" type="line"/>
      <point x="123" y="0"/>
      <point x="186" y="32"/>
      <point x="186" y="152" type="curve" smooth="yes"/>
      <point x="186" y="467" type="line"/>
      <point x="125" y="467" type="line"/>
    </contour>
    <contour>
      <point x="25" y="455" type="line"/>
      <point x="556" y="455" type="line"/>
      <point x="556" y="507" type="line"/>
      <point x="25" y="507" type="line"/>
    </contour>
  </outline>
</glyph>
<glyph name="dvCandrabindu" format="1">
  <advance width="0"/>
  <unicode hex="0901"/>
  <outline>
    <contour>
      <point x="-100" y="634" type="move" name="_abvm.candra"/>
    </contour>
    <contour>
      <point x="-135" y="741" type="curve" smooth="yes"/>
      <point x="-49" y="741"/>
      <point x="31" y="788"/>
      <point x="31" y="889" type="curve"/>
      <point x="-31" y="889" type="line"/>
      <point x="-31" y="836"/>
      <point x="-67" y="793"/>
      <point x="-135" y="793" type="curve" smooth="yes"/>
      <point x="-202" y="793"/>
      <point x="-238" y="836"/>
      <point x="-238" y="889" type="curve"/>
      <point x="-300" y="889" type="line"/>
      <point x="-300" y="786"/>
      <point x="-220" y="741"/>
    </contour>
    <contour>
      <point x="-180" y="944" type="curve" smooth="yes"/>
      <point x="-180" y="917"/>
      <point x="-161" y="898"/>
      <point x="-134" y="898" type="curve" smooth="yes"/>
      <point x="-107" y="898"/>
      <point x="-86" y="917"/>
      <point x="-86" y="944" type="curve" smooth="yes"/>
      <point x="-86" y="970"/>
      <point x="-107" y="991"/>
      <point x="-134" y="991" type="curve" smooth="yes"/>
      <point x="-161" y="991"/>
      <point x="-180" y="970"/>
    </contour>
  </outline>
</glyph>
<glyph name="dvVisarga" format="1">
  <advance width="302"/>
  <unicode hex="0903"/>
  <outline>
    <contour>
      <point x="52" y="484" type="curve" smooth="yes"/>
      <point x="52" y="457"/>
      <point x="71" y="438"/>
      <point x="98" y="438" type="curve" smooth="yes"/>
      <point x="125" y="438"/>
      <point x="146" y="457"/>
      <point x="146" y="484" type="curve" smooth="yes"/>
      <point x="146" y="510"/>
      <point x="125" y="531"/>
      <point x="98" y="531" type="curve" smooth="yes"/>
      <point x="71" y="531"/>
      <point x="52" y="510"/>
    </contour>
    <contour>
      <point x="52" y="157" type="curve" smooth="yes"/>
      <point x="52" y="130"/>
      <point x="71" y="111"/>
      <point x="98" y="111" type="curve" smooth="yes"/>
      <point x="125" y="111"/>
      <point x="146" y="130"/>
      <point x="146" y="157" type="curve" smooth="yes"/>
      <point x="146" y="183"/>
      <point x="125" y="204"/>
      <point x="98" y="204" type="curve" smooth="yes"/>
      <point x="71" y="204"/>
      <point x="52" y="183"/>
    </contour>
  </outline>
</glyph>
<glyph name="dvU" format="1">
  <advance width="419"/>
  <unicode hex="0909"/>
  <outline>
    <contour>
      <point x="245" y="634" type="move" name="abvm.bindu"/>
    </contour>
    <contour>
      <point x="245" y="634" type="move" name="abvm.candra"/>
    </contour>
    <contour>
      <point x="439" y="579" type="line"/>
      <point x="439" y="634" type="line"/>
      <point x="-20" y="634" type="line"/>
      <point x="-20" y="579" type="line"/>
    </contour>
    <contour>
      <point x="229" y="587" type="line"/>
      <point x="259" y="570"/>
      <point x="284" y="524"/>
      <point x="284" y="481" type="curve" smooth="yes"/>
      <point x="284" y="418"/>
      <point x="253" y="372"/>
      <point x="161" y="372" type="curve" smooth="yes"/>
      <point x="111" y="372" type="line"/>
      <point x="111" y="317" type="line"/>
      <point x="158" y="317" type="line" smooth="yes"/>
      <point x="245" y="317"/>
      <point x="317" y="276"/>
      <point x="317" y="198" type="curve" smooth="yes"/>
      <point x="317" y="112"/>
      <point x="247" y="75"/>
      <point x="160" y="75" type="curve" smooth="yes"/>
      <point x="102" y="75"/>
      <point x="61" y="90"/>
      <point x="30" y="105" type="curve"/>
      <point x="30" y="48" type="line"/>
      <point x="69" y="34"/>
      <point x="111" y="22"/>
      <point x="166" y="22" type="curve" smooth="yes"/>
      <point x="307" y="22"/>
      <point x="379" y="97"/>
      <point x="379" y="195" type="curve" smooth="yes"/>
      <point x="379" y="290"/>
      <point x="304" y="340"/>
      <point x="249" y="345" type="curve"/>
      <point x="305" y="364"/>
      <point x="346" y="408"/>
      <point x="346" y="482" type="curve" smooth="yes"/>
      <point x="346" y="525"/>
      <point x="326" y="567"/>
      <point x="299" y="587" type="curve"/>
    </contour>
  </outline>
</glyph>
<glyph name="dvvR" format="1">
  <advance width="792"/>
  <unicode hex="090B"/>
  <outline>
    <contour>
      <point x="421" y="634" type="move" name="abvm.bindu"/>
    </contour>
    <contour>
      <point x="421" y="634" type="move" name="abvm.candra"/>
    </contour>
    <contour>
      <point x="812" y="579" type="line"/>
      <point x="812" y="634" type="line"/>
      <point x="-20" y="634" type="line"/>
      <point x="-20" y="579" type="line"/>
    </contour>
    <contour>
      <point x="421" y="0" type="line"/>
      <point x="421" y="579" type="line"/>
      <point x="359" y="579" type="line"/>
      <point x="359" y="0" type="line"/>
    </contour>
    <contour>
      <point x="631" y="480" type="line"/>
      <point x="576" y="480" type="line"/>
      <point x="576" y="386" type="line" smooth="yes"/>
      <point x="576" y="327"/>
      <point x="600" y="278"/>
      <point x="672" y="278" type="curve"/>
      <point x="725" y="303" type="line"/>
      <point x="659" y="303"/>
      <point x="631" y="329"/>
      <point x="631" y="387" type="curve" smooth="yes"/>
    </contour>
    <contour>
      <point x="772" y="116" type="line"/>
      <point x="752" y="103"/>
      <point x="722" y="94"/>
      <point x="688" y="94" type="curve" smooth="yes"/>
      <point x="632" y="94"/>
      <point x="593" y="118"/>
      <point x="593" y="166" type="curve" smooth="yes"/>
      <point x="593" y="217"/>
      <point x="625" y="250"/>
      <point x="686" y="250" type="curve" smooth="yes"/>
      <point x="727" y="250" type="line"/>
      <point x="727" y="303" type="line"/>
      <point x="684" y="303" type="line"/>
      <point x="676" y="296" type="line"/>
      <point x="582" y="296"/>
      <point x="531" y="233"/>
      <point x="531" y="167" type="curve" smooth="yes"/>
      <point x="531" y="83"/>
      <point x="614" y="42"/>
      <point x="682" y="42" type="curve" smooth="yes"/>
      <point x="714" y="42"/>
      <point x="749" y="49"/>
      <point x="772" y="63" type="curve"/>
    </contour>
    <contour>
      <point x="415" y="269" type="line"/>
      <point x="613" y="385" type="line"/>
      <point x="579" y="427" type="line"/>
      <point x="415" y="332" type="line"/>
    </contour>
    <contour>
      <point x="133" y="393" type="curve"/>
      <point x="231" y="392"/>
      <point x="266" y="320"/>
      <point x="289" y="238" type="curve"/>
      <point x="340" y="269" type="line"/>
      <point x="307" y="397"/>
      <point x="227" y="453"/>
      <point x="134" y="453" type="curve" smooth="yes"/>
      <point x="95" y="453"/>
      <point x="59" y="445"/>
      <point x="30" y="431" type="curve"/>
      <point x="30" y="369" type="line"/>
      <point x="56" y="381"/>
      <point x="82" y="392"/>
    </contour>
    <contour>
      <point x="392" y="325" type="line"/>
      <point x="44" y="115" type="line"/>
      <point x="44" y="47" type="line"/>
      <point x="392" y="260" type="line"/>
    </contour>
  </outline>
</glyph>
<glyph name="dvEcandra" format="1">
  <advance width="549"/>
  <unicode hex="090D"/>
  <outline>
    <contour>
      <point x="328" y="820" type="move" name="abvm.bindu"/>
    </contour>
    <contour>
      <point x="290" y="741" type="curve" smooth="yes"/>
      <point x="376" y="741"/>
      <point x="456" y="788"/>
      <point x="456" y="889" type="curve"/>
      <point x="394" y="889" type="line"/>
      <point x="394" y="836"/>
      <point x="358" y="793"/>
      <point x="290" y="793" type="curve" smooth="yes"/>
      <point x="223" y="793"/>
      <point x="187" y="836"/>
      <point x="187" y="889" type="curve"/>
      <point x="125" y="889" type="line"/>
      <point x="125" y="786"/>
      <point x="205" y="741"/>
    </contour>
    <contour>
      <point x="276" y="282" type="line"/>
      <point x="285" y="279"/>
      <point x="303" y="277"/>
      <point x="315" y="277" type="curve" smooth="yes"/>
      <point x="426" y="277"/>
      <point x="478" y="343"/>
      <point x="478" y="427" type="curve" smooth="yes"/>
      <point x="478" y="599" type="line"/>
      <point x="416" y="599" type="line"/>
      <point x="416" y="429" type="line" smooth="yes"/>
      <point x="416" y="369"/>
      <point x="387" y="329"/>
      <point x="315" y="329" type="curve" smooth="yes"/>
      <point x="301" y="329"/>
      <point x="285" y="331"/>
      <point x="276" y="335" type="curve"/>
    </contour>
    <contour>
      <point x="152" y="599" type="line"/>
      <point x="90" y="599" type="line"/>
      <point x="90" y="257" type="line" smooth="yes"/>
      <point x="90" y="95"/>
      <point x="192" y="36"/>
      <point x="328" y="36" type="curve" smooth="yes"/>
      <point x="374" y="36"/>
      <point x="432" y="46"/>
      <point x="469" y="62" type="curve"/>
      <point x="469" y="120" type="line"/>
      <point x="432" y="99"/>
      <point x="375" y="88"/>
      <point x="333" y="88" type="curve" smooth="yes"/>
      <point x="227" y="88"/>
      <point x="152" y="130"/>
      <point x="152" y="258" type="curve" smooth="yes"/>
    </contour>
    <contour>
      <point x="569" y="634" type="line"/>
      <point x="-20" y="634" type="line"/>
      <point x="-20" y="579" type="line"/>
      <point x="569" y="579" type="line"/>
    </contour>
  </outline>
</glyph>
<glyph name="dvAI" format="1">
  <advance width="549"/>
  <unicode hex="0910"/>
  <outline>
    <contour>
      <point x="569" y="634" type="move" name="abvm.bindu"/>
    </contour>
    <contour>
      <point x="629" y="634" type="move" name="abvm.candra"/>
    </contour>
    <component base="dvE"/>
    <component base="dvmE" xOffset="577"/>
  </outline>
</glyph>
<glyph name="dvO" format="1">
  <advance width="909"/>
  <unicode hex="0913"/>
  <outline>
    <contour>
      <point x="909" y="634" type="move" name="abvm.bindu"/>
    </contour>
    <contour>
      <point x="962" y="634" type="move" name="abvm.candra"/>
    </contour>
    <component base="dvmE" xOffset="911"/>
    <component base="dvA"/>
    <component base="dvmAA" xOffset="637"/>
  </outline>
</glyph>
<glyph name="dvAU" format="1">
  <advance width="909"/>
  <unicode hex="0914"/>
  <outline>
    <contour>
      <point x="909" y="634" type="move" name="abvm.bindu"/>
    </contour>
    <contour>
      <point x="958" y="634" type="move" name="abvm.candra"/>
    </contour>
    <component base="dvA"/>
    <component base="dvmAA" xOffset="647"/>
    <component base="dvmAI" xOffset="911"/>
  </outline>
</glyph>
<glyph name="dvKA" format="1">
  <advance width="761"/>
  <unicode hex="0915"/>
  <outline>
    <contour>
      <point x="412" y="634" type="move" name="abvm.candra"/>
    </contour>
    <contour>
      <point x="412" y="634" type="move" name="abvm.e"/>
    </contour>
    <contour>
      <point x="412" y="634" type="move" name="abvm.bindu"/>
    </contour>
    <contour>
      <point x="350" y="0" type="move" name="blwm.virama"/>
    </contour>
    <contour>
      <point x="412" y="634" type="move" name="abvm.reph"/>
    </contour>
    <contour>
      <point x="350" y="0" type="move" name="blwm.u"/>
    </contour>
    <contour>
      <point x="781" y="579" type="line"/>
      <point x="781" y="634" type="line"/>
      <point x="-20" y="634" type="line"/>
      <point x="-20" y="579" type="line"/>
    </contour>
    <contour>
      <point x="266" y="464" type="line"/>
      <point x="261" y="466"/>
      <point x="252" y="467"/>
      <point x="243" y="467" type="curve" smooth="yes"/>
      <point x="139" y="467"/>
      <point x="50" y="397"/>
      <point x="50" y="279" type="curve" smooth="yes"/>
      <point x="50" y="172"/>
      <point x="125" y="103"/>
      <point x="231" y="103" type="curve" smooth="yes"/>
      <point x="303" y="103"/>
      <point x="366" y="143"/>
      <point x="379" y="213" type="curve"/>
      <point x="350" y="266" type="line"/>
      <point x="350" y="202"/>
      <point x="295" y="155"/>
      <point x="235" y="155" type="curve" smooth="yes"/>
      <point x="164" y="155"/>
      <point x="112" y="205"/>
      <point x="112" y="279" type="curve" smooth="yes"/>
      <point x="112" y="366"/>
      <point x="173" y="412"/>
      <point x="245" y="412" type="curve" smooth="yes"/>
      <point x="252" y="412"/>
      <point x="261" y="411"/>
      <point x="266" y="410" type="curve"/>
    </contour>
    <contour>
      <point x="350" y="603" type="line"/>
      <point x="350" y="0" type="line"/>
      <point x="412" y="0" type="line"/>
      <point x="412" y="603" type="line"/>
    </contour>
    <contour>
      <point x="496" y="116" type="line"/>
      <point x="501" y="114"/>
      <point x="510" y="113"/>
      <point x="519" y="113" type="curve" smooth="yes"/>
      <point x="623" y="113"/>
      <point x="712" y="183"/>
      <point x="712" y="301" type="curve" smooth="yes"/>
      <point x="712" y="408"/>
      <point x="637" y="477"/>
      <point x="531" y="477" type="curve" smooth="yes"/>
      <point x="459" y="477"/>
      <point x="396" y="437"/>
      <point x="383" y="367" type="curve"/>
      <point x="412" y="314" type="line"/>
      <point x="412" y="378"/>
      <point x="467" y="425"/>
      <point x="527" y="425" type="curve" smooth="yes"/>
      <point x="598" y="425"/>
      <point x="650" y="375"/>
      <point x="650" y="301" type="curve" smooth="yes"/>
      <point x="650" y="214"/>
      <point x="589" y="168"/>
      <point x="517" y="168" type="curve" smooth="yes"/>
      <point x="510" y="168"/>
      <point x="501" y="169"/>
      <point x="496" y="170" type="curve"/>
    </contour>
  </outline>
</glyph>
<glyph name="dvDDA" format="1">
  <advance width="517"/>
  <unicode hex="0921"/>
  <outline>
    <contour>
      <point x="390" y="634" type="move" name="abvm.candra"/>
    </contour>
    <contour>
      <point x="390" y="634" type="move" name="abvm.e"/>
    </contour>
    <contour>
      <point x="390" y="634" type="move" name="abvm.bindu"/>
    </contour>
    <contour>
      <point x="236" y="-1" type="move" name="blwm.virama"/>
    </contour>
    <contour>
      <point x="390" y="634" type="move" name="abvm.reph"/>
    </contour>
    <contour>
      <point x="236" y="-36" type="move" name="blwm.u"/>
    </contour>
    <contour>
      <point x="447" y="149" type="curve" smooth="yes"/>
      <point x="447" y="250"/>
      <point x="369" y="278"/>
      <point x="273" y="283" type="curve" smooth="yes"/>
      <point x="163" y="289"/>
      <point x="132" y="312"/>
      <point x="132" y="360" type="curve" smooth="yes"/>
      <point x="132" y="412"/>
      <point x="180" y="429"/>
      <point x="225" y="429" type="curve" smooth="yes"/>
      <point x="390" y="429" type="line"/>
      <point x="376" y="484" type="line"/>
      <point x="221" y="484" type="line" smooth="yes"/>
      <point x="133" y="484"/>
      <point x="70" y="441"/>
      <point x="70" y="358" type="curve" smooth="yes"/>
      <point x="70" y="280"/>
      <point x="125" y="237"/>
      <point x="247" y="231" type="curve" smooth="yes"/>
      <point x="344" y="226"/>
      <point x="383" y="203"/>
      <point x="383" y="149" type="curve" smooth="yes"/>
      <point x="383" y="84"/>
      <point x="330" y="51"/>
      <point x="253" y="51" type="curve" smooth="yes"/>
      <point x="191" y="51"/>
      <point x="116" y="75"/>
      <point x="71" y="103" type="curve"/>
      <point x="71" y="40" type="line"/>
      <point x="121" y="14"/>
      <point x="188" y="-1"/>
      <point x="253" y="-1" type="curve" smooth="yes"/>
      <point x="373" y="-1"/>
      <point x="447" y="61"/>
    </contour>
    <contour>
      <point x="-20" y="579" type="line"/>
      <point x="328" y="579" type="line"/>
      <point x="328" y="475" type="line"/>
      <point x="390" y="429" type="line"/>
      <point x="390" y="579" type="line"/>
      <point x="537" y="579" type="line"/>
      <point x="537" y="634" type="line"/>
      <point x="-20" y="634" type="line"/>
    </contour>
  </outline>
</glyph>
<glyph name="dvDA" format="1">
  <advance width="542"/>
  <unicode hex="0926"/>
  <outline>
    <contour>
      <point x="440" y="634" type="move" name="abvm.candra"/>
    </contour>
    <contour>
      <point x="440" y="634" type="move" name="abvm.e"/>
    </contour>
    <contour>
      <point x="440" y="634" type="move" name="abvm.bindu"/>
    </contour>
    <contour>
      <point x="391" y="-10" type="move" name="blwm.virama"/>
    </contour>
    <contour>
      <point x="440" y="634" type="move" name="abvm.reph"/>
    </contour>
    <contour>
      <point x="391" y="-10" type="move" name="blwm.u"/>
    </contour>
    <contour>
      <point x="-20" y="634" type="line"/>
      <point x="-20" y="579" type="line"/>
      <point x="379" y="579" type="line"/>
      <point x="379" y="469" type="line"/>
      <point x="266" y="469" type="line" smooth="yes"/>
      <point x="127" y="469"/>
      <point x="50" y="383"/>
      <point x="50" y="271" type="curve" smooth="yes"/>
      <point x="50" y="162"/>
      <point x="129" y="73"/>
      <point x="255" y="73" type="curve" smooth="yes"/>
      <point x="316" y="73"/>
      <point x="365" y="94"/>
      <point x="391" y="125" type="curve"/>
      <point x="391" y="-10" type="line"/>
      <point x="452" y="-10" type="line"/>
      <point x="452" y="247" type="line"/>
      <point x="394" y="247" type="line"/>
      <point x="394" y="180"/>
      <point x="342" y="125"/>
      <point x="256" y="125" type="curve" smooth="yes"/>
      <point x="173" y="125"/>
      <point x="118" y="180"/>
      <point x="118" y="274" type="curve" smooth="yes"/>
      <point x="118" y="363"/>
      <point x="178" y="415"/>
      <point x="273" y="415" type="curve" smooth="yes"/>
      <point x="440" y="415" type="line"/>
      <point x="440" y="579" type="line"/>
      <point x="562" y="579" type="line"/>
      <point x="562" y="634" type="line"/>
    </contour>
  </outline>
</glyph>
<glyph name="dvDHA" format="1">
  <advance width="632"/>
  <unicode hex="0927"/>
  <outline>
    <contour>
      <point x="196" y="595" type="line"/>
      <point x="123" y="588"/>
      <point x="72" y="540"/>
      <point x="72" y="474" type="curve" smooth="yes"/>
      <point x="72" y="397"/>
      <point x="122" y="359"/>
      <point x="189" y="350" type="curve"/>
      <point x="123" y="341"/>
      <point x="70" y="297"/>
      <point x="70" y="220" type="curve" smooth="yes"/>
      <point x="70" y="135"/>
      <point x="142" y="63"/>
      <point x="275" y="63" type="curve" smooth="yes"/>
      <point x="375" y="63"/>
      <point x="443" y="114"/>
      <point x="471" y="163" type="curve"/>
      <point x="471" y="0" type="line"/>
      <point x="532" y="0" type="line"/>
      <point x="532" y="587" type="line"/>
      <point x="471" y="587" type="line"/>
      <point x="471" y="289" type="line" smooth="yes"/>
      <point x="471" y="218"/>
      <point x="402" y="116"/>
      <point x="275" y="116" type="curve" smooth="yes"/>
      <point x="184" y="116"/>
      <point x="133" y="161"/>
      <point x="133" y="217" type="curve" smooth="yes"/>
      <point x="133" y="282"/>
      <point x="187" y="323"/>
      <point x="274" y="323" type="curve" smooth="yes"/>
      <point x="336" y="323" type="line"/>
      <point x="336" y="376" type="line"/>
      <point x="283" y="376" type="line" smooth="yes"/>
      <point x="206" y="376"/>
      <point x="134" y="402"/>
      <point x="134" y="472" type="curve" smooth="yes"/>
      <point x="134" y="531"/>
      <point x="188" y="579"/>
      <point x="286" y="579" type="curve"/>
    </contour>
    <contour>
      <point x="652" y="579" type="line"/>
      <point x="652" y="634" type="line"/>
      <point x="471" y="634" type="line"/>
      <point x="471" y="579" type="line"/>
    </contour>
    <contour>
      <point x="286" y="579" type="line"/>
      <point x="286" y="634" type="line"/>
      <point x="-20" y="634" type="line"/>
      <point x="-20" y="579" type="line"/>
    </contour>
  </outline>
</glyph>
<glyph name="dvPHA" format="1">
  <advance width="777"/>
  <unicode hex="092B"/>
  <outline>
    <contour>
      <point x="447" y="634" type="move" name="abvm.candra"/>
    </contour>
    <contour>
      <point x="447" y="634" type="move" name="abvm.e"/>
    </contour>
    <contour>
      <point x="447" y="634" type="move" name="abvm.bindu"/>
    </contour>
    <contour>
      <point x="385" y="0" type="move" name="blwm.virama"/>
    </contour>
    <contour>
      <point x="447" y="634" type="move" name="abvm.reph"/>
    </contour>
    <contour>
      <point x="385" y="0" type="move" name="blwm.u"/>
    </contour>
    <contour>
      <point x="797" y="579" type="line"/>
      <point x="797" y="634" type="line"/>
      <point x="-20" y="634" type="line"/>
      <point x="-20" y="579" type="line"/>
    </contour>
    <contour>
      <point x="248" y="181" type="curve"/>
      <point x="330" y="182"/>
      <point x="380" y="222"/>
      <point x="403" y="279" type="curve"/>
      <point x="385" y="383" type="line"/>
      <point x="385" y="284"/>
      <point x="319" y="233"/>
      <point x="247" y="233" type="curve" smooth="yes"/>
      <point x="170" y="233"/>
      <point x="132" y="269"/>
      <point x="132" y="375" type="curve" smooth="yes"/>
      <point x="132" y="588" type="line"/>
      <point x="70" y="588" type="line"/>
      <point x="70" y="370" type="line" smooth="yes"/>
      <point x="70" y="229"/>
      <point x="133" y="181"/>
    </contour>
    <contour>
      <point x="385" y="0" type="line"/>
      <point x="447" y="0" type="line"/>
      <point x="447" y="588" type="line"/>
      <point x="385" y="588" type="line"/>
    </contour>
    <contour>
      <point x="531" y="119" type="line"/>
      <point x="536" y="117"/>
      <point x="545" y="116"/>
      <point x="554" y="116" type="curve" smooth="yes"/>
      <point x="658" y="116"/>
      <point x="747" y="186"/>
      <point x="747" y="304" type="curve" smooth="yes"/>
      <point x="747" y="411"/>
      <point x="672" y="480"/>
      <point x="566" y="480" type="curve" smooth="yes"/>
      <point x="494" y="480"/>
      <point x="431" y="440"/>
      <point x="418" y="370" type="curve"/>
      <point x="447" y="314" type="line"/>
      <point x="447" y="378"/>
      <point x="499" y="428"/>
      <point x="562" y="428" type="curve" smooth="yes"/>
      <point x="633" y="428"/>
      <point x="685" y="378"/>
      <point x="685" y="304" type="curve" smooth="yes"/>
      <point x="685" y="217"/>
      <point x="624" y="171"/>
      <point x="552" y="171" type="curve" smooth="yes"/>
      <point x="545" y="171"/>
      <point x="536" y="172"/>
      <point x="531" y="173" type="curve"/>
    </contour>
  </outline>
</glyph>
<glyph name="dvMA" format="1">
  <advance width="569"/>
  <unicode hex="092E"/>
  <outline>
    <contour>
      <point x="-20" y="579" type="line"/>
      <point x="122" y="579" type="line"/>
      <point x="122" y="337" type="line"/>
      <point x="98" y="332"/>
      <point x="80" y="311"/>
      <point x="80" y="285" type="curve" smooth="yes"/>
      <point x="80" y="258"/>
      <point x="95" y="223"/>
      <point x="107" y="195" type="curve" smooth="yes"/>
      <point x="129" y="145" type="line"/>
      <point x="184" y="145" type="line"/>
      <point x="184" y="285" type="line"/>
      <point x="407" y="285" type="line"/>
      <point x="407" y="0" type="line"/>
      <point x="469" y="0" type="line"/>
      <point x="469" y="579" type="line"/>
      <point x="589" y="579" type="line"/>
      <point x="589" y="634" type="line"/>
      <point x="-20" y="634" type="line"/>
    </contour>
    <contour>
      <point x="407" y="579" type="line"/>
      <point x="407" y="339" type="line"/>
      <point x="184" y="339" type="line"/>
      <point x="184" y="579" type="line"/>
    </contour>
  </outline>
</glyph>
<glyph name="dvRA" format="1">
  <advance width="365"/>
  <unicode hex="0930"/>
  <outline>
    <contour>
      <point x="286" y="634" type="move" name="abvm.candra"/>
    </contour>
    <contour>
      <point x="286" y="634" type="move" name="abvm.e"/>
    </contour>
    <contour>
      <point x="286" y="634" type="move" name="abvm.bindu"/>
    </contour>
    <contour>
      <point x="234" y="0" type="move" name="blwm.virama"/>
    </contour>
    <contour>
      <point x="286" y="634" type="move" name="abvm.reph"/>
    </contour>
    <contour>
      <point x="234" y="0" type="move" name="blwm.u"/>
    </contour>
    <contour>
      <point x="30" y="285" type="line"/>
      <point x="245" y="0" type="line"/>
      <point x="320" y="0" type="line"/>
      <point x="105" y="283" type="line"/>
      <point x="115" y="283" type="line" smooth="yes"/>
      <point x="214" y="283"/>
      <point x="286" y="334"/>
      <point x="286" y="433" type="curve" smooth="yes"/>
      <point x="286" y="579" type="line"/>
      <point x="385" y="579" type="line"/>
      <point x="385" y="634" type="line"/>
      <point x="-20" y="634" type="line"/>
      <point x="-20" y="579" type="line"/>
      <point x="224" y="579" type="line"/>
      <point x="224" y="440" type="line" smooth="yes"/>
      <point x="224" y="376"/>
      <point x="189" y="338"/>
      <point x="95" y="338" type="curve" smooth="yes"/>
      <point x="30" y="338" type="line"/>
    </contour>
  </outline>
</glyph>
<glyph name="dvLA" format="1">
  <advance width="727"/>
  <unicode hex="0932"/>
  <outline>
    <contour>
      <point x="322" y="54" type="line"/>
      <point x="314" y="52"/>
      <point x="304" y="52"/>
      <point x="299" y="52" type="curve" smooth="yes"/>
      <point x="177" y="52"/>
      <point x="122" y="152"/>
      <point x="122" y="261" type="curve" smooth="yes"/>
      <point x="122" y="362"/>
      <point x="173" y="414"/>
      <point x="233" y="414" type="curve" smooth="yes"/>
      <point x="292" y="414"/>
      <point x="327" y="374"/>
      <point x="327" y="285" type="curve" smooth="yes"/>
      <point x="327" y="210" type="line"/>
      <point x="388" y="210" type="line"/>
      <point x="388" y="284" type="line" smooth="yes"/>
      <point x="388" y="378"/>
      <point x="434" y="417"/>
      <point x="500" y="417" type="curve" smooth="yes"/>
      <point x="544" y="417"/>
      <point x="576" y="389"/>
      <point x="576" y="389" type="curve"/>
      <point x="576" y="447" type="line"/>
      <point x="576" y="447"/>
      <point x="544" y="469"/>
      <point x="495" y="469" type="curve" smooth="yes"/>
      <point x="420" y="469"/>
      <point x="373" y="433"/>
      <point x="359" y="371" type="curve"/>
      <point x="345" y="433"/>
      <point x="297" y="466"/>
      <point x="227" y="466" type="curve" smooth="yes"/>
      <point x="126" y="466"/>
      <point x="60" y="379"/>
      <point x="60" y="262" type="curve" smooth="yes"/>
      <point x="60" y="116"/>
      <point x="150" y="0"/>
      <point x="290" y="0" type="curve" smooth="yes"/>
      <point x="299" y="0"/>
      <point x="313" y="1"/>
      <point x="322" y="3" type="curve"/>
    </contour>
    <contour>
      <point x="565" y="0" type="line"/>
      <point x="627" y="0" type="line"/>
      <point x="627" y="579" type="line"/>
      <point x="565" y="579" type="line"/>
    </contour>
    <contour>
      <point x="-20" y="579" type="line"/>
      <point x="747" y="579" type="line"/>
      <point x="747" y="634" type="line"/>
      <point x="-20" y="634" type="line"/>
    </contour>
  </outline>
</glyph>
<glyph name="dvVA" format="1">
  <advance width="566"/>
  <unicode hex="0935"/>
  <outline>
    <contour>
      <point x="466" y="0" type="line"/>
      <point x="466" y="614" type="line"/>
      <point x="405" y="614" type="line"/>
      <point x="405" y="0" type="line"/>
    </contour>
    <contour>
      <point x="303" y="457" type="line"/>
      <point x="287" y="461"/>
      <point x="263" y="464"/>
      <point x="241" y="464" type="curve" smooth="yes"/>
      <point x="130" y="464"/>
      <point x="50" y="386"/>
      <point x="50" y="279" type="curve" smooth="yes"/>
      <point x="50" y="160"/>
      <point x="142" y="92"/>
      <point x="239" y="92" type="curve" smooth="yes"/>
      <point x="342" y="92"/>
      <point x="400" y="150"/>
      <point x="417" y="207" type="curve"/>
      <point x="405" y="319" type="line"/>
      <point x="405" y="232"/>
      <point x="353" y="144"/>
      <point x="242" y="144" type="curve" smooth="yes"/>
      <point x="173" y="144"/>
      <point x="112" y="196"/>
      <point x="112" y="279" type="curve" smooth="yes"/>
      <point x="112" y="358"/>
      <point x="170" y="410"/>
      <point x="244" y="410" type="curve" smooth="yes"/>
      <point x="266" y="410"/>
      <point x="286" y="408"/>
      <point x="303" y="402" type="curve"/>
    </contour>
    <contour>
      <point x="586" y="579" type="line"/>
      <point x="586" y="634" type="line"/>
      <point x="-20" y="634" type="line"/>
      <point x="-20" y="579" type="line"/>
    </contour>
  </outline>
</glyph>
<glyph name="dvSSA" format="1">
  <advance width="572"/>
  <unicode hex="0937"/>
  <outline>
    <contour>
      <point x="423" y="249" type="line"/>
      <point x="443" y="287" type="line"/>
      <point x="139" y="581" type="line"/>
      <point x="103" y="554" type="line"/>
    </contour>
    <contour>
      <point x="592" y="579" type="line"/>
      <point x="592" y="634" type="line"/>
      <point x="-20" y="634" type="line"/>
      <point x="-20" y="579" type="line"/>
    </contour>
    <contour>
      <point x="273" y="171" type="curve"/>
      <point x="345" y="172"/>
      <point x="408" y="212"/>
      <point x="428" y="269" type="curve"/>
      <point x="410" y="373" type="line"/>
      <point x="410" y="274"/>
      <point x="344" y="223"/>
      <point x="272" y="223" type="curve" smooth="yes"/>
      <point x="195" y="223"/>
      <point x="142" y="269"/>
      <point x="142" y="375" type="curve" smooth="yes"/>
      <point x="142" y="588" type="line"/>
      <point x="80" y="588" type="line"/>
      <point x="80" y="370" type="line" smooth="yes"/>
      <point x="80" y="229"/>
      <point x="158" y="171"/>
    </contour>
    <contour>
      <point x="410" y="0" type="line"/>
      <point x="472" y="0" type="line"/>
      <point x="472" y="588" type="line"/>
      <point x="410" y="588" type="line"/>
    </contour>
  </outline>
</glyph>
<glyph name="dvmAA" format="1">
  <advance width="262"/>
  <unicode hex="093E"/>
  <outline>
    <contour>
      <point x="-20" y="579" type="line"/>
      <point x="100" y="579" type="line"/>
      <point x="100" y="0" type="line"/>
      <point x="162" y="0" type="line"/>
      <point x="162" y="579" type="line"/>
      <point x="282" y="579" type="line"/>
      <point x="282" y="634" type="line"/>
      <point x="-20" y="634" type="line"/>
    </contour>
  </outline>
</glyph>
<glyph name="dvmU" format="1">
  <advance width="0"/>
  <unicode hex="0941"/>
  <outline>
    <contour>
      <point x="-162" y="0" type="move" name="_blwm.u"/>
    </contour>
    <contour>
      <point x="-420" y="-146" type="line"/>
      <point x="-369" y="-194"/>
      <point x="-259" y="-252"/>
      <point x="-166" y="-252" type="curve" smooth="yes"/>
      <point x="-65" y="-252"/>
      <point x="3" y="-199"/>
      <point x="3" y="-115" type="curve" smooth="yes"/>
      <point x="3" y="-45"/>
      <point x="-37" y="10"/>
      <point x="-140" y="10" type="curve" smooth="yes"/>
      <point x="-198" y="10"/>
      <point x="-237" y="-19"/>
      <point x="-237" y="-19" type="curve"/>
      <point x="-237" y="-76" type="line"/>
      <point x="-237" y="-76"/>
      <point x="-188" y="-42"/>
      <point x="-141" y="-42" type="curve" smooth="yes"/>
      <point x="-91" y="-42"/>
      <point x="-59" y="-68"/>
      <point x="-59" y="-115" type="curve" smooth="yes"/>
      <point x="-59" y="-164"/>
      <point x="-96" y="-200"/>
      <point x="-168" y="-200" type="curve" smooth="yes"/>
      <point x="-265" y="-200"/>
      <point x="-377" y="-124"/>
      <point x="-420" y="-74" type="curve"/>
    </contour>
  </outline>
</glyph>
<glyph name="dvmUU" format="1">
  <advance width="0"/>
  <unicode hex="0942"/>
  <outline>
    <contour>
      <point x="-162" y="0" type="move" name="_blwm.u"/>
    </contour>
    <contour>
      <point x="-99" y="-190" type="line"/>
      <point x="-106" y="-192"/>
      <point x="-115" y="-193"/>
      <point x="-127" y="-193" type="curve" smooth="yes"/>
      <point x="-169" y="-193"/>
      <point x="-213" y="-171"/>
      <point x="-213" y="-117" type="curve" smooth="yes"/>
      <point x="-213" y="-74"/>
      <point x="-180" y="-42"/>
      <point x="-130" y="-42" type="curve" smooth="yes"/>
      <point x="-16" y="-42"/>
      <point x="33" y="-169"/>
      <point x="33" y="-283" type="curve"/>
      <point x="90" y="-283" type="line"/>
      <point x="90" y="-169"/>
      <point x="42" y="10"/>
      <point x="-134" y="10" type="curve" smooth="yes"/>
      <point x="-219" y="10"/>
      <point x="-275" y="-48"/>
      <point x="-275" y="-116" type="curve" smooth="yes"/>
      <point x="-275" y="-200"/>
      <point x="-212" y="-246"/>
      <point x="-137" y="-246" type="curve" smooth="yes"/>
      <point x="-126" y="-246"/>
      <point x="-110" y="-245"/>
      <point x="-99" y="-242" type="curve"/>
    </contour>
  </outline>
</glyph>
<glyph name="dvmvR" format="1">
  <advance width="0"/>
  <unicode hex="0943"/>
  <outline>
    <contour>
      <point x="-162" y="0" type="move" name="_blwm.virama"/>
    </contour>
    <contour>
      <point x="-296" y="-134" type="curve" smooth="yes"/>
      <point x="-296" y="-213"/>
      <point x="-238" y="-265"/>
      <point x="-150" y="-265" type="curve" smooth="yes"/>
      <point x="-124" y="-265"/>
      <point x="-97" y="-257"/>
      <point x="-79" y="-245" type="curve"/>
      <point x="-79" y="-192" type="line"/>
      <point x="-98" y="-205"/>
      <point x="-124" y="-213"/>
      <point x="-149" y="-213" type="curve" smooth="yes"/>
      <point x="-210" y="-213"/>
      <point x="-234" y="-177"/>
      <point x="-234" y="-134" type="curve" smooth="yes"/>
      <point x="-234" y="-82"/>
      <point x="-199" y="-51"/>
      <point x="-148" y="-51" type="curve" smooth="yes"/>
      <point x="-100" y="-51" type="line"/>
      <point x="-100" y="8" type="line"/>
      <point x="-162" y="8" type="line"/>
      <point x="-162" y="-3" type="line"/>
      <point x="-234" y="-3"/>
      <point x="-296" y="-57"/>
    </contour>
  </outline>
</glyph>
<glyph name="dvmE" format="1">
  <advance width="0"/>
  <unicode hex="0947"/>
  <outline>
    <contour>
      <point x="-100" y="634" type="move" name="_abvm.e"/>
    </contour>
    <contour>
      <point x="-400" y="816" type="line"/>
      <point x="-400" y="816"/>
      <point x="-378" y="822"/>
      <point x="-354" y="822" type="curve"/>
      <point x="-311" y="822"/>
      <point x="-285" y="806"/>
      <point x="-259" y="766" type="curve" smooth="yes"/>
      <point x="-168" y="627" type="line"/>
      <point x="-100" y="627" type="line"/>
      <point x="-206" y="788" type="line" smooth="yes"/>
      <point x="-245" y="848"/>
      <point x="-287" y="877"/>
      <point x="-352" y="877" type="curve"/>
      <point x="-378" y="877"/>
      <point x="-400" y="871"/>
      <point x="-400" y="871" type="curve"/>
    </contour>
  </outline>
</glyph>
<glyph name="dvKxA" format="1">
  <advance width="761"/>
  <unicode hex="0958"/>
  <outline>
    <contour>
      <point x="412" y="634" type="move" name="abvm.candra"/>
    </contour>
    <contour>
      <point x="412" y="634" type="move" name="abvm.e"/>
    </contour>
    <contour>
      <point x="412" y="634" type="move" name="abvm.bindu"/>
    </contour>
    <contour>
      <point x="350" y="0" type="move" name="blwm.virama"/>
    </contour>
    <contour>
      <point x="412" y="634" type="move" name="abvm.reph"/>
    </contour>
    <contour>
      <point x="350" y="0" type="move" name="blwm.u"/>
    </contour>
    <component base="dvKA"/>
    <component base="dvNukta" xOffset="420" yOffset="90"/>
  </outline>
</glyph>
<glyph name="dvPHxA" format="1">
  <advance width="777"/>
  <unicode hex="095E"/>
  <outline>
    <contour>
      <point x="447" y="634" type="move" name="abvm.candra"/>
    </contour>
    <contour>
      <point x="447" y="634" type="move" name="abvm.e"/>
    </contour>
    <contour>
      <point x="447" y="634" type="move" name="abvm.bindu"/>
    </contour>
    <contour>
      <point x="385" y="0" type="move" name="blwm.virama"/>
    </contour>
    <contour>
      <point x="447" y="634" type="move" name="abvm.reph"/>
    </contour>
    <contour>
      <point x="385" y="0" type="move" name="blwm.u"/>
    </contour>
    <component base="dvPHA"/>
    <component base="dvNukta" xOffset="410" yOffset="137"/>
  </outline>
</glyph>
<glyph name="danda" format="1">
  <advance width="307"/>
  <unicode hex="0964"/>
  <outline>
    <contour>
      <point x="145" y="0" type="line"/>
      <point x="207" y="0" type="line"/>
      <point x="207" y="634" type="line"/>
      <point x="145" y="634" type="line"/>
    </contour>
  </outline>
</glyph>
<glyph name="endash" format="1">
  <advance width="536"/>
  <unicode hex="2013"/>
  <outline>
    <contour>
      <point x="60" y="243" type="line"/>
      <point x="476" y="243" type="line"/>
      <point x="476" y="298" type="line"/>
      <point x="60" y="298" type="line"/>
    </contour>
  </outline>
</glyph>
<glyph name="emdash" format="1">
  <advance width="819"/>
  <unicode hex="2014"/>
  <outline>
    <contour>
      <point x="60" y="245" type="line"/>
      <point x="759" y="245" type="line"/>
      <point x="759" y="300" type="line"/>
      <point x="60" y="300" type="line"/>
    </contour>
  </outline>
</glyph>
<glyph name="quoteleft" format="1">
  <advance width="157"/>
  <unicode hex="2018"/>
  <outline>
    <contour>
      <point x="167" y="695" type="line"/>
      <point x="122" y="695" type="line"/>
      <point x="7" y="481" type="line"/>
      <point x="88" y="481" type="line"/>
    </contour>
  </outline>
</glyph>
<glyph name="quoteright" format="1">
  <advance width="158"/>
  <unicode hex="2019"/>
  <outline>
    <contour>
      <point x="8" y="481" type="line"/>
      <point x="53" y="481" type="line"/>
      <point x="168" y="695" type="line"/>
      <point x="87" y="695" type="line"/>
    </contour>
  </outline>
</glyph>
<glyph name="quotesinglbase" format="1">
  <advance width="158"/>
  <unicode hex="201A"/>
  <outline>
    <contour>
      <point x="4" y="-122" type="line"/>
      <point x="49" y="-122" type="line"/>
      <point x="164" y="92" type="line"/>
      <point x="83" y="92" type="line"/>
    </contour>
  </outline>
</glyph>
<glyph name="dagger" format="1">
  <advance width="514"/>
  <unicode hex="2020"/>
  <outline>
    <contour>
      <point x="224" y="0" type="line"/>
      <point x="281" y="0" type="line"/>
      <point x="281" y="674" type="line"/>
      <point x="224" y="674" type="line"/>
    </contour>
    <contour>
      <point x="45" y="442" type="line"/>
      <point x="469" y="442" type="line"/>
      <point x="469" y="498" type="line"/>
      <point x="45" y="498" type="line"/>
    </contour>
  </outline>
</glyph>
<glyph name="perthousand" format="1">
  <advance width="1159"/>
  <unicode hex="2030"/>
  <outline>
    <contour>
      <point x="195" y="-1" type="line"/>
      <point x="256" y="-1" type="line"/>
      <point x="609" y="654" type="line"/>
      <point x="547" y="654" type="line"/>
    </contour>
    <contour>
      <point x="459" y="143" type="curve" smooth="yes"/>
      <point x="459" y="60"/>
      <point x="526" y="-7"/>
      <point x="609" y="-7" type="curve" smooth="yes"/>
      <point x="691" y="-7"/>
      <point x="759" y="60"/>
      <point x="759" y="143" type="curve" smooth="yes"/>
      <point x="759" y="225"/>
      <point x="691" y="293"/>
      <point x="609" y="293" type="curve" smooth="yes"/>
      <point x="526" y="293"/>
      <point x="459" y="225"/>
    </contour>
    <contour>
      <point x="45" y="510" type="curve" smooth="yes"/>
      <point x="45" y="427"/>
      <point x="112" y="360"/>
      <point x="195" y="360" type="curve" smooth="yes"/>
      <point x="277" y="360"/>
      <point x="345" y="427"/>
      <point x="345" y="510" type="curve" smooth="yes"/>
      <point x="345" y="592"/>
      <point x="277" y="660"/>
      <point x="195" y="660" type="curve" smooth="yes"/>
      <point x="112" y="660"/>
      <point x="45" y="592"/>
    </contour>
    <contour>
      <point x="101" y="510" type="curve" smooth="yes"/>
      <point x="101" y="562"/>
      <point x="143" y="604"/>
      <point x="195" y="604" type="curve" smooth="yes"/>
      <point x="247" y="604"/>
      <point x="289" y="562"/>
      <point x="289" y="510" type="curve" smooth="yes"/>
      <point x="289" y="458"/>
      <point x="247" y="416"/>
      <point x="195" y="416" type="curve" smooth="yes"/>
      <point x="143" y="416"/>
      <point x="101" y="458"/>
    </contour>
    <contour>
      <point x="515" y="143" type="curve" smooth="yes"/>
      <point x="515" y="195"/>
      <point x="557" y="237"/>
      <point x="609" y="237" type="curve" smooth="yes"/>
      <point x="661" y="237"/>
      <point x="703" y="195"/>
      <point x="703" y="143" type="curve" smooth="yes"/>
      <point x="703" y="91"/>
      <point x="661" y="49"/>
      <point x="609" y="49" type="curve" smooth="yes"/>
      <point x="557" y="49"/>
      <point x="515" y="91"/>
    </contour>
    <contour>
      <point x="834" y="143" type="curve" smooth="yes"/>
      <point x="834" y="60"/>
      <point x="901" y="-7"/>
      <point x="984" y="-7" type="curve" smooth="yes"/>
      <point x="1066" y="-7"/>
      <point x="1134" y="60"/>
      <point x="1134" y="143" type="curve" smooth="yes"/>
      <point x="1134" y="225"/>
      <point x="1066" y="293"/>
      <point x="984" y="293" type="curve" smooth="yes"/>
      <point x="901" y="293"/>
      <point x="834" y="225"/>
    </contour>
    <contour>
      <point x="890" y="143" type="curve" smooth="yes"/>
      <point x="890" y="195"/>
      <point x="932" y="237"/>
      <point x="984" y="237" type="curve" smooth="yes"/>
      <point x="1036" y="237"/>
      <point x="1078" y="195"/>
      <point x="1078" y="143" type="curve" smooth="yes"/>
      <point x="1078" y="91"/>
      <point x="1036" y="49"/>
      <point x="984" y="49" type="curve" smooth="yes"/>
      <point x="932" y="49"/>
      <point x="890" y="91"/>
    </contour>
  </outline>
</glyph>
<glyph name="trademark" format="1">
  <advance width="678"/>
  <unicode hex="2122"/>
  <outline>
    <contour>
      <point x="255" y="331" type="line"/>
      <point x="308" y="331" type="line"/>
      <point x="317" y="498" type="line" smooth="yes"/>
      <point x="322" y="584"/>
      <point x="325" y="611"/>
      <point x="325" y="611" type="curve" smooth="yes"/>
      <point x="325" y="611"/>
      <point x="332" y="590"/>
      <point x="364" y="498" type="curve" smooth="yes"/>
      <point x="420" y="339" type="line"/>
      <point x="477" y="339" type="line"/>
      <point x="537" y="498" type="line" smooth="yes"/>
      <point x="569" y="585"/>
      <point x="578" y="611"/>
      <point x="578" y="611" type="curve" smooth="yes"/>
      <point x="578" y="611"/>
      <point x="578" y="577"/>
      <point x="583" y="498" type="curve" smooth="yes"/>
      <point x="594" y="331" type="line"/>
      <point x="646" y="331" type="line"/>
      <point x="623" y="674" type="line"/>
      <point x="549" y="674" type="line"/>
      <point x="482" y="494" type="line" smooth="yes"/>
      <point x="464" y="445"/>
      <point x="448" y="396"/>
      <point x="448" y="396" type="curve"/>
      <point x="448" y="396"/>
      <point x="435" y="442"/>
      <point x="417" y="494" type="curve" smooth="yes"/>
      <point x="354" y="674" type="line"/>
      <point x="282" y="674" type="line"/>
    </contour>
    <contour>
      <point x="0" y="628" type="line"/>
      <point x="88" y="628" type="line"/>
      <point x="88" y="330" type="line"/>
      <point x="139" y="330" type="line"/>
      <point x="139" y="628" type="line"/>
      <point x="224" y="628" type="line"/>
      <point x="224" y="674" type="line"/>
      <point x="0" y="674" type="line"/>
    </contour>
  </outline>
</glyph>
<glyph name="estimated" format="1">
  <advance width="833"/>
  <unicode hex="212E"/>
  <outline>
    <contour>
      <point x="175" y="323" type="line"/>
      <point x="175" y="124" type="line"/>
      <point x="239" y="48"/>
      <point x="327" y="9"/>
      <point x="419" y="9" type="curve" smooth="yes"/>
      <point x="520" y="9"/>
      <point x="607" y="55"/>
      <point x="669" y="124" type="curve"/>
      <point x="724" y="124" type="line"/>
      <point x="654" y="44"/>
      <point x="543" y="-10"/>
      <point x="419" y="-10" type="curve" smooth="yes"/>
      <point x="205" y="-10"/>
      <point x="34" y="142"/>
      <point x="34" y="333" type="curve" smooth="yes"/>
      <point x="34" y="526"/>
      <point x="205" y="684"/>
      <point x="419" y="684" type="curve" smooth="yes"/>
      <point x="632" y="684"/>
      <point x="805" y="526"/>
      <point x="805" y="333" type="curve" smooth="yes"/>
      <point x="805" y="323" type="line"/>
    </contour>
    <contour>
      <point x="664" y="548" type="line"/>
      <point x="612" y="617"/>
      <point x="522" y="662"/>
      <point x="419" y="662" type="curve" smooth="yes"/>
      <point x="325" y="662"/>
      <point x="236" y="619"/>
      <point x="175" y="548" type="curve"/>
      <point x="175" y="343" type="line"/>
      <point x="664" y="343" type="line"/>
    </contour>
  </outline>
</glyph>
<glyph name="partialdiff" format="1">
  <advance width="506"/>
  <unicode hex="2202"/>
  <outline>
    <contour>
      <point x="240" y="674" type="line"/>
      <point x="337" y="615"/>
      <point x="462" y="448"/>
      <point x="462" y="286" type="curve" smooth="yes"/>
      <point x="462" y="120"/>
      <point x="387" y="-8"/>
      <point x="233" y="-8" type="curve" smooth="yes"/>
      <point x="106" y="-8"/>
      <point x="40" y="98"/>
      <point x="40" y="206" type="curve" smooth="yes"/>
      <point x="40" y="343"/>
      <point x="146" y="418"/>
      <point x="248" y="418" type="curve" smooth="yes"/>
      <point x="321" y="418"/>
      <point x="384" y="382"/>
      <point x="420" y="314" type="curve"/>
      <point x="420" y="244" type="line"/>
      <point x="389" y="308"/>
      <point x="328" y="362"/>
      <point x="245" y="362" type="curve" smooth="yes"/>
      <point x="163" y="362"/>
      <point x="104" y="303"/>
      <point x="104" y="206" type="curve" smooth="yes"/>
      <point x="104" y="119"/>
      <point x="155" y="50"/>
      <point x="241" y="50" type="curve" smooth="yes"/>
      <point x="353" y="50"/>
      <point x="400" y="163"/>
      <point x="400" y="286" type="curve" smooth="yes"/>
      <point x="400" y="451"/>
      <point x="253" y="615"/>
      <point x="152" y="674" type="curve"/>
    </contour>
  </outline>
</glyph>
<glyph name="minus" format="1">
  <advance width="544"/>
  <unicode hex="2212"/>
  <outline>
    <contour>
      <point x="60" y="312" type="line"/>
      <point x="484" y="312" type="line"/>
      <point x="484" y="368" type="line"/>
      <point x="60" y="368" type="line"/>
    </contour>
  </outline>
</glyph>
<glyph name="infinity" format="1">
  <advance width="836"/>
  <unicode hex="221E"/>
  <outline>
    <contour>
      <point x="110" y="351" type="curve"/>
      <point x="110" y="411"/>
      <point x="149" y="457"/>
      <point x="222" y="457" type="curve"/>
      <point x="291" y="457"/>
      <point x="339" y="399"/>
      <point x="377" y="347" type="curve"/>
      <point x="341" y="296"/>
      <point x="288" y="238"/>
      <point x="223" y="238" type="curve"/>
      <point x="150" y="238"/>
      <point x="110" y="292"/>
    </contour>
    <contour>
      <point x="416" y="307" type="curve"/>
      <point x="470" y="239"/>
      <point x="524" y="185"/>
      <point x="614" y="185" type="curve"/>
      <point x="722" y="185"/>
      <point x="786" y="258"/>
      <point x="786" y="352" type="curve"/>
      <point x="786" y="444"/>
      <point x="725" y="511"/>
      <point x="618" y="511" type="curve"/>
      <point x="531" y="511"/>
      <point x="472" y="455"/>
      <point x="419" y="385" type="curve"/>
      <point x="367" y="453"/>
      <point x="309" y="510"/>
      <point x="222" y="510" type="curve"/>
      <point x="114" y="510"/>
      <point x="50" y="439"/>
      <point x="50" y="346" type="curve"/>
      <point x="50" y="252"/>
      <point x="109" y="185"/>
      <point x="216" y="185" type="curve"/>
      <point x="302" y="185"/>
      <point x="364" y="241"/>
    </contour>
    <contour>
      <point x="725" y="348" type="curve"/>
      <point x="725" y="286"/>
      <point x="688" y="239"/>
      <point x="614" y="239" type="curve"/>
      <point x="544" y="239"/>
      <point x="502" y="289"/>
      <point x="459" y="347" type="curve"/>
      <point x="494" y="398"/>
      <point x="544" y="457"/>
      <point x="611" y="457" type="curve"/>
      <point x="684" y="457"/>
      <point x="725" y="405"/>
    </contour>
  </outline>
</glyph>
<glyph name="integral" format="1">
  <advance width="311"/>
  <unicode hex="222B"/>
  <outline>
    <contour>
      <point x="301" y="640" type="line"/>
      <point x="288" y="645"/>
      <point x="273" y="648"/>
      <point x="257" y="648" type="curve" smooth="yes"/>
      <point x="221" y="648"/>
      <point x="184" y="621"/>
      <point x="184" y="554" type="curve" smooth="yes"/>
      <point x="184" y="-7" type="line"/>
      <point x="184" y="-97"/>
      <point x="136" y="-158"/>
      <point x="47" y="-158" type="curve" smooth="yes"/>
      <point x="38" y="-158"/>
      <point x="17" y="-155"/>
      <point x="6" y="-152" type="curve"/>
      <point x="6" y="-92" type="line"/>
      <point x="19" y="-97"/>
      <point x="34" y="-100"/>
      <point x="50" y="-100" type="curve" smooth="yes"/>
      <point x="86" y="-100"/>
      <point x="123" y="-73"/>
      <point x="123" y="-6" type="curve"/>
      <point x="123" y="555" type="line" smooth="yes"/>
      <point x="123" y="645"/>
      <point x="171" y="706"/>
      <point x="260" y="706" type="curve" smooth="yes"/>
      <point x="269" y="706"/>
      <point x="290" y="703"/>
      <point x="301" y="700" type="curve"/>
    </contour>
  </outline>
</glyph>
<glyph name="lozenge" format="1">
  <advance width="553"/>
  <unicode hex="25CA"/>
  <outline>
    <contour>
      <point x="58" y="337" type="line"/>
      <point x="130" y="337" type="line"/>
      <point x="179" y="242" type="line" smooth="yes"/>
      <point x="244" y="116"/>
      <point x="276" y="54"/>
      <point x="276" y="54" type="curve"/>
      <point x="276" y="54"/>
      <point x="308" y="117"/>
      <point x="374" y="242" type="curve" smooth="yes"/>
      <point x="423" y="337" type="line"/>
      <point x="495" y="337" type="line"/>
      <point x="315" y="0" type="line"/>
      <point x="233" y="0" type="line"/>
    </contour>
    <contour>
      <point x="233" y="674" type="line"/>
      <point x="315" y="674" type="line"/>
      <point x="495" y="337" type="line"/>
      <point x="423" y="337" type="line"/>
      <point x="374" y="432" type="line" smooth="yes"/>
      <point x="308" y="557"/>
      <point x="276" y="620"/>
      <point x="276" y="620" type="curve"/>
      <point x="276" y="620"/>
      <point x="244" y="558"/>
      <point x="179" y="432" type="curve" smooth="yes"/>
      <point x="130" y="337" type="line"/>
      <point x="58" y="337" type="line"/>
    </contour>
  </outline>
</glyph>
<glyph name="f_f" format="1">
  <advance width="563"/>
  <unicode hex="FB00"/>
  <outline>
    <contour>
      <point x="403" y="611" type="line"/>
      <point x="366" y="635"/>
      <point x="326" y="654"/>
      <point x="267" y="654" type="curve" smooth="yes"/>
      <point x="219" y="654"/>
      <point x="184" y="627"/>
      <point x="184" y="560" type="curve" smooth="yes"/>
      <point x="184" y="0" type="line"/>
      <point x="123" y="0" type="line"/>
      <point x="123" y="561" type="line" smooth="yes"/>
      <point x="123" y="651"/>
      <point x="171" y="712"/>
      <point x="270" y="712" type="curve" smooth="yes"/>
      <point x="321" y="712"/>
      <point x="377" y="693"/>
      <point x="413" y="671" type="curve"/>
    </contour>
    <contour>
      <point x="30" y="507" type="line"/>
      <point x="300" y="507" type="line"/>
      <point x="300" y="455" type="line"/>
      <point x="30" y="455" type="line"/>
    </contour>
    <contour>
      <point x="539" y="646" type="line"/>
      <point x="526" y="651"/>
      <point x="511" y="654"/>
      <point x="495" y="654" type="curve" smooth="yes"/>
      <point x="459" y="654"/>
      <point x="422" y="627"/>
      <point x="422" y="560" type="curve" smooth="yes"/>
      <point x="422" y="0" type="line"/>
      <point x="361" y="0" type="line"/>
      <point x="361" y="561" type="line" smooth="yes"/>
      <point x="361" y="651"/>
      <point x="409" y="712"/>
      <point x="498" y="712" type="curve" smooth="yes"/>
      <point x="507" y="712"/>
      <point x="528" y="709"/>
      <point x="539" y="706" type="curve"/>
    </contour>
    <contour>
      <point x="268" y="507" type="line"/>
      <point x="538" y="507" type="line"/>
      <point x="538" y="455" type="line"/>
      <point x="268" y="455" type="line"/>
    </contour>
  </outline>
</glyph>
<glyph name="doubledanda" format="1">
  <advance width="515"/>
  <outline>
    <contour>
      <point x="145" y="0" type="line"/>
      <point x="207" y="0" type="line"/>
      <point x="207" y="634" type="line"/>
      <point x="145" y="634" type="line"/>
    </contour>
    <contour>
      <point x="353" y="0" type="line"/>
      <point x="415" y="0" type="line"/>
      <point x="415" y="634" type="line"/>
      <point x="353" y="634" type="line"/>
    </contour>
  </outline>
</glyph>
<glyph name="dvAbbreviationsign" format="1">
  <advance width="416"/>
  <outline>
    <contour>
      <point x="56" y="298" type="curve" smooth="yes"/>
      <point x="56" y="215"/>
      <point x="123" y="148"/>
      <point x="206" y="148" type="curve" smooth="yes"/>
      <point x="288" y="148"/>
      <point x="356" y="215"/>
      <point x="356" y="298" type="curve" smooth="yes"/>
      <point x="356" y="380"/>
      <point x="288" y="448"/>
      <point x="206" y="448" type="curve" smooth="yes"/>
      <point x="123" y="448"/>
      <point x="56" y="380"/>
    </contour>
    <contour>
      <point x="112" y="298" type="curve" smooth="yes"/>
      <point x="112" y="350"/>
      <point x="154" y="392"/>
      <point x="206" y="392" type="curve" smooth="yes"/>
      <point x="258" y="392"/>
      <point x="300" y="350"/>
      <point x="300" y="298" type="curve" smooth="yes"/>
      <point x="300" y="246"/>
      <point x="258" y="204"/>
      <point x="206" y="204" type="curve" smooth="yes"/>
      <point x="154" y="204"/>
      <point x="112" y="246"/>
    </contour>
  </outline>
</glyph>
<glyph name="dvBH" format="1">
  <advance width="317"/>
  <outline>
    <contour>
      <point x="413" y="339" type="line"/>
      <point x="175" y="339" type="line"/>
      <point x="175" y="526" type="line" smooth="yes"/>
      <point x="175" y="598"/>
      <point x="147" y="638"/>
      <point x="76" y="638" type="curve" smooth="yes"/>
      <point x="51" y="638"/>
      <point x="28" y="633"/>
      <point x="10" y="624" type="curve"/>
      <point x="10" y="571" type="line"/>
      <point x="26" y="579"/>
      <point x="48" y="584"/>
      <point x="67" y="584" type="curve" smooth="yes"/>
      <point x="102" y="584"/>
      <point x="113" y="562"/>
      <point x="113" y="514" type="curve" smooth="yes"/>
      <point x="113" y="337" type="line"/>
      <point x="89" y="332"/>
      <point x="71" y="311"/>
      <point x="71" y="285" type="curve" smooth="yes"/>
      <point x="71" y="258"/>
      <point x="86" y="223"/>
      <point x="98" y="195" type="curve" smooth="yes"/>
      <point x="120" y="145" type="line"/>
      <point x="175" y="145" type="line"/>
      <point x="175" y="285" type="line"/>
      <point x="413" y="285" type="line"/>
    </contour>
  </outline>
</glyph>
<glyph name="dvBH_NA" format="1">
  <advance width="554"/>
  <outline>
    <contour>
      <point x="392" y="381" type="line"/>
      <point x="184" y="381" type="line"/>
      <point x="184" y="526" type="line" smooth="yes"/>
      <point x="184" y="598"/>
      <point x="156" y="638"/>
      <point x="85" y="638" type="curve" smooth="yes"/>
      <point x="60" y="638"/>
      <point x="37" y="633"/>
      <point x="19" y="624" type="curve"/>
      <point x="19" y="571" type="line"/>
      <point x="35" y="579"/>
      <point x="57" y="584"/>
      <point x="76" y="584" type="curve" smooth="yes"/>
      <point x="111" y="584"/>
      <point x="122" y="562"/>
      <point x="122" y="514" type="curve" smooth="yes"/>
      <point x="122" y="379" type="line"/>
      <point x="98" y="374"/>
      <point x="80" y="353"/>
      <point x="80" y="327" type="curve" smooth="yes"/>
      <point x="80" y="300"/>
      <point x="95" y="265"/>
      <point x="107" y="237" type="curve" smooth="yes"/>
      <point x="129" y="187" type="line"/>
      <point x="184" y="187" type="line"/>
      <point x="184" y="327" type="line"/>
      <point x="392" y="327" type="line"/>
      <point x="392" y="0" type="line"/>
      <point x="454" y="0" type="line"/>
      <point x="454" y="579" type="line"/>
      <point x="574" y="579" type="line"/>
      <point x="574" y="634" type="line"/>
      <point x="392" y="634" type="line"/>
    </contour>
    <contour>
      <point x="160" y="75" type="line"/>
      <point x="131" y="56"/>
      <point x="118" y="37"/>
      <point x="118" y="12" type="curve" smooth="yes"/>
      <point x="118" y="-33"/>
      <point x="169" y="-77"/>
      <point x="201" y="-93" type="curve"/>
      <point x="244" y="-65" type="line"/>
      <point x="222" y="-49"/>
      <point x="193" y="-17"/>
      <point x="193" y="11" type="curve" smooth="yes"/>
      <point x="193" y="28"/>
      <point x="204" y="40"/>
      <point x="221" y="51" type="curve" smooth="yes"/>
      <point x="441" y="192" type="line"/>
      <point x="409" y="238" type="line"/>
    </contour>
  </outline>
</glyph>
<glyph name="dvBH_R" format="1">
  <advance width="363"/>
  <outline>
    <contour>
      <point x="443" y="374" type="line"/>
      <point x="63" y="-40" type="line"/>
      <point x="151" y="-40" type="line"/>
      <point x="480" y="327" type="line"/>
    </contour>
    <contour>
      <point x="480" y="381" type="line"/>
      <point x="184" y="381" type="line"/>
      <point x="184" y="526" type="line" smooth="yes"/>
      <point x="184" y="598"/>
      <point x="156" y="638"/>
      <point x="85" y="638" type="curve" smooth="yes"/>
      <point x="60" y="638"/>
      <point x="37" y="633"/>
      <point x="19" y="624" type="curve"/>
      <point x="19" y="571" type="line"/>
      <point x="35" y="579"/>
      <point x="57" y="584"/>
      <point x="76" y="584" type="curve" smooth="yes"/>
      <point x="111" y="584"/>
      <point x="122" y="562"/>
      <point x="122" y="514" type="curve" smooth="yes"/>
      <point x="122" y="379" type="line"/>
      <point x="98" y="374"/>
      <point x="80" y="353"/>
      <point x="80" y="327" type="curve" smooth="yes"/>
      <point x="80" y="300"/>
      <point x="95" y="265"/>
      <point x="107" y="237" type="curve" smooth="yes"/>
      <point x="129" y="187" type="line"/>
      <point x="184" y="187" type="line"/>
      <point x="184" y="327" type="line"/>
      <point x="480" y="327" type="line"/>
    </contour>
  </outline>
</glyph>
<glyph name="dvBH_YA" format="1">
  <advance width="923"/>
  <outline>
    <contour>
      <point x="596" y="130" type="curve" smooth="yes"/>
      <point x="671" y="130"/>
      <point x="728" y="156"/>
      <point x="762" y="201" type="curve"/>
      <point x="762" y="0" type="line"/>
      <point x="823" y="0" type="line"/>
      <point x="823" y="579" type="line"/>
      <point x="943" y="579" type="line"/>
      <point x="943" y="634" type="line"/>
      <point x="280" y="634" type="line"/>
      <point x="280" y="579" type="line"/>
      <point x="493" y="579" type="line"/>
      <point x="508" y="560"/>
      <point x="524" y="528"/>
      <point x="524" y="488" type="curve" smooth="yes"/>
      <point x="524" y="346"/>
      <point x="310" y="339"/>
      <point x="215" y="339" type="curve" smooth="yes"/>
      <point x="175" y="339" type="line"/>
      <point x="175" y="526" type="line" smooth="yes"/>
      <point x="175" y="598"/>
      <point x="147" y="638"/>
      <point x="76" y="638" type="curve" smooth="yes"/>
      <point x="51" y="638"/>
      <point x="28" y="633"/>
      <point x="10" y="624" type="curve"/>
      <point x="10" y="571" type="line"/>
      <point x="26" y="579"/>
      <point x="48" y="584"/>
      <point x="67" y="584" type="curve" smooth="yes"/>
      <point x="102" y="584"/>
      <point x="113" y="562"/>
      <point x="113" y="514" type="curve" smooth="yes"/>
      <point x="113" y="337" type="line"/>
      <point x="89" y="332"/>
      <point x="71" y="311"/>
      <point x="71" y="285" type="curve" smooth="yes"/>
      <point x="71" y="258"/>
      <point x="86" y="223"/>
      <point x="98" y="195" type="curve" smooth="yes"/>
      <point x="120" y="145" type="line"/>
      <point x="175" y="145" type="line"/>
      <point x="175" y="285" type="line"/>
      <point x="218" y="285" type="line" smooth="yes"/>
      <point x="262" y="285"/>
      <point x="317" y="287"/>
      <point x="372" y="297" type="curve"/>
      <point x="406" y="185"/>
      <point x="489" y="130"/>
    </contour>
    <contour>
      <point x="599" y="182" type="curve" smooth="yes"/>
      <point x="515" y="182"/>
      <point x="450" y="232"/>
      <point x="433" y="311" type="curve"/>
      <point x="516" y="335"/>
      <point x="586" y="389"/>
      <point x="586" y="485" type="curve" smooth="yes"/>
      <point x="586" y="523"/>
      <point x="576" y="555"/>
      <point x="560" y="579" type="curve"/>
      <point x="762" y="579" type="line"/>
      <point x="762" y="327" type="line" smooth="yes"/>
      <point x="762" y="240"/>
      <point x="695" y="182"/>
    </contour>
  </outline>
</glyph>
<glyph name="dvB" format="1">
  <advance width="375"/>
  <outline>
    <contour>
      <point x="271" y="83" type="curve" smooth="yes"/>
      <point x="379" y="83"/>
      <point x="448" y="139"/>
      <point x="501" y="206" type="curve"/>
      <point x="465" y="246" type="line"/>
      <point x="427" y="194"/>
      <point x="376" y="135"/>
      <point x="274" y="135" type="curve"/>
      <point x="185" y="135"/>
      <point x="119" y="198"/>
      <point x="119" y="286" type="curve" smooth="yes"/>
      <point x="119" y="377"/>
      <point x="175" y="439"/>
      <point x="279" y="439" type="curve" smooth="yes"/>
      <point x="302" y="439"/>
      <point x="329" y="435"/>
      <point x="359" y="425" type="curve"/>
      <point x="359" y="480" type="line"/>
      <point x="332" y="487"/>
      <point x="307" y="491"/>
      <point x="276" y="491" type="curve" smooth="yes"/>
      <point x="153" y="491"/>
      <point x="60" y="408"/>
      <point x="60" y="286" type="curve" smooth="yes"/>
      <point x="60" y="162"/>
      <point x="158" y="83"/>
    </contour>
    <contour>
      <point x="395" y="579" type="line"/>
      <point x="395" y="634" type="line"/>
      <point x="-20" y="634" type="line"/>
      <point x="-20" y="579" type="line"/>
    </contour>
    <contour>
      <point x="434" y="170" type="line"/>
      <point x="178" y="434" type="line"/>
      <point x="141" y="402" type="line"/>
      <point x="399" y="139" type="line"/>
    </contour>
  </outline>
</glyph>
<glyph name="dvB_BHA" format="1">
  <advance width="915"/>
  <outline>
    <contour>
      <point x="753" y="339" type="line"/>
      <point x="545" y="339" type="line"/>
      <point x="545" y="525" type="line" smooth="yes"/>
      <point x="545" y="597"/>
      <point x="522" y="634"/>
      <point x="436" y="634" type="curve" smooth="yes"/>
      <point x="380" y="634" type="line"/>
      <point x="380" y="579" type="line"/>
      <point x="428" y="579" type="line" smooth="yes"/>
      <point x="474" y="579"/>
      <point x="483" y="555"/>
      <point x="483" y="509" type="curve"/>
      <point x="483" y="337" type="line"/>
      <point x="459" y="332"/>
      <point x="441" y="311"/>
      <point x="441" y="285" type="curve" smooth="yes"/>
      <point x="441" y="258"/>
      <point x="456" y="223"/>
      <point x="468" y="195" type="curve" smooth="yes"/>
      <point x="490" y="145" type="line"/>
      <point x="545" y="145" type="line"/>
      <point x="545" y="285" type="line"/>
      <point x="753" y="285" type="line"/>
      <point x="753" y="0" type="line"/>
      <point x="815" y="0" type="line"/>
      <point x="815" y="579" type="line"/>
      <point x="935" y="579" type="line"/>
      <point x="935" y="634" type="line"/>
      <point x="753" y="634" type="line"/>
    </contour>
    <component base="dvB"/>
  </outline>
</glyph>
<glyph name="dvB_JHA" format="1">
  <advance width="1103"/>
  <outline>
    <contour>
      <point x="282" y="79" type="curve" smooth="yes"/>
      <point x="354" y="79"/>
      <point x="417" y="105"/>
      <point x="468" y="152" type="curve"/>
      <point x="420" y="175" type="line"/>
      <point x="385" y="146"/>
      <point x="341" y="130"/>
      <point x="291" y="130" type="curve" smooth="yes"/>
      <point x="190" y="130"/>
      <point x="119" y="194"/>
      <point x="119" y="286" type="curve" smooth="yes"/>
      <point x="119" y="377"/>
      <point x="176" y="439"/>
      <point x="279" y="439" type="curve" smooth="yes"/>
      <point x="302" y="439"/>
      <point x="329" y="435"/>
      <point x="359" y="425" type="curve"/>
      <point x="359" y="480" type="line"/>
      <point x="332" y="487"/>
      <point x="307" y="491"/>
      <point x="276" y="491" type="curve" smooth="yes"/>
      <point x="153" y="491"/>
      <point x="60" y="408"/>
      <point x="60" y="286" type="curve" smooth="yes"/>
      <point x="60" y="162"/>
      <point x="150" y="80"/>
    </contour>
    <contour>
      <point x="395" y="579" type="line"/>
      <point x="395" y="634" type="line"/>
      <point x="-20" y="634" type="line"/>
      <point x="-20" y="579" type="line"/>
    </contour>
    <contour>
      <point x="448" y="145" type="line"/>
      <point x="178" y="434" type="line"/>
      <point x="141" y="402" type="line"/>
      <point x="413" y="114" type="line"/>
    </contour>
    <contour>
      <point x="969" y="311" type="line"/>
      <point x="630" y="311" type="line"/>
      <point x="626" y="258" type="line"/>
      <point x="969" y="258" type="line"/>
    </contour>
    <contour>
      <point x="829" y="579" type="line"/>
      <point x="941" y="579" type="line"/>
      <point x="941" y="0" type="line"/>
      <point x="1003" y="0" type="line"/>
      <point x="1003" y="579" type="line"/>
      <point x="1123" y="579" type="line"/>
      <point x="1123" y="634" type="line"/>
      <point x="829" y="634" type="line"/>
    </contour>
    <contour>
      <point x="792" y="166" type="curve" smooth="yes"/>
      <point x="792" y="250"/>
      <point x="715" y="304"/>
      <point x="619" y="312" type="curve" smooth="yes"/>
      <point x="530" y="319"/>
      <point x="491" y="331"/>
      <point x="491" y="376" type="curve" smooth="yes"/>
      <point x="491" y="419"/>
      <point x="528" y="442"/>
      <point x="591" y="442" type="curve" smooth="yes"/>
      <point x="743" y="442" type="line"/>
      <point x="729" y="497" type="line"/>
      <point x="586" y="497" type="line" smooth="yes"/>
      <point x="491" y="497"/>
      <point x="429" y="451"/>
      <point x="429" y="375" type="curve" smooth="yes"/>
      <point x="429" y="289"/>
      <point x="503" y="267"/>
      <point x="603" y="260" type="curve" smooth="yes"/>
      <point x="699" y="253"/>
      <point x="730" y="211"/>
      <point x="730" y="166" type="curve" smooth="yes"/>
      <point x="730" y="108"/>
      <point x="690" y="73"/>
      <point x="630" y="73" type="curve" smooth="yes"/>
      <point x="563" y="73"/>
      <point x="498" y="118"/>
      <point x="475" y="175" type="curve"/>
      <point x="475" y="82" type="line"/>
      <point x="509" y="41"/>
      <point x="569" y="19"/>
      <point x="630" y="19" type="curve" smooth="yes"/>
      <point x="727" y="19"/>
      <point x="792" y="83"/>
    </contour>
    <contour>
      <point x="330" y="579" type="line"/>
      <point x="681" y="579" type="line"/>
      <point x="681" y="488" type="line"/>
      <point x="743" y="442" type="line"/>
      <point x="743" y="579" type="line"/>
      <point x="838" y="579" type="line"/>
      <point x="838" y="634" type="line"/>
      <point x="330" y="634" type="line"/>
    </contour>
    <contour>
      <point x="420" y="-47" type="line"/>
      <point x="480" y="-47" type="line"/>
      <point x="480" y="116" type="line"/>
      <point x="475" y="175" type="line"/>
      <point x="420" y="175" type="line"/>
    </contour>
  </outline>
</glyph>
<glyph name="dvB_SA" format="1">
  <advance width="1013"/>
  <outline>
    <contour>
      <point x="283" y="83" type="curve" smooth="yes"/>
      <point x="413" y="83"/>
      <point x="500" y="166"/>
      <point x="500" y="284" type="curve"/>
      <point x="446" y="284" type="line"/>
      <point x="446" y="201"/>
      <point x="394" y="135"/>
      <point x="283" y="135" type="curve"/>
      <point x="194" y="135"/>
      <point x="119" y="192"/>
      <point x="119" y="286" type="curve" smooth="yes"/>
      <point x="119" y="377"/>
      <point x="175" y="439"/>
      <point x="279" y="439" type="curve" smooth="yes"/>
      <point x="302" y="439"/>
      <point x="329" y="435"/>
      <point x="359" y="425" type="curve"/>
      <point x="359" y="480" type="line"/>
      <point x="332" y="487"/>
      <point x="307" y="491"/>
      <point x="276" y="491" type="curve" smooth="yes"/>
      <point x="153" y="491"/>
      <point x="60" y="408"/>
      <point x="60" y="286" type="curve" smooth="yes"/>
      <point x="60" y="162"/>
      <point x="153" y="83"/>
    </contour>
    <contour>
      <point x="415" y="579" type="line"/>
      <point x="415" y="634" type="line"/>
      <point x="-20" y="634" type="line"/>
      <point x="-20" y="579" type="line"/>
    </contour>
    <contour>
      <point x="434" y="170" type="line"/>
      <point x="178" y="434" type="line"/>
      <point x="141" y="402" type="line"/>
      <point x="399" y="139" type="line"/>
    </contour>
    <component base="dvSA" xOffset="416"/>
  </outline>
</glyph>
<glyph name="dvB_SHA" format="1">
  <advance width="1074"/>
  <outline>
    <contour>
      <point x="271" y="83" type="curve" smooth="yes"/>
      <point x="390" y="83"/>
      <point x="501" y="154"/>
      <point x="501" y="282" type="curve"/>
      <point x="450" y="282" type="line"/>
      <point x="450" y="189"/>
      <point x="374" y="135"/>
      <point x="279" y="135" type="curve" smooth="yes"/>
      <point x="185" y="135"/>
      <point x="119" y="194"/>
      <point x="119" y="286" type="curve" smooth="yes"/>
      <point x="119" y="377"/>
      <point x="175" y="439"/>
      <point x="279" y="439" type="curve" smooth="yes"/>
      <point x="302" y="439"/>
      <point x="329" y="435"/>
      <point x="359" y="425" type="curve"/>
      <point x="359" y="480" type="line"/>
      <point x="332" y="487"/>
      <point x="307" y="491"/>
      <point x="276" y="491" type="curve" smooth="yes"/>
      <point x="153" y="491"/>
      <point x="60" y="408"/>
      <point x="60" y="286" type="curve" smooth="yes"/>
      <point x="60" y="162"/>
      <point x="158" y="83"/>
    </contour>
    <contour>
      <point x="415" y="579" type="line"/>
      <point x="415" y="634" type="line"/>
      <point x="-20" y="634" type="line"/>
      <point x="-20" y="579" type="line"/>
    </contour>
    <contour>
      <point x="434" y="170" type="line"/>
      <point x="178" y="434" type="line"/>
      <point x="141" y="402" type="line"/>
      <point x="399" y="139" type="line"/>
    </contour>
    <component base="dvSHA" xOffset="420"/>
  </outline>
</glyph>
<glyph name="dvCH_R" format="1">
  <advance width="633"/>
  <outline>
    <contour>
      <point x="348" y="417" type="line"/>
      <point x="357" y="421"/>
      <point x="375" y="424"/>
      <point x="390" y="424" type="curve" smooth="yes"/>
      <point x="475" y="424"/>
      <point x="511" y="374"/>
      <point x="511" y="307" type="curve" smooth="yes"/>
      <point x="511" y="180"/>
      <point x="421" y="111"/>
      <point x="304" y="111" type="curve" smooth="yes"/>
      <point x="213" y="111"/>
      <point x="141" y="153"/>
      <point x="141" y="225" type="curve" smooth="yes"/>
      <point x="141" y="282"/>
      <point x="184" y="321"/>
      <point x="259" y="321" type="curve" smooth="yes"/>
      <point x="297" y="321" type="line"/>
      <point x="297" y="374" type="line"/>
      <point x="269" y="374" type="line" smooth="yes"/>
      <point x="215" y="374"/>
      <point x="161" y="408"/>
      <point x="161" y="472" type="curve" smooth="yes"/>
      <point x="161" y="522"/>
      <point x="190" y="569"/>
      <point x="251" y="587" type="curve"/>
      <point x="158" y="587" type="line"/>
      <point x="117" y="561"/>
      <point x="99" y="516"/>
      <point x="99" y="473" type="curve" smooth="yes"/>
      <point x="99" y="399"/>
      <point x="154" y="362"/>
      <point x="184" y="353" type="curve"/>
      <point x="125" y="345"/>
      <point x="79" y="297"/>
      <point x="79" y="226" type="curve" smooth="yes"/>
      <point x="79" y="123"/>
      <point x="172" y="59"/>
      <point x="304" y="59" type="curve" smooth="yes"/>
      <point x="459" y="59"/>
      <point x="573" y="165"/>
      <point x="573" y="306" type="curve" smooth="yes"/>
      <point x="573" y="402"/>
      <point x="520" y="476"/>
      <point x="399" y="476" type="curve" smooth="yes"/>
      <point x="380" y="476"/>
      <point x="359" y="474"/>
      <point x="348" y="470" type="curve"/>
    </contour>
    <contour>
      <point x="653" y="579" type="line"/>
      <point x="653" y="634" type="line"/>
      <point x="-20" y="634" type="line"/>
      <point x="-20" y="579" type="line"/>
    </contour>
    <contour>
      <point x="261" y="79" type="line"/>
      <point x="142" y="-77" type="line"/>
      <point x="217" y="-77" type="line"/>
      <point x="314" y="51" type="line"/>
      <point x="410" y="-77" type="line"/>
      <point x="485" y="-77" type="line"/>
      <point x="366" y="79" type="line"/>
    </contour>
  </outline>
</glyph>
<glyph name="dvCH_YA" format="1">
  <advance width="1163"/>
  <outline>
    <contour>
      <point x="493" y="382" type="line"/>
      <point x="544" y="411"/>
      <point x="617" y="430"/>
      <point x="676" y="430" type="curve" smooth="yes"/>
      <point x="734" y="430"/>
      <point x="783" y="414"/>
      <point x="783" y="371" type="curve" smooth="yes"/>
      <point x="783" y="318"/>
      <point x="730" y="288"/>
      <point x="640" y="273" type="curve"/>
      <point x="658" y="131"/>
      <point x="750" y="68"/>
      <point x="852" y="68" type="curve" smooth="yes"/>
      <point x="927" y="68"/>
      <point x="975" y="102"/>
      <point x="1002" y="140" type="curve"/>
      <point x="1002" y="0" type="line"/>
      <point x="1063" y="0" type="line"/>
      <point x="1063" y="609" type="line"/>
      <point x="1002" y="609" type="line"/>
      <point x="1002" y="274" type="line" smooth="yes"/>
      <point x="1002" y="197"/>
      <point x="951" y="122"/>
      <point x="855" y="122" type="curve" smooth="yes"/>
      <point x="781" y="122"/>
      <point x="726" y="166"/>
      <point x="713" y="231" type="curve"/>
      <point x="785" y="253"/>
      <point x="845" y="304"/>
      <point x="845" y="368" type="curve" smooth="yes"/>
      <point x="845" y="427"/>
      <point x="802" y="483"/>
      <point x="673" y="483" type="curve" smooth="yes"/>
      <point x="626" y="483"/>
      <point x="544" y="470"/>
      <point x="493" y="442" type="curve"/>
    </contour>
    <contour>
      <point x="1184" y="634" type="line"/>
      <point x="550" y="634" type="line"/>
      <point x="550" y="579" type="line"/>
      <point x="1184" y="579" type="line"/>
    </contour>
    <component base="dvCHA"/>
  </outline>
</glyph>
<glyph name="dvC" format="1">
  <advance width="375"/>
  <outline>
    <contour>
      <point x="469" y="260" type="line"/>
      <point x="443" y="211"/>
      <point x="372" y="153"/>
      <point x="288" y="153" type="curve" smooth="yes"/>
      <point x="214" y="153"/>
      <point x="158" y="196"/>
      <point x="158" y="264" type="curve" smooth="yes"/>
      <point x="158" y="320"/>
      <point x="192" y="394"/>
      <point x="367" y="394" type="curve" smooth="yes"/>
      <point x="230" y="411" type="line"/>
      <point x="141" y="394"/>
      <point x="96" y="337"/>
      <point x="96" y="264" type="curve" smooth="yes"/>
      <point x="96" y="157"/>
      <point x="181" y="101"/>
      <point x="285" y="101" type="curve" smooth="yes"/>
      <point x="388" y="101"/>
      <point x="466" y="158"/>
      <point x="499" y="217" type="curve"/>
    </contour>
    <contour>
      <point x="395" y="579" type="line"/>
      <point x="395" y="634" type="line"/>
      <point x="-20" y="634" type="line"/>
      <point x="-20" y="579" type="line"/>
    </contour>
    <contour>
      <point x="367" y="394" type="line"/>
      <point x="367" y="449" type="line"/>
      <point x="30" y="449" type="line"/>
      <point x="30" y="394" type="line"/>
    </contour>
  </outline>
</glyph>
<glyph name="dvC_CHA" format="1">
  <advance width="1019"/>
  <outline>
    <contour>
      <point x="882" y="634" type="move" name="abvm.candra"/>
    </contour>
    <contour>
      <point x="882" y="634" type="move" name="abvm.e"/>
    </contour>
    <contour>
      <point x="882" y="634" type="move" name="abvm.bindu"/>
    </contour>
    <contour>
      <point x="675" y="59" type="move" name="blwm.virama"/>
    </contour>
    <contour>
      <point x="882" y="634" type="move" name="abvm.reph"/>
    </contour>
    <contour>
      <point x="675" y="24" type="move" name="blwm.u"/>
    </contour>
    <contour>
      <point x="469" y="260" type="line"/>
      <point x="443" y="211"/>
      <point x="372" y="153"/>
      <point x="288" y="153" type="curve" smooth="yes"/>
      <point x="214" y="153"/>
      <point x="158" y="196"/>
      <point x="158" y="264" type="curve" smooth="yes"/>
      <point x="158" y="320"/>
      <point x="192" y="394"/>
      <point x="367" y="394" type="curve" smooth="yes"/>
      <point x="230" y="411" type="line"/>
      <point x="141" y="394"/>
      <point x="96" y="337"/>
      <point x="96" y="264" type="curve" smooth="yes"/>
      <point x="96" y="157"/>
      <point x="181" y="101"/>
      <point x="285" y="101" type="curve" smooth="yes"/>
      <point x="388" y="101"/>
      <point x="466" y="158"/>
      <point x="499" y="217" type="curve"/>
    </contour>
    <contour>
      <point x="647" y="579" type="line"/>
      <point x="647" y="634" type="line"/>
      <point x="-20" y="634" type="line"/>
      <point x="-20" y="579" type="line"/>
    </contour>
    <contour>
      <point x="367" y="394" type="line"/>
      <point x="367" y="449" type="line"/>
      <point x="30" y="449" type="line"/>
      <point x="30" y="394" type="line"/>
    </contour>
    <component base="dvCHA" xOffset="395"/>
  </outline>
</glyph>
<glyph name="dvC_R" format="1">
  <advance width="416"/>
  <outline>
    <contour>
      <point x="529" y="225" type="line"/>
      <point x="497" y="293" type="line"/>
      <point x="460" y="225"/>
      <point x="383" y="153"/>
      <point x="288" y="153" type="curve" smooth="yes"/>
      <point x="216" y="153"/>
      <point x="163" y="191"/>
      <point x="163" y="264" type="curve" smooth="yes"/>
      <point x="163" y="320"/>
      <point x="197" y="394"/>
      <point x="372" y="394" type="curve"/>
      <point x="235" y="411" type="line"/>
      <point x="146" y="394"/>
      <point x="101" y="337"/>
      <point x="101" y="264" type="curve" smooth="yes"/>
      <point x="101" y="160"/>
      <point x="181" y="104"/>
      <point x="280" y="101" type="curve"/>
      <point x="104" y="-45" type="line"/>
      <point x="196" y="-45" type="line"/>
    </contour>
    <contour>
      <point x="436" y="579" type="line"/>
      <point x="436" y="634" type="line"/>
      <point x="-20" y="634" type="line"/>
      <point x="-20" y="579" type="line"/>
    </contour>
    <contour>
      <point x="372" y="394" type="line"/>
      <point x="372" y="449" type="line"/>
      <point x="35" y="449" type="line"/>
      <point x="35" y="394" type="line"/>
    </contour>
  </outline>
</glyph>
<glyph name="dvDA_mvR" format="1">
  <advance width="486"/>
  <outline>
    <contour>
      <point x="374" y="634" type="move" name="abvm.candra"/>
    </contour>
    <contour>
      <point x="374" y="634" type="move" name="abvm.e"/>
    </contour>
    <contour>
      <point x="374" y="634" type="move" name="abvm.bindu"/>
    </contour>
    <contour>
      <point x="238" y="19" type="move" name="blwm.virama"/>
    </contour>
    <contour>
      <point x="374" y="634" type="move" name="abvm.reph"/>
    </contour>
    <contour>
      <point x="238" y="-16" type="move" name="blwm.u"/>
    </contour>
    <contour>
      <point x="426" y="120" type="line"/>
      <point x="386" y="92"/>
      <point x="323" y="71"/>
      <point x="264" y="71" type="curve" smooth="yes"/>
      <point x="197" y="71"/>
      <point x="142" y="96"/>
      <point x="142" y="150" type="curve" smooth="yes"/>
      <point x="142" y="207"/>
      <point x="190" y="240"/>
      <point x="266" y="240" type="curve" smooth="yes"/>
      <point x="323" y="240" type="line"/>
      <point x="323" y="295" type="line"/>
      <point x="266" y="295" type="line" smooth="yes"/>
      <point x="191" y="295"/>
      <point x="146" y="320"/>
      <point x="146" y="368" type="curve" smooth="yes"/>
      <point x="146" y="413"/>
      <point x="184" y="438"/>
      <point x="253" y="439" type="curve" smooth="yes"/>
      <point x="281" y="439"/>
      <point x="342" y="435"/>
      <point x="374" y="424" type="curve"/>
      <point x="374" y="474" type="line"/>
      <point x="344" y="484"/>
      <point x="295" y="491"/>
      <point x="248" y="491" type="curve" smooth="yes"/>
      <point x="145" y="491"/>
      <point x="84" y="439"/>
      <point x="84" y="369" type="curve" smooth="yes"/>
      <point x="84" y="309"/>
      <point x="126" y="274"/>
      <point x="181" y="266" type="curve"/>
      <point x="118" y="254"/>
      <point x="80" y="208"/>
      <point x="80" y="148" type="curve" smooth="yes"/>
      <point x="80" y="66"/>
      <point x="157" y="19"/>
      <point x="263" y="19" type="curve" smooth="yes"/>
      <point x="324" y="19"/>
      <point x="388" y="37"/>
      <point x="426" y="60" type="curve"/>
    </contour>
    <contour>
      <point x="374" y="459" type="line"/>
      <point x="374" y="579" type="line"/>
      <point x="313" y="597" type="line"/>
      <point x="313" y="459" type="line"/>
    </contour>
    <contour>
      <point x="506" y="579" type="line"/>
      <point x="506" y="634" type="line"/>
      <point x="-20" y="634" type="line"/>
      <point x="-20" y="579" type="line"/>
    </contour>
  </outline>
</glyph>
<glyph name="dvDDH_YA" format="1">
  <advance width="1074"/>
  <outline>
    <contour>
      <point x="587" y="430" type="curve" smooth="yes"/>
      <point x="645" y="430"/>
      <point x="694" y="414"/>
      <point x="694" y="371" type="curve" smooth="yes"/>
      <point x="694" y="318"/>
      <point x="641" y="288"/>
      <point x="551" y="273" type="curve"/>
      <point x="569" y="131"/>
      <point x="661" y="68"/>
      <point x="763" y="68" type="curve" smooth="yes"/>
      <point x="838" y="68"/>
      <point x="886" y="102"/>
      <point x="913" y="140" type="curve"/>
      <point x="913" y="0" type="line"/>
      <point x="974" y="0" type="line"/>
      <point x="974" y="579" type="line"/>
      <point x="1095" y="579" type="line"/>
      <point x="1095" y="634" type="line"/>
      <point x="-20" y="634" type="line"/>
      <point x="-20" y="579" type="line"/>
      <point x="361" y="579" type="line"/>
      <point x="361" y="470" type="line"/>
      <point x="178" y="448"/>
      <point x="60" y="368"/>
      <point x="60" y="233" type="curve" smooth="yes"/>
      <point x="60" y="102"/>
      <point x="171" y="24"/>
      <point x="301" y="24" type="curve" smooth="yes"/>
      <point x="418" y="24"/>
      <point x="494" y="90"/>
      <point x="494" y="173" type="curve" smooth="yes"/>
      <point x="494" y="238"/>
      <point x="450" y="291"/>
      <point x="357" y="291" type="curve" smooth="yes"/>
      <point x="324" y="291"/>
      <point x="292" y="284"/>
      <point x="266" y="271" type="curve"/>
      <point x="266" y="215" type="line"/>
      <point x="287" y="228"/>
      <point x="318" y="239"/>
      <point x="355" y="239" type="curve" smooth="yes"/>
      <point x="402" y="239"/>
      <point x="432" y="211"/>
      <point x="432" y="173" type="curve" smooth="yes"/>
      <point x="432" y="112"/>
      <point x="375" y="76"/>
      <point x="300" y="76" type="curve" smooth="yes"/>
      <point x="201" y="76"/>
      <point x="124" y="135"/>
      <point x="124" y="235" type="curve" smooth="yes"/>
      <point x="124" y="369"/>
      <point x="281" y="413"/>
      <point x="447" y="425" type="curve" smooth="yes"/>
      <point x="494" y="429"/>
      <point x="542" y="430"/>
    </contour>
    <contour>
      <point x="423" y="579" type="line"/>
      <point x="913" y="579" type="line"/>
      <point x="913" y="274" type="line" smooth="yes"/>
      <point x="913" y="197"/>
      <point x="862" y="122"/>
      <point x="766" y="122" type="curve" smooth="yes"/>
      <point x="692" y="122"/>
      <point x="637" y="166"/>
      <point x="624" y="231" type="curve"/>
      <point x="696" y="253"/>
      <point x="756" y="304"/>
      <point x="756" y="368" type="curve" smooth="yes"/>
      <point x="756" y="427"/>
      <point x="713" y="483"/>
      <point x="584" y="483" type="curve" smooth="yes"/>
      <point x="542" y="483"/>
      <point x="479" y="482"/>
      <point x="423" y="476" type="curve"/>
    </contour>
  </outline>
</glyph>
<glyph name="dvDD_DDA" format="1">
  <advance width="545"/>
  <outline>
    <contour>
      <point x="410" y="634" type="move" name="abvm.candra"/>
    </contour>
    <contour>
      <point x="410" y="634" type="move" name="abvm.e"/>
    </contour>
    <contour>
      <point x="410" y="634" type="move" name="abvm.bindu"/>
    </contour>
    <contour>
      <point x="244" y="-181" type="move" name="blwm.virama"/>
    </contour>
    <contour>
      <point x="410" y="634" type="move" name="abvm.reph"/>
    </contour>
    <contour>
      <point x="244" y="-216" type="move" name="blwm.u"/>
    </contour>
    <contour>
      <point x="162" y="167" type="line"/>
      <point x="104" y="164"/>
      <point x="70" y="124"/>
      <point x="70" y="82" type="curve" smooth="yes"/>
      <point x="70" y="27"/>
      <point x="113" y="-17"/>
      <point x="214" y="-17" type="curve" smooth="yes"/>
      <point x="249" y="-17"/>
      <point x="291" y="-9"/>
      <point x="340" y="-9" type="curve" smooth="yes"/>
      <point x="386" y="-9"/>
      <point x="409" y="-29"/>
      <point x="409" y="-57" type="curve" smooth="yes"/>
      <point x="409" y="-105"/>
      <point x="350" y="-129"/>
      <point x="276" y="-129" type="curve" smooth="yes"/>
      <point x="203" y="-129"/>
      <point x="120" y="-107"/>
      <point x="71" y="-77" type="curve"/>
      <point x="71" y="-140" type="line"/>
      <point x="124" y="-168"/>
      <point x="207" y="-181"/>
      <point x="274" y="-181" type="curve" smooth="yes"/>
      <point x="403" y="-181"/>
      <point x="470" y="-129"/>
      <point x="470" y="-53" type="curve" smooth="yes"/>
      <point x="470" y="1"/>
      <point x="426" y="44"/>
      <point x="352" y="44" type="curve" smooth="yes"/>
      <point x="298" y="44"/>
      <point x="257" y="37"/>
      <point x="224" y="37" type="curve" smooth="yes"/>
      <point x="153" y="37"/>
      <point x="135" y="57"/>
      <point x="135" y="84" type="curve" smooth="yes"/>
      <point x="135" y="120"/>
      <point x="170" y="140"/>
      <point x="229" y="140" type="curve"/>
    </contour>
    <contour>
      <point x="465" y="258" type="curve"/>
      <point x="465" y="317"/>
      <point x="425" y="362"/>
      <point x="347" y="362" type="curve" smooth="yes"/>
      <point x="300" y="362"/>
      <point x="262" y="357"/>
      <point x="232" y="357" type="curve" smooth="yes"/>
      <point x="144" y="357"/>
      <point x="125" y="379"/>
      <point x="125" y="404" type="curve" smooth="yes"/>
      <point x="125" y="439"/>
      <point x="157" y="454"/>
      <point x="227" y="454" type="curve" smooth="yes"/>
      <point x="410" y="454" type="line"/>
      <point x="396" y="509" type="line"/>
      <point x="223" y="509" type="line" smooth="yes"/>
      <point x="129" y="509"/>
      <point x="60" y="480"/>
      <point x="60" y="402" type="curve" smooth="yes"/>
      <point x="60" y="349"/>
      <point x="105" y="304"/>
      <point x="210" y="304" type="curve" smooth="yes"/>
      <point x="243" y="304"/>
      <point x="285" y="311"/>
      <point x="333" y="311" type="curve" smooth="yes"/>
      <point x="378" y="311"/>
      <point x="403" y="291"/>
      <point x="403" y="259" type="curve" smooth="yes"/>
      <point x="403" y="213"/>
      <point x="342" y="191"/>
      <point x="258" y="191" type="curve" smooth="yes"/>
      <point x="196" y="191"/>
      <point x="106" y="216"/>
      <point x="61" y="243" type="curve"/>
      <point x="61" y="180" type="line"/>
      <point x="111" y="154"/>
      <point x="193" y="139"/>
      <point x="258" y="139" type="curve" smooth="yes"/>
      <point x="395" y="139"/>
      <point x="463" y="185"/>
    </contour>
    <contour>
      <point x="-20" y="579" type="line"/>
      <point x="348" y="579" type="line"/>
      <point x="348" y="500" type="line"/>
      <point x="410" y="454" type="line"/>
      <point x="410" y="579" type="line"/>
      <point x="565" y="579" type="line"/>
      <point x="565" y="634" type="line"/>
      <point x="-20" y="634" type="line"/>
    </contour>
  </outline>
</glyph>
<glyph name="dvDD_DDHA" format="1">
  <advance width="549"/>
  <outline>
    <contour>
      <point x="424" y="634" type="move" name="abvm.candra"/>
    </contour>
    <contour>
      <point x="424" y="634" type="move" name="abvm.e"/>
    </contour>
    <contour>
      <point x="424" y="634" type="move" name="abvm.bindu"/>
    </contour>
    <contour>
      <point x="274" y="-166" type="move" name="blwm.virama"/>
    </contour>
    <contour>
      <point x="424" y="634" type="move" name="abvm.reph"/>
    </contour>
    <contour>
      <point x="274" y="-201" type="move" name="blwm.u"/>
    </contour>
    <contour>
      <point x="479" y="260" type="curve" smooth="yes"/>
      <point x="479" y="316"/>
      <point x="440" y="364"/>
      <point x="354" y="364" type="curve" smooth="yes"/>
      <point x="305" y="364"/>
      <point x="247" y="357"/>
      <point x="221" y="357" type="curve" smooth="yes"/>
      <point x="155" y="357"/>
      <point x="139" y="380"/>
      <point x="139" y="404" type="curve" smooth="yes"/>
      <point x="139" y="439"/>
      <point x="174" y="454"/>
      <point x="241" y="454" type="curve" smooth="yes"/>
      <point x="424" y="454" type="line"/>
      <point x="410" y="509" type="line"/>
      <point x="237" y="509" type="line" smooth="yes"/>
      <point x="145" y="509"/>
      <point x="74" y="479"/>
      <point x="74" y="402" type="curve" smooth="yes"/>
      <point x="74" y="351"/>
      <point x="117" y="303"/>
      <point x="210" y="303" type="curve" smooth="yes"/>
      <point x="246" y="303"/>
      <point x="292" y="311"/>
      <point x="347" y="311" type="curve" smooth="yes"/>
      <point x="391" y="311"/>
      <point x="417" y="291"/>
      <point x="417" y="259" type="curve" smooth="yes"/>
      <point x="417" y="213"/>
      <point x="356" y="191"/>
      <point x="272" y="191" type="curve" smooth="yes"/>
      <point x="210" y="191"/>
      <point x="120" y="216"/>
      <point x="75" y="243" type="curve"/>
      <point x="75" y="180" type="line"/>
      <point x="125" y="154"/>
      <point x="207" y="139"/>
      <point x="272" y="139" type="curve" smooth="yes"/>
      <point x="409" y="139"/>
      <point x="479" y="187"/>
    </contour>
    <contour>
      <point x="312" y="179" type="line"/>
      <point x="157" y="179"/>
      <point x="73" y="101"/>
      <point x="73" y="5" type="curve" smooth="yes"/>
      <point x="73" y="-105"/>
      <point x="173" y="-166"/>
      <point x="290" y="-166" type="curve" smooth="yes"/>
      <point x="396" y="-166"/>
      <point x="488" y="-117"/>
      <point x="488" y="-38" type="curve" smooth="yes"/>
      <point x="488" y="23"/>
      <point x="432" y="56"/>
      <point x="349" y="56" type="curve" smooth="yes"/>
      <point x="316" y="56"/>
      <point x="275" y="44"/>
      <point x="249" y="30" type="curve"/>
      <point x="249" y="-26" type="line"/>
      <point x="271" y="-11"/>
      <point x="313" y="4"/>
      <point x="352" y="4" type="curve" smooth="yes"/>
      <point x="397" y="4"/>
      <point x="426" y="-11"/>
      <point x="426" y="-45" type="curve" smooth="yes"/>
      <point x="426" y="-86"/>
      <point x="371" y="-114"/>
      <point x="289" y="-114" type="curve" smooth="yes"/>
      <point x="191" y="-114"/>
      <point x="137" y="-68"/>
      <point x="137" y="5" type="curve" smooth="yes"/>
      <point x="137" y="77"/>
      <point x="192" y="135"/>
      <point x="318" y="141" type="curve"/>
    </contour>
    <contour>
      <point x="-20" y="579" type="line"/>
      <point x="362" y="579" type="line"/>
      <point x="362" y="500" type="line"/>
      <point x="424" y="454" type="line"/>
      <point x="424" y="579" type="line"/>
      <point x="569" y="579" type="line"/>
      <point x="569" y="634" type="line"/>
      <point x="-20" y="634" type="line"/>
    </contour>
  </outline>
</glyph>
<glyph name="dvDD_YA" format="1">
  <advance width="1037"/>
  <outline>
    <contour>
      <point x="451" y="149" type="curve" smooth="yes"/>
      <point x="451" y="225"/>
      <point x="404" y="284"/>
      <point x="310" y="284" type="curve"/>
      <point x="222" y="278" type="line"/>
      <point x="172" y="279"/>
      <point x="136" y="308"/>
      <point x="136" y="360" type="curve" smooth="yes"/>
      <point x="136" y="412"/>
      <point x="184" y="429"/>
      <point x="229" y="429" type="curve" smooth="yes"/>
      <point x="394" y="429" type="line"/>
      <point x="380" y="484" type="line"/>
      <point x="225" y="484" type="line" smooth="yes"/>
      <point x="137" y="484"/>
      <point x="74" y="441"/>
      <point x="74" y="358" type="curve" smooth="yes"/>
      <point x="74" y="276"/>
      <point x="135" y="226"/>
      <point x="212" y="224" type="curve"/>
      <point x="300" y="231" type="line"/>
      <point x="354" y="231"/>
      <point x="387" y="199"/>
      <point x="387" y="149" type="curve" smooth="yes"/>
      <point x="387" y="84"/>
      <point x="334" y="51"/>
      <point x="257" y="51" type="curve" smooth="yes"/>
      <point x="195" y="51"/>
      <point x="120" y="75"/>
      <point x="75" y="103" type="curve"/>
      <point x="75" y="40" type="line"/>
      <point x="125" y="14"/>
      <point x="192" y="-1"/>
      <point x="257" y="-1" type="curve" smooth="yes"/>
      <point x="377" y="-1"/>
      <point x="450" y="61"/>
    </contour>
    <contour>
      <point x="-20" y="579" type="line"/>
      <point x="332" y="579" type="line"/>
      <point x="332" y="475" type="line"/>
      <point x="394" y="429" type="line"/>
      <point x="394" y="579" type="line"/>
      <point x="541" y="579" type="line"/>
      <point x="541" y="634" type="line"/>
      <point x="-20" y="634" type="line"/>
    </contour>
    <contour>
      <point x="367" y="429" type="line"/>
      <point x="546" y="429" type="line" smooth="yes"/>
      <point x="613" y="429"/>
      <point x="657" y="412"/>
      <point x="657" y="371" type="curve" smooth="yes"/>
      <point x="657" y="317"/>
      <point x="604" y="288"/>
      <point x="514" y="273" type="curve"/>
      <point x="532" y="131"/>
      <point x="624" y="68"/>
      <point x="726" y="68" type="curve" smooth="yes"/>
      <point x="801" y="68"/>
      <point x="849" y="102"/>
      <point x="876" y="140" type="curve"/>
      <point x="876" y="0" type="line"/>
      <point x="937" y="0" type="line"/>
      <point x="937" y="609" type="line"/>
      <point x="876" y="609" type="line"/>
      <point x="876" y="274" type="line" smooth="yes"/>
      <point x="876" y="197"/>
      <point x="825" y="122"/>
      <point x="729" y="122" type="curve" smooth="yes"/>
      <point x="655" y="122"/>
      <point x="600" y="166"/>
      <point x="587" y="231" type="curve"/>
      <point x="659" y="253"/>
      <point x="719" y="304"/>
      <point x="719" y="368" type="curve" smooth="yes"/>
      <point x="719" y="436"/>
      <point x="672" y="484"/>
      <point x="543" y="484" type="curve" smooth="yes"/>
      <point x="367" y="484" type="line"/>
    </contour>
    <contour>
      <point x="424" y="579" type="line"/>
      <point x="1057" y="579" type="line"/>
      <point x="1057" y="634" type="line"/>
      <point x="424" y="634" type="line"/>
    </contour>
  </outline>
</glyph>
<glyph name="dvDH" format="1">
  <advance width="427"/>
  <outline>
    <contour>
      <point x="196" y="595" type="line"/>
      <point x="123" y="588"/>
      <point x="72" y="540"/>
      <point x="72" y="474" type="curve" smooth="yes"/>
      <point x="72" y="397"/>
      <point x="122" y="359"/>
      <point x="189" y="350" type="curve"/>
      <point x="123" y="341"/>
      <point x="70" y="297"/>
      <point x="70" y="220" type="curve" smooth="yes"/>
      <point x="70" y="135"/>
      <point x="142" y="63"/>
      <point x="275" y="63" type="curve" smooth="yes"/>
      <point x="409" y="63"/>
      <point x="500" y="140"/>
      <point x="551" y="206" type="curve"/>
      <point x="512" y="249" type="line"/>
      <point x="465" y="180"/>
      <point x="386" y="116"/>
      <point x="275" y="116" type="curve" smooth="yes"/>
      <point x="184" y="116"/>
      <point x="133" y="161"/>
      <point x="133" y="217" type="curve" smooth="yes"/>
      <point x="133" y="282"/>
      <point x="187" y="323"/>
      <point x="274" y="323" type="curve" smooth="yes"/>
      <point x="336" y="323" type="line"/>
      <point x="336" y="376" type="line"/>
      <point x="283" y="376" type="line" smooth="yes"/>
      <point x="206" y="376"/>
      <point x="134" y="402"/>
      <point x="134" y="472" type="curve" smooth="yes"/>
      <point x="134" y="531"/>
      <point x="188" y="579"/>
      <point x="286" y="579" type="curve"/>
    </contour>
    <contour>
      <point x="286" y="579" type="line"/>
      <point x="286" y="634" type="line"/>
      <point x="-20" y="634" type="line"/>
      <point x="-20" y="579" type="line"/>
    </contour>
  </outline>
</glyph>
<glyph name="dvDH_N_YA" format="1">
  <advance width="1013"/>
  <outline>
    <contour>
      <point x="205" y="595" type="line"/>
      <point x="132" y="588"/>
      <point x="81" y="540"/>
      <point x="81" y="474" type="curve" smooth="yes"/>
      <point x="81" y="402"/>
      <point x="131" y="366"/>
      <point x="198" y="357" type="curve"/>
      <point x="132" y="348"/>
      <point x="79" y="301"/>
      <point x="79" y="230" type="curve" smooth="yes"/>
      <point x="79" y="145"/>
      <point x="151" y="83"/>
      <point x="284" y="83" type="curve" smooth="yes"/>
      <point x="400" y="83"/>
      <point x="491" y="164"/>
      <point x="549" y="241" type="curve"/>
      <point x="509" y="280" type="line"/>
      <point x="459" y="218"/>
      <point x="387" y="136"/>
      <point x="284" y="136" type="curve" smooth="yes"/>
      <point x="191" y="136"/>
      <point x="142" y="173"/>
      <point x="142" y="231" type="curve" smooth="yes"/>
      <point x="142" y="290"/>
      <point x="198" y="330"/>
      <point x="283" y="330" type="curve" smooth="yes"/>
      <point x="345" y="330" type="line"/>
      <point x="345" y="383" type="line"/>
      <point x="292" y="383" type="line" smooth="yes"/>
      <point x="215" y="383"/>
      <point x="143" y="402"/>
      <point x="143" y="472" type="curve" smooth="yes"/>
      <point x="143" y="531"/>
      <point x="197" y="579"/>
      <point x="295" y="579" type="curve"/>
    </contour>
    <contour>
      <point x="295" y="579" type="line"/>
      <point x="295" y="634" type="line"/>
      <point x="-20" y="634" type="line"/>
      <point x="-20" y="579" type="line"/>
    </contour>
    <contour>
      <point x="183" y="34" type="line"/>
      <point x="143" y="11"/>
      <point x="127" y="-12"/>
      <point x="127" y="-41" type="curve" smooth="yes"/>
      <point x="127" y="-79"/>
      <point x="160" y="-119"/>
      <point x="194" y="-140" type="curve"/>
      <point x="238" y="-113" type="line"/>
      <point x="217" y="-96"/>
      <point x="197" y="-71"/>
      <point x="197" y="-45" type="curve" smooth="yes"/>
      <point x="197" y="-33"/>
      <point x="203" y="-20"/>
      <point x="217" y="-11" type="curve" smooth="yes"/>
      <point x="421" y="122" type="line"/>
      <point x="395" y="156" type="line"/>
    </contour>
    <contour>
      <point x="686" y="130" type="curve" smooth="yes"/>
      <point x="761" y="130"/>
      <point x="818" y="156"/>
      <point x="852" y="201" type="curve"/>
      <point x="852" y="0" type="line"/>
      <point x="913" y="0" type="line"/>
      <point x="913" y="579" type="line"/>
      <point x="1033" y="579" type="line"/>
      <point x="1033" y="634" type="line"/>
      <point x="450" y="634" type="line"/>
      <point x="450" y="579" type="line"/>
      <point x="583" y="579" type="line"/>
      <point x="598" y="560"/>
      <point x="614" y="528"/>
      <point x="614" y="488" type="curve" smooth="yes"/>
      <point x="614" y="430"/>
      <point x="558" y="382"/>
      <point x="450" y="364" type="curve"/>
      <point x="470" y="210"/>
      <point x="568" y="130"/>
    </contour>
    <contour>
      <point x="689" y="182" type="curve" smooth="yes"/>
      <point x="605" y="182"/>
      <point x="540" y="242"/>
      <point x="523" y="321" type="curve"/>
      <point x="604" y="346"/>
      <point x="676" y="391"/>
      <point x="676" y="485" type="curve" smooth="yes"/>
      <point x="676" y="523"/>
      <point x="666" y="555"/>
      <point x="650" y="579" type="curve"/>
      <point x="852" y="579" type="line"/>
      <point x="852" y="327" type="line" smooth="yes"/>
      <point x="852" y="240"/>
      <point x="785" y="182"/>
    </contour>
  </outline>
</glyph>
<glyph name="dvDH_RA" format="1">
  <advance width="637"/>
  <outline>
    <contour>
      <point x="201" y="595" type="line"/>
      <point x="128" y="588"/>
      <point x="77" y="540"/>
      <point x="77" y="474" type="curve" smooth="yes"/>
      <point x="77" y="397"/>
      <point x="127" y="368"/>
      <point x="194" y="359" type="curve"/>
      <point x="133" y="351"/>
      <point x="75" y="304"/>
      <point x="75" y="230" type="curve" smooth="yes"/>
      <point x="75" y="144"/>
      <point x="148" y="86"/>
      <point x="275" y="83" type="curve"/>
      <point x="116" y="-45" type="line"/>
      <point x="206" y="-45" type="line"/>
      <point x="476" y="171" type="line"/>
      <point x="476" y="0" type="line"/>
      <point x="537" y="0" type="line"/>
      <point x="537" y="587" type="line"/>
      <point x="476" y="587" type="line"/>
      <point x="476" y="309" type="line" smooth="yes"/>
      <point x="476" y="238"/>
      <point x="407" y="136"/>
      <point x="280" y="136" type="curve" smooth="yes"/>
      <point x="187" y="136"/>
      <point x="138" y="173"/>
      <point x="138" y="231" type="curve" smooth="yes"/>
      <point x="138" y="293"/>
      <point x="200" y="332"/>
      <point x="279" y="332" type="curve" smooth="yes"/>
      <point x="341" y="332" type="line"/>
      <point x="341" y="385" type="line"/>
      <point x="288" y="385" type="line" smooth="yes"/>
      <point x="211" y="385"/>
      <point x="139" y="402"/>
      <point x="139" y="472" type="curve" smooth="yes"/>
      <point x="139" y="531"/>
      <point x="193" y="579"/>
      <point x="291" y="579" type="curve"/>
    </contour>
    <contour>
      <point x="657" y="579" type="line"/>
      <point x="657" y="634" type="line"/>
      <point x="476" y="634" type="line"/>
      <point x="476" y="579" type="line"/>
    </contour>
    <contour>
      <point x="291" y="579" type="line"/>
      <point x="291" y="634" type="line"/>
      <point x="-20" y="634" type="line"/>
      <point x="-20" y="579" type="line"/>
    </contour>
  </outline>
</glyph>
<glyph name="dvDH_VA" format="1">
  <advance width="996"/>
  <outline>
    <contour>
      <point x="896" y="0" type="line"/>
      <point x="896" y="614" type="line"/>
      <point x="835" y="614" type="line"/>
      <point x="835" y="0" type="line"/>
    </contour>
    <contour>
      <point x="733" y="457" type="line"/>
      <point x="717" y="461"/>
      <point x="693" y="464"/>
      <point x="671" y="464" type="curve" smooth="yes"/>
      <point x="560" y="464"/>
      <point x="480" y="386"/>
      <point x="480" y="279" type="curve" smooth="yes"/>
      <point x="480" y="160"/>
      <point x="572" y="92"/>
      <point x="669" y="92" type="curve" smooth="yes"/>
      <point x="772" y="92"/>
      <point x="830" y="150"/>
      <point x="847" y="207" type="curve"/>
      <point x="835" y="319" type="line"/>
      <point x="835" y="232"/>
      <point x="783" y="144"/>
      <point x="672" y="144" type="curve" smooth="yes"/>
      <point x="603" y="144"/>
      <point x="542" y="196"/>
      <point x="542" y="279" type="curve" smooth="yes"/>
      <point x="542" y="358"/>
      <point x="600" y="410"/>
      <point x="674" y="410" type="curve" smooth="yes"/>
      <point x="696" y="410"/>
      <point x="716" y="408"/>
      <point x="733" y="402" type="curve"/>
    </contour>
    <contour>
      <point x="1016" y="579" type="line"/>
      <point x="1016" y="634" type="line"/>
      <point x="470" y="634" type="line"/>
      <point x="470" y="579" type="line"/>
    </contour>
    <component base="dvDH"/>
  </outline>
</glyph>
<glyph name="dvDH_YA" format="1">
  <advance width="1012"/>
  <outline>
    <contour>
      <point x="685" y="130" type="curve" smooth="yes"/>
      <point x="760" y="130"/>
      <point x="817" y="156"/>
      <point x="851" y="201" type="curve"/>
      <point x="851" y="0" type="line"/>
      <point x="912" y="0" type="line"/>
      <point x="912" y="579" type="line"/>
      <point x="1032" y="579" type="line"/>
      <point x="1032" y="634" type="line"/>
      <point x="429" y="634" type="line"/>
      <point x="429" y="579" type="line"/>
      <point x="582" y="579" type="line"/>
      <point x="597" y="560"/>
      <point x="613" y="528"/>
      <point x="613" y="488" type="curve" smooth="yes"/>
      <point x="613" y="430"/>
      <point x="557" y="382"/>
      <point x="449" y="364" type="curve"/>
      <point x="469" y="210"/>
      <point x="567" y="130"/>
    </contour>
    <contour>
      <point x="688" y="182" type="curve" smooth="yes"/>
      <point x="604" y="182"/>
      <point x="539" y="242"/>
      <point x="522" y="321" type="curve"/>
      <point x="603" y="346"/>
      <point x="675" y="391"/>
      <point x="675" y="485" type="curve" smooth="yes"/>
      <point x="675" y="523"/>
      <point x="665" y="555"/>
      <point x="649" y="579" type="curve"/>
      <point x="851" y="579" type="line"/>
      <point x="851" y="327" type="line" smooth="yes"/>
      <point x="851" y="240"/>
      <point x="784" y="182"/>
    </contour>
    <component base="dvDH"/>
  </outline>
</glyph>
